<mxfile host="Electron" agent="Mozilla/5.0 (Macintosh; Intel Mac OS X 10_15_7) AppleWebKit/537.36 (KHTML, like Gecko) draw.io/24.7.17 Chrome/128.0.6613.36 Electron/32.0.1 Safari/537.36" version="24.7.17">
  <diagram name="network-topology" id="hR9KPtunycAnVMiByf6M">
    <mxGraphModel dx="2555" dy="1012" grid="1" gridSize="10" guides="1" tooltips="1" connect="1" arrows="1" fold="1" page="1" pageScale="1" pageWidth="827" pageHeight="1169" math="0" shadow="0">
      <root>
        <mxCell id="0" />
        <mxCell id="1" parent="0" />
        <mxCell id="2BIPHVkeTHTQ2Wo5Wz-0-8" value="" style="rounded=1;whiteSpace=wrap;html=1;fillColor=#ffe6cc;strokeColor=#d79b00;" parent="1" vertex="1">
          <mxGeometry x="130" y="420" width="230" height="120" as="geometry" />
        </mxCell>
        <mxCell id="2BIPHVkeTHTQ2Wo5Wz-0-2" value="" style="rounded=1;whiteSpace=wrap;html=1;fillColor=#f5f5f5;fontColor=#333333;strokeColor=#666666;arcSize=0;" parent="1" vertex="1">
          <mxGeometry x="400" y="360" width="440" height="520" as="geometry" />
        </mxCell>
        <mxCell id="2BIPHVkeTHTQ2Wo5Wz-0-3" value="" style="image;aspect=fixed;html=1;points=[];align=center;fontSize=12;image=img/lib/azure2/networking/DNS_Zones.svg;" parent="1" vertex="1">
          <mxGeometry x="180" y="440.5" width="79" height="79" as="geometry" />
        </mxCell>
        <mxCell id="2BIPHVkeTHTQ2Wo5Wz-0-28" value="" style="edgeStyle=orthogonalEdgeStyle;rounded=0;orthogonalLoop=1;jettySize=auto;html=1;entryX=0.028;entryY=0.5;entryDx=0;entryDy=0;entryPerimeter=0;" parent="1" source="2BIPHVkeTHTQ2Wo5Wz-0-7" target="2BIPHVkeTHTQ2Wo5Wz-0-3" edge="1">
          <mxGeometry relative="1" as="geometry" />
        </mxCell>
        <mxCell id="2BIPHVkeTHTQ2Wo5Wz-0-7" value="" style="aspect=fixed;sketch=0;html=1;dashed=0;whitespace=wrap;verticalLabelPosition=bottom;verticalAlign=top;fillColor=#2875E2;strokeColor=#ffffff;points=[[0.005,0.63,0],[0.1,0.2,0],[0.9,0.2,0],[0.5,0,0],[0.995,0.63,0],[0.72,0.99,0],[0.5,1,0],[0.28,0.99,0]];shape=mxgraph.kubernetes.icon2;kubernetesLabel=1;prIcon=user" parent="1" vertex="1">
          <mxGeometry x="-70" y="440.5" width="82.29" height="79" as="geometry" />
        </mxCell>
        <mxCell id="2BIPHVkeTHTQ2Wo5Wz-0-19" value="" style="group" parent="1" vertex="1" connectable="0">
          <mxGeometry x="441.67" y="700" width="160" height="81" as="geometry" />
        </mxCell>
        <mxCell id="2BIPHVkeTHTQ2Wo5Wz-0-18" value="" style="rounded=1;whiteSpace=wrap;html=1;" parent="2BIPHVkeTHTQ2Wo5Wz-0-19" vertex="1">
          <mxGeometry width="160" height="81" as="geometry" />
        </mxCell>
        <mxCell id="2BIPHVkeTHTQ2Wo5Wz-0-16" value="" style="shape=image;verticalLabelPosition=bottom;labelBackgroundColor=default;verticalAlign=top;aspect=fixed;imageAspect=0;image=data:image/png,iVBORw0KGgoAAAANSUhEUgAABLAAAAJNCAYAAAAh/YwyAAAAAXNSR0IArs4c6QAAIABJREFUeF7s3QmcHFW1P/DfqequnjWT6ZnJQgj7ogQCmU5A1IfhLwoKiIIg+mQJWyAzEwzu4JMWxOUJAZKZQADhiYgaHi5PwAUkUXlAzEwCSKIIT5SwJLNmn+ntnn8qLAImme6Zqu7q7l/xyScJqXvuud9bM9N9uupeAQ8KUIACFKAABShAAQpQgAIUoAAFKEABCgRYQAKcG1OjAAUoQAEKUIACFKAABShAAQpQgAIUoABYwOJFQAEKUIACFKAABShAAQpQgAIUoAAFKBBoARawAj09TI4CFKAABShAAQpQgAIUoAAFKEABClCABSxeAxSgAAUoQAEKUIACFKAABShAAQpQgAKBFmABK9DTw+QoQAEKUIACFKAABShAAQpQgAIUoAAFWMDiNUABClCAAhSgAAUoQAEKUIACFKAABSgQaAEWsAI9PUyOAhSgAAUoQAEKUIACFKAABShAAQpQgAUsXgMUoAAFKEABClCAAhSgAAUoQAEKUIACgRZgASvQ08PkKEABClCAAhSgAAUoQAEKUIACFKAABVjA4jVAAQpQgAIUoAAFKEABClCAAhSgAAUoEGgBFrACPT1MjgIUoAAFKEABClCAAhSgAAUoQAEKUIAFLF4DFKAABShAAQpQgAIUoAAFKEABClCAAoEWYAEr0NPD5ChAAQpQgAIUoAAFKEABClCAAhSgAAVYwOI1QAEKUIACFKAABShAAQpQgAIUoAAFKBBoARawAj09TI4CFKAABShAAQpQgAIUoAAFKEABClCABSxeAxSgAAUoQAEKUIACFKAABShAAQpQgAKBFmABK9DTw+QoQAEKUIACFKAABShAAQpQgAIUoAAFWMDiNUABClCAAhSgAAUoQAEKUIACFKAABSgQaAEWsAI9PUyOAhSgAAUoQAEKUIACFKAABShAAQpQgAUsXgMUoAAFKEABClCAAhSgAAUoQAEKUIACgRZgASvQ08PkKEABClCAAhSgAAUoQAEKUIACFKAABVjA4jVAAQpQgAIUoAAFKEABClCAAhSgAAUoEGgBFrACPT1MjgIUoAAFKEABClCAAhSgAAUoQAEKUIAFLF4DFKAABShAAQpQgAIUoAAFKEABClCAAoEWYAEr0NPD5ChAAQpQgAIUoAAFKEABClCAAhSgAAVYwOI1QAEKUIACFKAABShAAQpQgAIUoAAFKBBoARawAj09TI4CFKAABShAAQpQgAIUoAAFKEABClCABSxeAxSgAAUoQAEKUIACFKAABShAAQpQgAKBFmABK9DTw+QoQAEKUIACFKAABShAAQpQgAIUoAAFWMDiNUABClCAAhSgAAUoQAEKUIACFKAABSgQaAEWsAI9PUyOAhSgAAUoQAEKUIACFKAABShAAQpQgAUsXgMUoAAFKEABClCAAhSgAAUoQAEKUIACgRZgASvQ08PkKEABClCAAhSgAAUoQAEKUIACFKAABVjA4jVAAQpQgAIUoAAFKEABClCAAhSgAAUoEGgBFrACPT1MjgIlLKBLQ1jfGampjlTpNmNlnEglEmkxYal6fdSq//xzthJiSQJqMoBRKx0agkkYu9YZks2ZzJZQ9RAarRRk1lC28XgeBShAAQpQgAIUoAAFKEABChRegAWsws8BM6BAyQnU6aL6wf70RJHwfmrSYwGZLIJ6QKKAmaDu74oIBCEADiACqAPA/Z7k/r7jEJE3/pwtkqqmARgACkgKUAWQ2vH/ZMfvGSiSIrJejdmsQL8AL6lIrwV50djSE7ErXthS80IfJO7G4UEBClCAAhSgAAUoQAEKUIACBRZgAavAE8DuKVAUAqvjzpg996xJZbbWZFRqVFFjiVUnwN4Q2cdA9xWDPVRkItz/B60oinHtPskMVF8RsZ5X1RdUzXqI9Q/Lwt8yij5LdItlYcuQrVuwIb0Fky8bLIExcwgUoAAFKEABClCAAhSgAAUCKcACViCnhUlRoIACuiDiDIQPhMkcCOghsOSdanSiiIwBUPvarzGAVANart9DBlWxWYDNgGwSy2xSYB1Un4FYf9aMPpdqTK2GsKhVwCuZXVOAAhSgAAUoQAEKUIACJSRQrm8+S2gKORQK5CigKuhZVF1d5VSntw7WZELWuBBwmAIzVNEM0UOB3B/dyzGLcjn9zxA8aTKmEyF7pZ1Kv2hXV2zZNpTYimj/Fj6iWC6XAcdJAQpQgAIUoAAFKEABCoxWgAWs0QqyPQWKQWDt/GhFZfgIFZkKC1OQwd4qmCCKCSpoAGAVwzBKIMcBAOtUsU4svAhgtQCrLYSfGozOfqEExschUIACFKAABShAAQpQgAIU8EWABSxfWBmUAgUSWB13MCFaUZ2xq9IRmYa0fkDVfAgi7yhQRuw2e4F/qOrDItYDIRP63202tqE+MQS0JSHiLkTPgwIUoAAFKEABClCAAhSgQNkKsIBVtlPPgZeEgEIqXmnfyzg6De7jf5YcDOAgAPu/tlZVSQyz7AahGALwPCx5BkafgZonYTlPJp+XZzF9truTIg8KUIACFKAABShAAQpQgAJlJcACVllNNwdb9ALxuIUr32c5A38+BDBnQuWTgO5T9OPiALIU0FdEca8FuWuwYVwnsEa5jlaWdDyNAhSgAAUoQAEKUIACFChqARawinr6mHw5CFT23jTJaGaaWjoNsI4AdAaASVy3qhxmf9djVKBbgFUAVsCWJ0XsJxNj1v0fC1rlfV1w9BSgAAUoQAEKUIACFChVARawSnVmOa7iFlg7vzJcG/m0ZHAeoFMAjQBWGFB+zRb3zPqVvftYYQKqL0hI/svKyI8GG1rW+tUZ41KAAhSgAAUoQAEKUIACFMi3AN8M51uc/VHg7QIKqezv2NOIOVRVZojiWBX8GwCbWBQYoUAKiidgyVIYfVwUqxONU/4GOTY9wnhsRgEKUIACFKAABShAAQpQoKACLGAVlJ+dl7XA6rjjTGj6mMCco5DDAYwFUFXWJhy8DwIypKobLcEzEP1xwq78Eeou6PehI4akAAUoQAEKUIACFKAABSjgmwALWL7RMjAF3iag8ZDT13QgjDkUIesjUD0RQD2dKJBnga0Q/FZVfwYr9ERqrPMc5PzNec6B3VGAAhSgAAUoQAEKUIACFMhJgAWsnLh4MgVGINDz7dqwXXOWpThTofsCmMjHA0fgyCZeCxgFegT4B4D7rZR+f2hC2/Ned8J4FKAABShAAQpQgAIUoAAFvBBgAcsLRcagwJsFNB6qeKVxkkb0HapyNgRnAAgRiQIBF0hCdSks+S9JS2eiKbMWMjcR8JyZHgUoQAEKUIACFKAABShQJgIsYJXJRHOYeRDQOyqcDVuPh9FPAjINwP680yoP7uzCawEDYC2gaxS4N7Vt/N2YfMag150wHgUoQAEKUIACFKAABShAgVwEWMDKRYvnUuDtAuu+Ux2xKyepLadCdQ6AyUSiQEkJCBKiukjDuCWZdl5B/exNEGhJjZGDoQAFKEABClCAAhSgAAUCL8ACVuCniAkGUaD25cWNQ076TBF8WFSnq6ApiHkyJwp4KDAoghWq8pAY/XGiqfWvHsZmKApQgAIUoAAFKEABClCAArsVYAGLFwgFshV4dkGkclK4Mb0tc4WIXAwov36yszMQZACYHf8JDCAGUPcuHvdxtR2/C7AOghSM+/gaAEsyMPrSW7pQpNTW9TCy4w4gsWU8Muq8+RyF1Am0DoKwQpoEiADapNAwRNx7h2y36Y5fr/7ZgsDa8Tt2/J3HcALuPKn8HCJXJ7cOPYvJl/ERw+HM+O8UoAAFKEABClCAAhSgwKgE+AZ8VHxsXA4CVT0L90hZ9kki5mSoHgtIdTmMO7cx6lYA3QDWQ2U9gH4V9ItIt8Bs0gw2iW1vzCC9STLi3smzxRbdMmiHtqJuaAiShwLI0ngIh0+srsRQnbEjER0ylSacrrMhNW7Ry8pgjLF1LIzUiY1xaiSqggZRHQ9gAoCxuZmUwdmKhFryuEB/KenMTxLjLn22DEbNIVKAAhSgAAUoQAEKUIACBRBgAasA6OyySAReXlzlOMkrAbRAWLTaMWuv3iH1NwCdotolGTw5JJnVGHdp96s3Nb12X1ORTPGwaerrg1LUbbxpbEIxVTPmcBUcDsjhED0MirfcATZszFI9QSQD1buslH5taELb86U6TI6LAhSgAAUoQAEKUIACFCiMAAtYhXFnr0EV6PlubcROHAM1H1XgVADRoKbqU14bXt2BTl4UmBdV5QW18Q9NWy+E0ol/DG2xX8GBcxM+9V18YTVuVfVOnqDW4N4Zwd6A7iWw9lboZED3FJXJCjS89shi8Y1vZBlvAeQ3MObeyrD9y41j5wyMLAxbUYACFKAABShAAQpQgAIU+KcAC1i8GijgCmjcquxv/HhG8BUoDgRQUSYwm6F4WIGHofpoKpX4OyJOEtHaJFCdgpzhrl3FIxcBjVtANIzeQWeM0xAeygxOslSONtCZgBwDYFIu4Yr43JQoBmDLNxIbehZj3/hQEY+FqVOAAhSgAAUoQAEKUIACBRZgAavAE8DuCyigKpHuhfsZC8eJWBdBMK1E75RRga5TyAvY8Uv/DOhTErKeTNS1PFfAGSi/rlWl8sWb9zBV5jAVbYbBFBHspcCeEEyCIlyiKM9D9bua0ftS4+c+WaJj5LAoQAEKUIACFKAABShAAR8FWMDyEZehgytQ+/LixmQk9R+qeipE9nhtB7rgJpxrZoIkFJ2A/EqRedC2rFeGtiQ3Y8/qzZDZqVzD8XyfBNy7tTbUjak0dk1a7YmW4L0KPR7A+wGEfOq1UGGNKvpEZJmVMl/kOlmFmgb2SwEKUIACFKAABShAgeIUYAGrOOeNWY9EQBeHnQFzMDRzugBzFGgcSZgAthncsWaV4EWjusoyWJoYSj6KyZf1BzBXppSNgC4NVfQ+/V5jyTEwOBoWJsO9Swuoy6Z5EZwzJIo7MiJ3paM9f4TE00WQM1OkAAUoQAEKUIACFKAABQoowAJWAfHZdf4EnL6bD4GmrxDBTAXcO66K/UgBslQs84Cx9DF7W6Z7aMKk9ZAzBot9YMz/bQK6OFzZt3VcOuSMtzMyzaieDMHMEilm9avqSkC+kmpsXc65pwAFKEABClCAAhSgAAUosCsBFrB4bZSugC5xIr29+8IyF6tiNgSVRTlYgYFiI4D1AJ6C0Z8nLb0PDXM3FeV4mPToBXRxVaQ/fQxgPq6wjhLV8So77igs1u/pGYj8UCUzP/Vy/2pMiSdHj8QIFKAABShAAQpQgAIUoEApCRTrm51SmgOOxQeByPoF+2vIulyADyswwYcu8hBSNkP0dwo8oIonIun037betKEH8bjJQ+fsolgENiyqD6ewn9iZgwE5EcAJUESLJf235qn9UHnE2LguPbb3EQiv9eKcR2ZNAQpQgAIUoAAFKEAB7wVYwPLelBELJaBL7Krel8YZOzTXqHwegF2oVEbWryZVZYNlYY2odeeQlfgp6udtGFkstipbgaXxkHNI/ckSss5XoBkq9RBUFJmHe9fhnVZarxoaf+hayLFcI6vIJpDpUoACFKAABShAAQpQwGsBFrC8FmW8gghU9Vw/MW2H2wB8Yvsb3/0KksTIOlUALyjkVwIslZC9MjFG/s6dAkeGyVZvFajs65hsLDNNVd4NxYcATC0mIxHpheKnKmZhMtr2p2LKnblSgAIUoAAFKEABClCAAt4KsIDlrSej5Vtg3Xeqw+GqTwnMIkBC+e5+hP1lAAxC5FGjuD4dPeQh3mEyQkk2y0kgPLDgcMnIFwA5GaKVRfM1o0hsX8Pu28lo+NvARe7Xjlv45UEBClCAAhSgAAUoQAEKlJEAC1hlNNklNdTujpqwbU4XsS6A6lHF8LigezeJAg9aGX1YHVmWuL7nb1zPqqSuyuIZzNbFE51t6Zli6fsU+AAg+wJaDD8PnhHobdXQW/q5iUHxXG/MlAIUoAAFKEABClCAAh4IFMMbFg+GyRClJFDT1z4lKbgTiiMAWEEfmyjWbc/zqsSAuR0H9Ke4MHXQZ6yM8lMVPLfQiTTgg2rsKyEaK4LRK0Q2ierpiYbWB4sgX6ZIAQpQgAIUoAAFKEABCnggwAKWB4gMkQcBjVvhnqaploXZKno2gKo89DrSLjIQrBGDZRD8IhEd9zDkDPexQR4UCK7A0ngofFjTNBGcDOhxgHtnowS4QKxpQH5uGekYamz6Pb/GgntpMTMKUIACFKAABShAAQp4IcAClheKjOG7gNPX/jUArYDUB/hRJ/cZrP8F9OsJK70cYzdu4t1Wvl8a7MBrAfeurN7/rAmbyv3Etq6C4CNed+FpPNWtEOueyi1y2ca95wx4GpvBKEABClCAAhSgAAUoQIHACLCAFZipYCL/IvDsgogTtU8GcAWg7uOCQTzM9p0P/6yC34dU7hp8quePODaeDmKizIkCIxGI9LQfpDbOgZHjAZ0CQcVI4vjeRvB3Feuqiq3mfzbv2drne3/sgAIUoAAFKEABClCAAhTIqwALWHnlZmfZCjh97VNUtENUpgOozrZdns/rhOo1IU0v39a4cT3vtsqzPrvLn4Cq1Kxb2JgOW1ONyOcAPSF/nefUUwrAShuYN9jQ+lhOLXkyBShAAQpQgAIUoAAFKBBoARawAj09ZZecVHd3jE+H8HGoXqlAY+AE3AXZBY8J5OZEtOchFq0CN0NMKA8C4YEF08RYlwJ4H4DJAdwFNAPI9ZZldQzVX/L3PJCwCwpQgAIUoAAFKEABClDAZwEWsHwGZvjsBSJ9C49XyFUAZgAI2LWp/QBugIR+mty4/jnsGx/KfmQ8kwIlKBCPW5E59fvDsj+kwFwI9g/YKN3He5+zINcORXu+y2JzwGaH6VCAAhSgAAUoQAEKUCBHgYAVCXLMnqeXhEBl/+K9DNJfVNU5gRqQIAmFe/fGD5Kpwesw4fNbA5Ufk6FAUASeXRAJR+2zBToPin0gqAxKagAUKj8Xg88nmpqe526FAZoZpkIBClCAAhSgAAUoQIEcBFjAygGLp3ossDruhCc0nSMwnwHkHQAsj3sYTbjHoLrIFut3g9GWFyHQ0QRjWwqUhcA/FtVHavW9Cr0AipMC9TWt+jLEujkZDX0LMttdK4sHBShAAQpQgAIUoAAFKFBEAixgFdFklUyqGrequyc1pULJGyF6OjQohSsZAsxz253jyYa2e0vGmwOhQAEEwr3tRwmwCMA7IKgqQAq76FLXAHp6Mtr/Fz5WGJxZYSYUoAAFKEABClCAAhQYToAFrOGE+O/eCmjcCg80XSiqXwCwn7fBRxFN5H6ouSMpzkOIzt44ikhsSgEKvC6gS+xIf88HFOZsQD4OIBwEHAHWKeTWJDLXomHupiDkxBwoQAEKUIACFKAABShAgd0LsIDFKyRvAtVbbhifToZ+qIpj89bp7jvKAFijigtTja3LA5IT06BASQpEem44WCX0AwgOBxAKxiD1acu2Txmqu+R5iPAx4WBMCrOgAAUoQAEKUIACFKDATgVYwOKF4b+ALoiE++VTAvkSgIP873CYHgQpUfxejd6eRNUv0HT+5oLnxAQoUA4C7h1ZA93Hq+rrd2TZARh2HwTXJS3rZoydMxCAfJgCBShAAQpQgAIUoAAFKLATARaweFn4K9DdUePY+B6gpwAo/JtV1VfEss9P1NsPcSFnf6ee0SmwS4Gl8ZAzNXoQVO6CyLQASBkFHkvZ1sksYgVgNpgCBShAAQpQgAIUoAAFWMDiNZA3gdVxJzKxyb3T4hoAh+Wt3513ZAD8SSDfT1jJ76J+3oYC58PuKUABV2Dt/MpwZeR0S8wFCnkvgEJ/qNKnkC+nok23Q85wHzHmQQEKUIACFKAABShAAQoERKDQbxYCwsA0PBXQpaFw75++I5Z1EVDw3cfSAv1yIuz8F8bM7vV0nAxGAQp4I9Dz3VpHhj4gojcqsKc3QUcYRZFQC4+lUpEzMf7C9SOMwmYUoAAFKEABClCAAhSggMcCLGB5DFru4cK9C460YH1bBTMLbDEgFu4V2NcM1V/y9wLnwu4pQIEsBKp6Fu6RsfA5hZwGYK8smvh5ypOWms8NNfQvg8TTfnbE2BSgAAUoQAEKUIACFKDA8AIsYA1vxDOyEVgaD4UPb5wtiq8AMh7QAl1b7k5i5lcQfDFZr3+FzE1kkz7PoQAFAiKgKpHeGw+CZX9WIRcWOKstgN6cXNd3BabEkwXOhd1TgAIUoAAFKEABClCgrAUKVGQoa/OSG3x1d8eEZEgvF9VLAAkVaIDuOlerVXFdqqH3B7xjokCzwG4p4KFARc+C96llX62iR0HheBg6h1CiUL1PTOiziabZz0HcIjkPClCAAhSgAAUoQAEKUCDfAixg5Vu8xPoL9Xe81zJ6IwTuTmKFup42CszVtpEfbmtqe7nEiDkcCpS3wKb2BidhPgjb+ha0oI8VPg/o55MNbfeW94Rw9BSgAAUoQAEKUIACFCiMQKEKDoUZLXv1TkDnVzqbnQ8ihTsA1HsXOKdIWwX6KMLSmhjT+tecWvJkClCgqATGbLwtOpQavB4ipwCoK1DyCkuuTKZwPca1bClQDuyWAhSgAAUoQAEKUIACZSnAAlZZTvsoB923YExY7W+LpRdAUaBHBvVpwPpaclvifky+bHCUI2JzClCgGASWxkMVhza8Vy3rKwp9f4FSTgH6G8lYn0mMa3muQDmwWwpQgAIUoAAFKEABCpSdAAtYZTfloxiwqlSsb9/HhOWnAA4fRaTRNN2ikNtT0cwXuED7aBjZlgJFLOAu9N7X3qoiXyvYHaCCl9S2Pp4aM2c5BFwXq4gvJ6ZOAQpQgAIUoAAFKFAcAixgFcc8BSJLp2/haVB8EyIHFiChjIj8Roy5dqih7/dcpL0AM8AuKRAkAYWEN3QcLhkzD5acWZBF3hXrROQ/E9GqmyCzhoLEw1woQAEKUIACFKAABShQagIsYJXajPoxHo2HnA2NX4LB1X6EzyJmBiKXJ+t75rNwlYUWT6FAmQk4fR0fh+odENQUYOgqgpsT9b2tkLi7GyoPClCAAhSgAAUoQAEKUMAHARawfEAtqZBbbhgfSYSvVtWzIYjkeWwGIverwdWpxpYVee6b3VGAAkUkENmweH9kUl9S4BwA4fymLqpqHhLRzyQb5q7Jb9/sjQIUoAAFKEABClCAAuUhwAJWeczziEZZMXDTPkYzP4fiMAB5vlZkSA3mphqbvgc5IzmiAbARBShQXgIaD4U2jj9G0pm7RTA+/4OXl5LGHImmtpfz3zd7pAAFKEABClCAAhSgQGkL5LkoUdqYJTM6XWKHNva9z8pkFgCYkudxZQD8WhVXpRpbl+e5b3ZHAQqUgEBkY8cBmtI4gFMK8FjhoKq5ONVw2N2QY9MlwMkhUIACFKAABShAAQpQIBACLGAFYhqClUR4oP0sMbgx77t7qW4VyOUJI7djXMuWYKkwGwpQoKgEdInj9K8/BSJ3FWCB922AfCfZ0OIW0XhQgAIUoAAFKEABClCAAh4IsIDlAWLJhOhbMCYi1mwFvp7XN3yCNBQrLEsvH6pvW1YynhwIBShQcIHKvo7JGcECqH4038mI4JZECJdjTGtfvvtmfxSgAAUoQAEKUIACFCg1ARawSm1GRzoeXWI7/d23AjgbgD3SMCNoZ0T12kRKr8XEuT0jaM8mFKAABXYv0LdgTDhtnSIhtAMYk0euDFS7Qpr+6Lamea/ksV92RQEKUIACFKAABShAgZITYAGr5KY09wFVDLTvrQaLFTg+99ajaSHPQtOfTzZe+vPRRGFbClCAAtkIhPo63m1BOwAcnueNKdaoZX86VX/Jqmzy5DkUoAAFKEABClCAAhSgwL8KsIBV5ldFxfpF+5mQuWv7wulH55HCAPiJhHFForblWYhoHvtmVxSgQBkLVHd3TEiF9DIAl+b5Uen/E5hLE9G595cxP4dOAQpQgAIUoAAFKECBEQuwgDViuiJvqHEr3NvQDEvuF2BcHkfjLs4+PxmdcjV36MqjOruiAAX+KaAq4f6FF1hqXaMijYDm62fhBqg5P9k49yecDgpQgAIUoAAFKEABClAgN4F8vWjPLSue7btApK/jBBW9GYq9fe/s9Q4ET4iFLyTqxj0MOSOTt37ZEQUoQIGdCIR72pstG9er4pg8Ag0I8PVEtPcGSNy9G5UHBShAAQpQgAIUoAAFKJCFAAtYWSCV1Ck7Fmvv+Rig9+RxXBkFVqZM+BQ0zeZCxnmEZ1cUoMAwAnq6He4/5iYROReKcJ68MkZxRbqh9zssYuVJnN1QgAIUoAAFKEABChS9AAtYRT+FOQzAfWymb9ElInoNgLE5tBzNqVsBXJfclvwWJl82OJpAbEsBClDAF4G18ysrqiKfNtBvAmjwpY9/DZpSYEEqI3GMa3EfreZBAQpQgAIUoAAFKEABCuxGgAWscrk8VMXpvykOmK/mbciKbVYIHxka2/rbvPXJjihAAQqMUKCyr2NyRvRhKA4YYYiRNLsjGR13IR+rHgkd21CAAhSgAAUoQAEKlJMAC1jlMNsaDzkDTXHojp23KvMxZAEeMUbnpZraOvPRH/ugAAUo4IVApKf9ILXg3qX6MQC2FzGHieHuwvq9cEa+vHVcy7o89McuKEABClCAAhSgAAUoUJQCLGAV5bTlkLQuDof7kx0iMguKUA4tR3qqQvUHyfTQxZjweffxQR4UoAAFikvg2QURp8H+D6hekb/E5f5kBmfyccL8ibMnClCAAhSgAAUoQIHiEmABq7jmK7dsdUEkPCDzRWV2nu4k2Abg2mRqzH9iwtksXuU2WzybAhQIkoDGrfDGxvMkgysB7Ol/aqKA/sRGYt5gw2fX+t8fe6AABShAAQpQgAIUoEBxCbCAVVzzlX22ekeF07/1LkBPAcT3O69E0JNR+6x01HoYMjuVfaI8kwIUoEBwBUJ9He+2RP8Hmp/F3VXld47BmXycMLjccRgRAAAgAElEQVTXBDOjAAUoQAEKUIACFCiMAAtYhXH3t1edXxkecK4TxcUA8jHHf7EsmTM0tmUZBO56LjwoQAEKlIxA9ZYbxqeTof9WyNFQ9X1dLIU8FJL0+YPRS18oGUQOhAIUoAAFKEABClCAAqMUyEdxY5QpsnlOAmvnVzrV4e8CchoUTk5tR3CyAA+KrbOHxrY9P4LmbEIBClCgOAQ23zTOSWWuheKsfCQsIn+wFP8+2NDCxwnzAc4+KEABClCAAhSgAAUCL8ACVuCnKIcEuztqIjbmK/TCHFqN7FRBEqq/TSb1HEyc2zOyIGxFAQpQoIgENG45A41XQzEvHzu6undihU3y7G1N814pIiWmSgEKUIACFKAABShAAV8EWMDyhbUAQd07r6qcmwD9JCB+33mVhsi1yfrEVZDLBgswWnZJAQpQoDACa+dXhiucfxcbN+VjZ1f3TixJyblD4+f8rTADZq8UoAAFKEABClCAAhQIhgALWMGYh9Fl0d1R49hYCOi5owuUVeutgH47Ge27BhI3WbXgSRSgAAVKTKCid8Fxall3q6IpD0P7ddJUno6m8zfnoS92QQEKUIACFKAABShAgUAKsIAVyGnJIanOxeHIfqmFqjorD3deDaji0lRj6/dzyJCnUoACFCg9AY1boQ3j/s025g4F9vV3gOJujvFLG5nZgw1zX/S3L0anAAUoQAEKUIACFKBAMAVYwArmvGSX1bMLIpEG6zpVtGTXYFRnbbTEnDwUnfuHUUVhYwpQgAIlJFC1dfHEdCL1Wyje6fuwRH6W/FvoDEyfnfK9L3ZAAQpQgAIUoAAFKECBgAmwgBWwCck6HVVxetuvhMgXIajIut2ITpRnLMlcyOLViPDYiAIUKHEBp3/hYQLrRlU91uehKhQ/jDjhSzePmd3rc18MTwEKUIACFKAABShAgUAJsIAVqOnIPhmnt/1qCK4A4PccrguZcPO2ptncBSv76eGZFKBAuQm8HK+KVDTer4qZfg9dFDclGsa1Qc7I+N0X41OAAhSgAAUoQAEKUCAoAn4XP4IyzpLKI9zTcaFYOh9Aja8DEzwqGeu8RNOcZ3zth8EpQAEKlIBAZe9NkzKWaYfqR30ejruBxjeS0XFXQ85I+twXw1OAAhSgAAUoQAEKUCAQAixgBWIask/C6e04FaJ3AajMvlXuZyqwIhWJnIyaC9fn3potKEABCpSpwPN3VIRrtrSLJef7LOA+TvitZEPLFZAdi7zzoAAFKEABClCAAhSgQEkLsIBVRNMb6es4QaFLANT6nPavk6GKT6Hugn6f+2F4ClCAAqUn8I9F9U6NuRaCc6GwfBzgoCouSTW2fs/HPhiaAhSgAAUoQAEKUIACgRBgASsQ0zB8EpXbOiabbfq4CvYY/uyRn6HAgynH/jRqL+keeRS2pAAFKFDmAqvjjjO+8SoIvuDzWoWDqnJxqrHlzjIX5/ApQAEKUIACFKAABUpcgAWsIphg55UFh6hjLRVgnI/puo+g/CS5rvdTmBLnmio+QjM0BShQJgI6v9LpD3cAcq7PRayXjJhPpqNz/1AmshwmBShAAQpQgAIUoEAZCrCAFfRJ7+6oidjmVwp5j6+pKu5zUua8LRPn9vjaD4NTgAIUKCeB5+MVTl3jV6H4kq9FLMHfoaETkw0XryknXo6VAhSgAAUoQAEKUKB8BFjACvJc9y+uc0zqLghO8jFNA+jPkg1tp/nYB0NTgAIUKF+B5++ocMZu7YDBLF+LWJDVNvChwYaWteWLzZFTgAIUoAAFKEABCpSqAAtYQZ1ZvaMiMrDtOlWd42uKoj8LpzIXbx3/Ge426Cs0g1OAAmUtsHZ+pVMd/iogX/BvYXd3N0LzYLKh7fiytubgKUABClCAAhSgAAVKUoAFrCBOqy6xwxt7z5eMudnHT+uNAktTDa3HBZGAOVGAAhQoOQFd4kT6uzsUcj6g/v38Ffw8ubH6TOw7a6jkDDkgClCAAhSgAAUoQIGyFfDvBXTZko5y4Bq3wn1NZwv0JggqRhltl80V+G2oUmYNVvFRE7+MGZcCFKDAvwi8vLgq7KS+KYK5vukIkjC4OtnY+nXf+mBgClCAAhSgAAUoQAEK5FmABaw8gw/XXbh7wTTY1i8FGD/cuSP7d1EInkjW9xwJiadHFoOtKEABClBgxAK6xHH61/8XIJ8ccYzhGxqD0AnphosfHP5UnkEBClCAAhSgAAUoQIHgC7CAFaA5qli/aD8TyvwckEP9S0v/KLZ+KjF27v/51wcjU4ACFKDAbgXWzo86lc7tEJzio9QWY1knpevn/M7HPhiaAhSgAAUoQAEKUIACeRFgASsvzFl0MnDHWCez5dcQOTKLs0d4irwSMmb6tqa2l0cYgM0oQAEKUMArAfdOrL7uJb4WsQT/l6zvPQgSN16lzTgUoAAFKEABClCAAhQohAALWIVQf3ufS+OhyNTG76igFYqQTyn9BZI5PRm99Gmf4jMsBShAAQrkKBDpnn+AhpwfQ9GcY9OsTxfoHxJJPQ0T5/Zk3YgnUoACFKAABShAAQpQIGACLGAFYEJCfR2fs2C+CYg/xStFwjLmA0NNbY9A3G3WeVCAAhSgQGAENrU3OCksBXCYXzkp9PpUdPznIWdk/OqDcSlAAQpQgAIUoAAFKOCnAAtYfupmETvSvfBDassPAdRlcXrOp4iiG5Y5LxGde3/OjdmAAhSgAAXyIhDuvelIkcx/A5jsU4cpiJ6bjLbd7VN8hqUABShAAQpQgAIUoICvAixg+cq7++Bj1t4WHaoaegzAQX6loQazU429t3H9E7+EGZcCFKCABwIKcQZunAJjPQ6Rag8i7izEoIh1eiI6hx9o+ATMsBSgAAUoQAEKUIAC/gmwgOWf7e4jb7wt6qQH7wfkXb6koBiC6LeSDW1f8yU+g1KAAhSggOcCkf72D6vKjwCt9Ty4G1BkVShiTtpWzc08fPFlUApQgAIUoAAFKEAB3wRYwPKNdjeBd3zSvvAbUPkCAMvzFARGM1iQahz3Oa534rkuA1KAAhTwT0DjoUhv0/lq6c3+dCKq0IdSDa0f9Cc+o1KAAhSgAAUoQAEKUMAfARaw/HHddVRVifQv+oDC/AIQx4fuVRW/Sxk5GeNatvgQnyEpQAEKUMBnAae345sQ/SyAsB9dqcENqcYpn4ccm/YjPmNSgAIUoAAFKEABClDAawEWsLwWHSZeuLf9KBE8ACDqR9cCeSgRSnwCdZf1+xGfMSlAAQpQIA8C/YvrHE3dBuDjvvQm6LfEOnWofs7vfInPoBSgAAUoQAEKUIACFPBYgAUsj0F3G67n27Vhq/peAT7gU7cvQewTktFLnvYpPsNSgAIUoEC+BHRxONKXWqOCA3zqcktSwnsiOnujT/EZlgIUoAAFKEABClCAAp4JsIDlGeUwgdx1Tfobv6NAGwDb625F0SMqnxhqalnqdWzGowAFKECBwghUvNy+t4nIfYAe6kcGqvpQKpziXbt+4DImBShAAQpQgAIUoICnAixgecq562BO/8JPQeUHvnSnSED0rGRD2z2+xGdQClCAAhQomEBooP0Yy8D9cML7TT8AVeCiVEOr+7giDwpQgAIUoAAFKEABCgRWgAWsPExNpPvmA9VK3wfBQf50J9cmN1X9B/adNeRPfEalAAUoQIFCCoR7288RQQeAah/yGLRsPWlobNvDPsRmSApQgAIUoAAFKEABCngiwAKWJ4y7CaJxKzzQ+FtRzPSpq3uT0d4zIXHuJOUTMMNSgAIUKLiA+7Okv+FagczzKZd/JI2+G01tL/sUn2EpQAEKUIACFKAABSgwKgEWsEbFN0xjXRx2+tNfAvQqn7rpsiEfG2xoWetTfIalAAUoQIGgCHR31IRt/FSgx3mfkqjA3JZoaLvI+9iMSAEKUIACFKAABShAgdELsIA1esNdRghvbD9K0ngAQNTzbgQJzVjvSTXNWQlAPY/PgBSgAAUoEDyBvgVjHLGWQtHseXIiKRhzXrKx7S7PYzMgBShAAQpQgAIUoAAFRinAAtYoAXfVvG7DovrBjD4A6Lu870I2Q8zFyWjb3d7HZkQKUIACFAiyQKSv44MK/SmAKu/z1K0Q865k9NKnvY/NiBSgAAUoQAEKUIACFBi5AAtYI7fbdUtdGgr3r75FgFl+hBfBwkT9uM9Bzkj6EZ8xKUABClAgwAKq4vTffCqQ+W9fslTcl/xT78dwLNdW9MWXQSlAAQpQgAIUoAAFRiTAAtaI2HbfKNK/6ERV494dNcbz8Kp/HKNVx/U2nb/Z89gMSAEKUIACRSMQ6V24UEXmALA8TloRkrOSdS0/8Dguw1GAAhSgAAUoQAEKUGDEAixgjZhu5w3r+xfXbdXko4Ac4nFoAPKMZcuHh8bO+Zv3sRmRAhSgAAWKSaB6S8eE1BB+D9EDfcg7ZRn94FBT2zIfYjMkBShAAQpQgAIUoAAFchZgAStnst00WB13nImNt0Fxlpdhd8QSpGF0FhfX9VyWASlAAQoUrUBl702TMlbmT1DUez8IvT+5LXU6Jl826H1sRqQABShAAQpQgAIUoEBuAixg5ea127OdvoWnAXKnDwvrKgTfTNaH45DZKQ9TZigKUIACFChygXBv+zkCvQkilZ4ORZCB0a8kG9u+5WlcBqMABShAAQpQgAIUoMAIBFjAGgHaTps8uyDiRO0/AjrVq5D/jKO/SS7s+xDiceN9bEakAAUoQIGiFlhyuu0c976fQXGSD+MwUJ2SbGz7iw+xGZICFKAABShAAQpQgAJZC7CAlTXVbk7sXBx29k3dCuAcL8K9NYb2q1onpBpbVngfmxEpQAEK5Flg7fxKbNqUwZQ4d1H1kn7g+rFOJvwgBNO9DOvGEuDhhJU6DfXzNngdm/EoQAEKUIACFKAABSiQrQALWNlK7eY8Z6D9FCjugSLsQbi3hsjgE8lxrUs8j8uAFKAABbIRcB9g3nHo287+2hs/P6q7xzal7HDUCpmJYmScMVaTWmYiDCbCQiMU4wTYQ4HxwI7vk39Mbup9H/aND2WTAs/JTiC8sWOGpPVhADXZtcj6LBXJnJSIXvpA1i14IgUoQAEKUIACFKAABTwWYAFrtKA6vzLS7zyowHtGG+pt7Y0Ct6YaWi/2OC7DUYAC5SrQv7iuJpFwMhGtzKhdq4oa27YqNGWq1dZahVRbIhVqTA0sa4yqVlpAjUJqoVorO/6MGsirf4fsKJS4v6zcSeVZIzgvHW15JPe2bLFTAY1bTl/DlyHyde+FdCvUmpFsbPmz97EZkQIUoAAFKEABClCAAsMLsIA1vNFuz3D62q8GcMWrT1l4eqy1Ie8ZbGhZ62lUBqMABUpHQFUq+xftmXHsWltT9UhYexnLTFCDMSLSBGAvFTQIUKvAHhBYePWOKrfg9PovgcLa8W+v/r/X/91/J9VNFuTUocbW3/rfWZn0sOOR9vQyQN/t/Yj1/mS076OQeNr72IxIAQpQgAIUoAAFKECB3Qt4XXQpK+/QQPsxltGlgIzg7oPdUCm2iMEnEuNa+bhGWV1RHGzJC8TjVs3F4xtTlVKnGVOpVsaxU1qttlWtgggUEbWk2jIaVUWlQGtVpQGCMYBUAVoH7ChI1Si0CpD6ojcTJET1i4lo30IIN6rwYj4r+xfvldHU7wDs40W8N2IoEhD992RD272exmUwClCAAhSgAAUoQAEKZCHAAlYWSDs95eXFVY6T+jHE812fDFS+mmxo+Qbc+yJ4UIACpSPwvbMbwntN/KE1dfJhENiqagMSAhBy/45//r10xpzNSBRDgNybbGg6B3JGJpsmPGd3H4KoRAYWXaKqHZ47KdYlG1sneh6XASlAAQpQgAIUoAAFKDCMAAtYI7xEnL6OTwB61443nt4enSGjp2xranvZ27CMRgEKFFogdOsFMwXmFxhfWyNH7AVURwqdUrD6F/wo7Mi8rTUt64KVWBFmo0vsyEDvz1TNST5kf3syOu4iFht9kGVIClCAAhSgAAUoQIFdCrCANYKLo2KgfW+j6IKiYQTNd91ENGmHrGMHx7Q86mlcBqMABQIhEF486wJYuHVHMrUVkGl7A41ebxgXiKGONAkD4E9I6VnJCW1/GmkQtntVoPblxY2JyI5HCQ/x2GSTsfSUdH3bMo/jMhwFKEABClCAAhSgAAVYwPLsGtC4E+lvWqTQ8z2L6QYSpJHBN5JNrVd6GpfBKECBwAiEbz3vbkA/+UZCYRs77sTaM+r9NhCBGfUIElE8Zyw9Nx1t+98RtGaTNwlU9C26yEBvBtTTD6xEcV+isfVkYlNgOIFYLFaVSqVqKioqqlW1SlWrM5lMpW3be6iqu45fhapGX48jIu7yCRtVddCyrHXGmG7btofcv4vItnQ6vXnz5s2bnnvuucRwffPfKUABClCAAhQoLQFPX9CWFs3OR1PZ235URuAurv7Giy1vxq2PR8LOyZvHzO71Jh6jUIACgRJYfFFV2Ep1A6h+S14hG5gchRw6CQjbgUq5kMkIsE6gXxmKtt6OV9/Q8hiJgC5xnL71P4TIqSNpvps2qoq2VGOr9+tseZwow+VXYObMmaFt27YdkclkjgZwOIB9AYwF4G5C4f4aA8DJMauEiGxV1Y0A+gH0icjfVXWViCzv7Ox8AuC6oTma8nQKUIACFKBA0QmwgJXLlOkSJzLQ/WtVzMyl2fDnalJC+Eiiru3Xw5/LMyhAgWIUCN9x4RFIp1ftMveJYyHNewMRr5fVK0atN3JOiSWfT4ytWgyZNVTUIylk8p2Lw5F9Uy8oMMHLNARYbxtt5pqNXqoWXSw56qijatPp9FhVPVpETgPw4X8p1Ps/rK0i8lNVdXfIXDk4ONi/Zs2aLf53W349zJgxw/0+EvZr5JZl6fLly1/0Kz7jUqCUBLz+enzt6+8lfiBQSldJ6Y2FBaxs51Qhkb5FrSpmQbZNsjxPt+9C9vVkQ8tXszyfp1GAAsUnIM5t531PVc/abep1lZCpk4Gm2uIboX8ZZ8TCHYkhczkmzu3xr5vSjhzuW3i+QG7y+I2nQvGtZGPr5aWtx9HtRMBubm5+N4DjLct6j6oeCqAxIFLrATwF4BHLsn65YsWKFQHJqxTSsKZPn96pqp4Ww98MIyKZmpqady5btowFyFK4YjgGXwVisdhSAAd72EkylUpNeeqpp7Z6GJOhKOCpAAtYWXJW9nVMzkB/A+AdWTbJ7jTFyqSDD2JMa192DXgWBShQdAKvPj7oLkq+37C5hyzIu/Z/tYgl/Bb9hpfivmQy/AnsMXvbsIY84V8FdInt9Hc/7fnPMGg6GU2NgVw2SPaSF5CpU6dWRSKR440x13h/Lfnmt1JVPy8ij3d1dbnXKR9JHiF1LBb7IIBfjOAR0Jx6VNUzV65c+eOcGvFkCpShQCwWc19buh8geHUkamtrG1lA9oqTcfwQ4LujLFWd3vavQPA1AFaWTbI8Tc9INrTdk+XJPI0CFChCAeeWc6aoWO6nZE1ZpS8COWg8cPBEIOTxt5ysEgjsSZ2qaE01ti4PbIZBTqz3pkkRyzyhqp7eKaOQP6SiPTMhcXcXSR6lJ2DNmDFjaiaT+aSInAhgSjEOUUTca/9/jDE/XrVq1Z9ZyMp5FmX69OlXqqr7xICv7x9U9fb999//onvuuSeTc5ZsQIEyEmABq3Qme+rUqdWRSGSfTCazp23bTcaYBgBV7qbSbxul+33RvUPV3eyk37Ztd7MT97HPF7q6ulKlI7Lrkfj6A6hUACv7FuyZgTy//VE/jxen0Z8kG9rc9SJ4UIACJSwQvuXc8yBya84F8IYayDEH8U6st14bm8RYRyaa5jxTwpeMb0ML93fMFnV3JfT0MBYwe6ih9TZPozJYwQXcF9ThcPgWEfmEqpbKLhNJVb1t//33n8sCSfaX2CGHHOJUVla6d3EemH2rEZ+5znGcKY899pi7YD8PClBgFwIsYBX3pTFt2rQ9LMv6lIicuv0DlubXlnl4c31md7Wa1+8mfv33tPvo/OvrQXZ1db1S3DosYI18/tbOr3SqIncB6vUOTn91Uva/bZlwibsrGQ8KUKCEBZzbZl2tiq+MaIjuulhH7AU01IyoeYk2GlLI3FS057u86yfHGd68oMlJWr8FcFiOLXd7uoosTdU3nQA5I+llXMYqjEAsFjvMXbNPRC56befAwiTib6/umnqLM5nMd5944om/+9tV8Udvbm6eKiJdADz+MHfnNplM5sQnnnjC3fWbBwUowAJWSVwDhx12WH04HH6PiLgbwh332h3NfnxPdYtZa0TkD8aY36fT6Uefeuqpklmcn3dgDfPlUNG78P8ZsX4GqIerKouKpZclxrbeCOFaDCXxHYmDoMBuBMK3znJ3HzxixEhh+9Ui1uToiEOUXEPVhGXJDUPR1i+V3Nh8HpDTv/AwqLiLXHt5qIF+KN3A3XS9RC1ErFgs9mUAnwXgfsMp9deJ7mOv7mMYX/7IRz5yazzOx2B3dc3FYrGVAKbl8Zpce/LJJ+/DOcmjOLsqOgHegVUcUxaLxdxHAS8AcCmAPQBU5DFz94NF927WJcaYr69ataroN0Qq9Rcmo7s2NG45fY0/g+Dk0QV6e2t9OinOexGdvdHbuIxGAQoETuB7LQ3h5LbeUedlW8DBEyAHjANCpfIkz6hV3Mcr70xuTczD5Mv4qEm2nDt21W1fqIKWbJtkeV4qZFJ7b2uaV7K3rWfpUIynuesbnaCqVwI4qhgH4EHOv3EXp6+rq3t02bJl7qfXPF4TiMVi+wP4S77uvnod3rKsaStWrHiCE0EBCuxcgAWsQF8ZEovF3M2bPqaqF4lIPh6/Hg7ErT3cuf1R8B8AWFmsa2axgLWbaXZ620+B4F4AXr5b3GJZ9mFD9ZfwdvXhvsT47xQoAQHnlvPOUFFvdlNydyVsrIFM3xeoDJeAjgdDEGSg+JOt9kmDjZe4t0fzyEKgYv2i/YxtfgOB+8bUu0PwjWS09QrvAjKS3wLuOlehUGixiHxkJ4vF+t190OJvFJHFJ5100pd5588/pyYWi7mPwF+d78lS1cUrV66cA4AbROQbn/0VhQALWMGcptNPP91+/vnn525fZH0ugL1yXgPX/2H1Afjp4ODgvDVr1rgLwhfVwQLWrqbr5cWNTiTl7nQ1/Lb32U65wCjQkYq2uhczDwpQoNQF4nErPOnvqwCZ6ulQo9WvPlI41r0jmccOAZGnVTMXphrmPk6RLAQU4vR3fBXQeBZn53LKP0ImfPS2ptm8CysXtQKd29zc/K7tjwouEJEZBUohkN2KyO9VdV5XV5f72FxZH0cffXRlMpn8bwAfLgDE447jnMjF3Asgzy6LQoAFrMBNk0ybNu3fLMu6BsB7A5fdvyb0sjHms5Zl3VtMd2OxgLWLKyu8oeNCyZhFHu88OCAG70o0tf61CC5opkgBCoxW4Lbzo2E1f/NlEeSKMOSwPbku1lvn6CUY/UKyqe3u0U5dWbTXuOMMNC6HjmJ9tp1AqaIj1djaWhaGRTrImTNnhjZv3vwZAF8A0FSkw/A7bfeOznhXV9ft5XwHUCwWmwjAfd1aiJ1E0saYY1atWvWY35PN+BQoRgEWsIIza+7dzI7jXKmqswA0BiezYTNx78ByN8xo6erqGv2SJ8N2N/oTWMDamaEucZz+7v8FMH30xG9EMFC5ItnY8i0PYzIUBSgQYIHILbOON4KfA4j4kqYlkEP3BPZuAMJePunsS7b5CrpFoXNTzzt3YfrsVL46LdZ+wr0LjhSxlgLw8nY+I3b4oMTY2f9XrC6lnPfRRx8dTaVSX1LVz5XBIu2jncqk+0l6IpG47qmnnto62mDF2D4Wi7mPDo5sF10PBqyqt65cuXI2tt8u6kE4hqBASQmwgBWM6XQL/ap6vYicUaw/V1X1UWPMuU888cSzwVDddRYsYO3EJtzf3iKKhV5egCL4faI+fByEb6iC/kXB/CjglYBz26yvquJrXsXbVRyZVA80780i1utAgoQY3J6wwl/mZhnDXH16R4XTt3WJ95uVWN9LRrvPg3BXN7+//nOJP2PGjMnGmFsBHJ9LuzI/14jIz1S1taurq6wejT3kkEOcysrKbl/uIs7+oko7jjOejxFmD8Yz/ykQj8etBx544ABV9Wzh0HQ63R2UndxYwCr81T5jxowZxpjFed6l1a+BP/fanVi/8asDL+KygPU2xcq+W/fMIPGMx59GD4rRMxNNbf/jxaQxBgUoUAQCCgnfNusOAOfkJdsqB/KeA4GaitLf+D47UPfT+h8nJXwxi1i7B4tsWLy/ZlJ/BuDZC3xAN0Ds9yWjc57Kbrp4lt8C06ZNa7Is6w8ADva7r1KMLyK/VdUzi+URCy/mIBaLudu+uwXPQh+Xd3V1fbPQSbD/4hM46qijxqTT6TXbr+NJXmWvqvGVK1f6/uFkNvmygJWNkm/nyJFHHnlgJpP5padrZvuWbnaBReRFY8xHV65c2ZVdi/yfxQLWm81VxdnQcQUMrvL07ivg4YTZ+lE0fXFz/qeYPVKAAgURWHxROCypFyEYl7f+3SLWoZOAPaN56zLoHQnkDwq9JNnQujrouRYsP3dB976Fl0Pk657mINb3k9E5Z3sak8FGJHDEEUccYdu2uzbcO0cUgI12CIjIE6p6dldX159KnSQWi4VF5Puq+olCj9VdVD+ZTH64XB/jLLR/MffPAlbOs5eora1tXLZsWdHtTJfzSEfZIBaLHQvgR0AeX+ePMudsm4vI86r6ya6uLndDu8AdLGC9eUrWfafaCVeu8PgFnrsGyzS+eQrctc+EKOCrQOSOcw80aSnIhg3yzj2AgycAFr/F73jTqViXMDINTXPWQ4TrqOzkyq/ecsP4dMJ+TCH7eviFYWzIPoMNLWs9jMlQOQocccQRY23bdjeTqM+xKU/fucCqUCg0c/ny5ZtKGai5ufkAEXkEwPgAjHOLiLy/s7PzjwHIhdKFHbIAACAASURBVCkUkQALWDlPFgtYWZAdeeSRDZlMxv1+tF8WpxfrKX8yxpywatWql4M2AL67edOMRHraL1ML13k4SSrAjYmG1nkexmQoClCgCAScW875jorlLpKc/8MtXO0ZhUyZBFR6+FRY/kfiZY9bVE1L6uE//ABn3JPxMnBJxFJIZKD9c6r4T0/Ho7gv2TDlY5Bj057GZbCsBJqbm6eKyC8A7JVVA56UrcAToVDojOXLlwd+sdtsB/T286ZPn/5xVf0xAGukMbxsJyLzOjs7b/AyJmOVvgALWDnPMQtYw5BNmzZtb8uy7gUQy1m3uBq4H/j+cHBwcNaaNWuSQUqdBazXZqOq5/qJaTu8FgrPtvIS4CUFjufdV0G65JkLBfIg4D4+aKWGCv7CvzoCefcBQG1FHgZdDF1oWkXnpaJz24sh27zn+OyCiBO13OvWy2OLEflQOtri3snBI88CsVjMXZB1/zx3Wy7dPTw4OHjKmjVrSvJRm+nTp/9NVb28I3NU14WIbN53333r77mHH0CMCrLMGrOAlfOEs4C1G7IDDjggUldX910A/56zbHE2cItYV3Z1dbm70QbmYAHLnQqNW05/01cBvdLLmRHV9kTD+M9AzuCn/V7CMhYFAi4QueXCg4yk3c0gCn+4RazD9gQm1rkLuBQ+n8JnoCpoT6n5ChrmlvQjQCOhjmzsOEHT+oCn60Cq3JxobLlkJPmwzcgEpk2btsdrnxC/a2QRfG01AMDd2a73tV8JANve3KOIVKpqjYjUqmojgD0B1Hp5XXoxQlX9fjqdvqTU1mZqbm6OWZa1XFU9+1DXC28R+WBnZ+eDXsRijPIQYAEr53lmAWs3ZNOmTTvLsix3x8HKnGWLt8E6EflwZ2fnqqAMge9mAIzZOD86lHF+C8URXk2MCgZS9an9IPM2eBWTcShAgeIQCN82ax4U8wOTrW1B3DWx3jExMCkVOBH3Q4WVSbP1/dxc420zsTruOBMafgLIiZ7NkSCVTI6px4Szt3oWk4F2J2DFYrGFANyiYSBe520vPDwK4GeZTGZpKBR6MRQKJS3LSoXD4VR3d7cZN26cefOAuru7rbq6Onvjxo22bdvhioqKiIjsa4w5XlU/sj2W+3otEGPbvoDvoq6urjYAbxlDMV+i06dPdxdv/3QAx/BIbW3tscuWLeMjyQGcnCCmxAJWzrPCAtYuyGKx2P6q+oSI1OSsWtwNVFXvWrlyZWA25QnKD/+CTmtFb/s5RuBud++VR0ZU5yUa29wXkDwoQIFyElhyuh3eWLMIwEVBG7bs0wi8cyJQ6QQttULl06mWuSBVP/fJQiUQxH6d/kWfhprvefwI7APJaO/JkHjJvMkP4ty5OU2fPv18Vb3Vw9c0uQ7VneO/AFglIvdnMpmHVq1a1ZNrkN2df/TRR09KpVInGGM+JCKHAzjAy/g5xtomIud3dna6u1EV/XH44YdPCoVCvwYwJYCDeSEUCh1XymuPBdC8qFNiASvn6WMBaydkRx99dGUqlbojCLuy5jyj3jRIi8gHOjs7l3kTbnRRvCrYjC6LQrbWO6sj/ZufVaiXtyassWGOH2yY+2Ihh8a+KUCBAgjceVZ1OBH+NaDvKUDvw3c5tgryngOACBd3fxVLXxRYFyYaWn41PF6ZnKELIpF+eV4hXv5c7FM1H041zuUuYj5eRtOnTz9NVX8IoFBf4I+r6jXb75JaWVdX1+33nTIzZ84Mbd26dWImkzlaRC4H4BazCnEMpNPpf3vyySdXF6JzL/ucMWPG+4wxvwEQxE86jIjM6uzsvNPLMTNW6QqwgJXz3LKAtROyGTNmvNsY475OdB9lL9fDfYTwvV1dXW955L8QGOVdwHJ3Xeprb1PBjZ7iq7ki2Tj3G57GZDAKUKAoBCoXX7RX2kq5O1MF8cX/q4buI4Uz9uW6WG9cUbpBVS9NNfTfxTuEXkWpGLhpH2PSzwIS8uQLT0RhzH8kG9uu8SQeg/yLwBFHHDHWtu1fAsj3uldbReRxEblxxYoV97lV4QJNj93c3HymiMwGcFQBvgevBHB8V1eXu7ZX0R4BfnzwddP7urq63MdIC3WdFe3clmPiLGDlPOssYL2NzP2gZPPmzW5R/9icNUfXwF0f0l2r1d1cJ/VaKPdxeneNSLeQlu8PqraIyKlBWIewvAtYa+dHI1Xh/1GIl3dKvJzcYh2Kvee4i5TyoAAFykwgcvO5BxpbHgcQDfTQnRBk/3GvPlLIY/seHrpVRRanor1fhsQDtV1wQaZHIU5fx50Q79bBEaA30dDaVJDxlEGnzc3NPxSRM/M5VBF5TFWvCIVCXcuXLw/EpgixWKzOGDPDsqz/BDAtjx5pVb185cqV38ljn552NXPmzIrNmzf3AajyNLC3wYxlWZNWrFixztuwjFaKAixg5TyrLGC9jSwWi50OwL2zOR+bWgwCcItlv9r+8/wvIrLBGPNGAcsYs6OAZVmWW8CapqrHA3g/AG8+bNz95aIi0tHZ2emu+VjQo6wLWKEN7e+3DO6HIuLRLGTUkgtS9S3/5VE8hqEABYpPQOxbZp0oIreIt48m+yMxOQqZOhmI5ONnnz9D8DCqCvTWhJX+Iuq5AYfTt/A0qPwA4tnPSED0mmS07SsezhlDAWhubv6YiPwkjxg9qtohIt/o6up6/ZPhPHY/fFevvXG9CoC7GHnD8C28OUNVD1+5cuVT3kTLb5RYLPbN7Z/2fym/vebem4jc0dnZeT7vwsrdrtxasICV84yzgPUmsqlTp1aHw+6yIPDyZpedTcpLInK3iMzPtTg/Y8aMCcYY9xH6UwG4n0pbOc969g1ecNecLPTP/bIuYIX7Oh4U6HHZz9kwZwpWJi3rOIzl3VeemTIQBYpUwLnlwikq6QUA/l+gh+D+FIjWQA6fDIwN8ofueVNUhTwsalqTjW3uQtTle+iCiNNvdXm5mLMIesJh+9AttZd0ly+styOPxWLuC1b3E9tDvY2882gi8tD2T4S/tHLlSvfaCPwxbdq0Y0TkOhGZnqdk/1hZWXnCI488UlR34r/2Ru0PHt+1ZlT1fBH5FoDxHvq/5O5EWeyPa3rowVC7EGABK+dLgwWsN5EdeeSRR2cymQcAjM1ZMrsG7gdA37Ms64YVK1b8eRS72UosFjtYROapqq+bSInIiZ2dna5JwY6yLWBV9ne8N6Pq/qD27hD5YjLa4t6yzoMCFKAAsPiiupCV+rG8WsTK97Pquc1AJAQ5cj+gsda7/VhzyyBgZ8vT4Qw+sHVcS1k/phLp7jhAbX3Gw0/03Lvc5iUa2rxdezJgV08+04nFYhdvLw7clIc+3RfaC7u6uj6bh7487yIWi90FwH0UxO/1Cd3HLC7p7Oxc7PkgfAwYi8U+CMC9i6/aq25E5PednZ3vmz59+o883r3LvRbP7erquturXBmnNAVYwMp5XlnAehNZLBa7GoBfd427j51/W0S+5uUdTbFYzH3Ez72b1rPv5W+7ih7o6uo6Mecry8MG5VnA2vGpsn03oO6tdp4cKhgIZ1JTtjXNe8WTgAxCAQqUhkD8dMeZVP1FVXwZIpWBHlTYhhw0Hth/PBDy8w7kQCu8kZwA3WpLS7Ku5ydlu7j7q2th/QSiH/Vq1kTkd4loy0yv4pVznOnTpx+sqk/nYf2LfveT3ZqamiXLli1z1+MouiMWi1WJSIv7wl5V/V7L5O+1tbWHLVu2bEuxQMViMfdNmvvIpWfvDVR1unun3uGHHz4pFAr93ePrdFFXV5c7nzwosEsBFrByvjhYwHoTWXNz819F5MCcFYdvkFDV/xgaGrpxzZo1nq+7GovFLgDQ4dMHNpuGhob2Xb16df/ww/TnDM9+SPmTnj9Rnf4bDxVj/1oFe3jVg1jWvET9nBu8isc4FKBAaQk4t5xzmopVyO3tswaVfRqBaXsBUpY/It7ulLZUZw019N1drkUsp6/j44C6165XC6VpMhEehz1mF/VubVl/Qfl3ovvIgLutt3vnjJ+H+yjcR7q6uh7xs5N8xW5ubj5eRH4KwNcPFNw1yTo7Oz9eLOs0xWKx9QDGeTgPg11dXe5Cwxk35vY7Bd27Wb18jDCxcePGuueee87dqYsHBXYqwAJWzhcGC1ivkc2cObNm8+bN33V//m3/4MNdL9uzF8Wqesv/Z+9cwOOoyj7+vrOXJCXpJUlb5N60gBR6yZxJQylIEZE7KFDwgggIFpoU8IICH0oA8VNUUJqiBQRFFAVUQKWKCFGppc3OpBSsXEpBlFubpKS3ZG/zfjlly1dKm53dPWd3ZvOe5+nzwJMz//Oe35lsdv5zzvuOHDmypaOjI5XzCnm8wDTNbyCizI2lLO7M0PIz90jbtpd5DEV5N9UTUh6gDsFo98IrAOmbChf0hURypAm7n7NZR7ysyQSYQHkQCP/4/MORqB0Ipvl9RiiPEk7bC2AU58UCBBdcujGRGvgG7H758PucX7uwOhqifwDAFIX37cpEXavvfw8Uzle5lGmaAhFl7iudFU//I/NpOI4jjbJyaYZpmmcYhvFTIqrUOKk+wzCO6ezs7NQ4hhJp0zSPQ8Q/KDwqLOP6iW3b520L0LKsG4nociUBZ0SI6HzHce5Sqcla5UWADayc15MNrPci25ZbSppY8tjcLAU7eJeHw+FTli1bJl8aaGttbW3G7373u4cA4CTFg0jT7bOlPMI9/Ays++4LRY5e+xoqewuEBOBel6idfy0gkOIbhOWYABMoNwI3nzs6UoO/AYKjfD+1aBjw8AMARmvdqOB7DJkAXQB8NFHXcnxQAlYZZ8W6W04kw/i9Qk03RO7M/vpLlivUHFZSlmU9QESna5z0BsMwju/s7JTmZbk1tCyraXD32j8UPIwMxeY627av8Ts8IYRMyG8qjvNK27Zl8vatTQjxKZmsWOFOTim7vq+v7wO8C0vxypWRHBtYOS8mG1g7R4aTJk2Kjho16gBElGb8cTmTlTtnEHtDodBk3ebVttgsyzqGiGRuw+p84t3FNTLP4xWxWKxkeb+HnYFV2bPwQhfoNoWLOABoNCdq5wWyZLJCDizFBJiAVwJ3fK424tL1gCSTL/s72RQi4JS9ACaO5SOF76zvP4DwgkR9i6wWM3wa3ReK9q6VuZY+qGrS5NLNyfrWLwHKF0HcciFgmuZBiPhPhTvJ3zc8Il4Qi8XuDMoRuFz4ZfrKnViXyAqFGj+H1yeTyb1Xrlzp252bpmlORcQOABiTB8NdXbKJiI5xHOepbR2am5snp1KpJxQfU4y7rvvRrq6uvymMnaXKiAAbWDkvJhtYHpA1NjbKHeRnGYYhj/BP9VioyR3MSfVN27a/Xqy/qzL3IxF1DO6wlS9sVLbv2rb9lWLNY8fAh5eBte7bNVFjtyVKj0EQ3pOom3cOfwFX+TvBWkxgGBC4ZX5FtGrTHEL4EZC2SiFqQBoI8IHRgE0TAOR/D+uGhOS+6RKelBzb6gwnFNGeW+cAuPcpnPN/EuAeAnWXbFCoOSykhBCPA2jdxdli27asbFjW5uKkSZMqRo0aJasFflbXjSNznTiOM1eXfqG6lmV9nojkWqt8mbJu8AjhfoMPOFu2i8+wLGuZTOxeaMzbX4+I34zFYjIBfVnfqyqZDSctNrByXm02sLwjM6ZMmTKqsrJSpNPpKxDx6CyX9ksPwrbtl7wPUXhPIYSsHPzdwpXeo3C7bdvyJbw05YrehtWTSOXb7Ue76a0lgkcqIt0XotDB/fUXv6ZIj2WYABMYTgTa2ozoHq9+nBC+A0ATfD/1sTWA0/YGGMlHCglgLQLMT9S1qjR0fH0LVK5v39d1QeZcOkBNoEgIcEK8rqWc8iupQTOEyuDRwUOISK7DB3QMhoh/rKioOHPJkiUbdej7UXPwmMWSQaaHaYot4bruhK6urtc16Rcka1nWY0SU7cErpzGI6C7Hcc7f8aJMUuH/yUkse2e7r69vFh8jzA5qOPZgAyu3VR88GjZARCNt207mduX7e0+ePDkaDodHRyKRGsMwZL7BiPxHRP2ISK7rDhiGsTkej29cuXKlNLsDbUJbljXDdd3PIeIRACArF+5Y+EbuWlKaB9DLGh122GH7xuPxl1Xu2CaiX06cOPHs+++/f2uRjmK3YWVgRboXfB8N4xIg+Z1ZSftpoq71XCVKLMIEmMBwJYDRRZ8/kIzUnQA00/cQqqKA0/cB+MAo34dahAA3AMLCxJjuq4dFhUICjK5f+BMgOkcVWyR6K14/f3dVesNBxzTNcxFRHu1T9V1mR2yTiv2GuNTr1tjY+CHDMGQSc5V5QrZNSz6UfcW2bdVvwAvGNnXq1N0ikYgshR4tWGw7ASLa33Gc1Ttqzpo1q2ZgYKDH43EbryFROBw+ZNmyZau8XsD9hg8BNrByXuvnbdvOO1VAY2PjvqFQ6DjXdWcZhvFBIpKVSLeZV6GMqZPImFXSJJMV7aRptk4eiyeif6RSqY6VK1euzTlyf1xgNDc375FOpw8loksBQL4Ykbtbt1RVVe315JNPyqq+xW4yEb38nB+tcOAHGhoaPsEGlkKiO5Vau7C6IkSrSVXydoIBNPDMeG3L73SHzvpMgAkMAwJ3nbt7JIk/A4QjFX+5Vw8vEnonL9betQAhladO1IdaBMU0AN2cSBvXwriWTUUYr6RDjF5/1+gt7uZuAJBfRJU013Bnp8Zc8lclYsNAxLKsNUTqd2wiYjqdTn+mq6vr3mGA8X1TNE1zASK26DAGEfE31dXVZ+ksmZ7PmpmmeS8ifiKfa4e45o2Ghoa9d/VgI4SQudsmKx7zcdu2jynVcRbFc2E5hQTYwMoNJiI+HIvFTvV61cyZM6uSyeREAJhNRPLlynQFhTFklTtZWOK3RPRYJBJ5cdmyZYFLNTBnzpzQK6+8crjruvLvSp9t2xd65aq6nxDieXW757dGxwaW6kXamV5Fz4JLCfD7Csd6LgFuM+fuUEiUpZjAcCfwyPyK8OubvooEMp+H3Grt3yZzYe1dBzhlT4Dojruk/Ru2lsgQ0uTC46FQ6PMDYy5+RcsYPhKN9Cz8PsLWN4tK2mCGtUXx2taLuZJvdpxCCPlmXFcBgT/09fWdPlyPYsnjLlVVVbIqpkzOq7rFk8nkPn7aVTBlypQx0Wj0VQ27zv7Xtu2rdgXQsqxWIrpFtVHouu5+XV1d/1a9cLnqyQf6eDx+IyIq282HiL+IxWJ/zjUWVf0bGxuPDoVCnyZ1J1hkaJfbti1fhnhupmme7SHP0I568rvUxwFghOeBsnRExBVEtEKR3iO2bd+fr5YQ4plBM+GQfK/f8TpZYS8Wi33Vi55lWbOISOZXkruMxqn+nc7EIHcsyd2V99TU1Nzht5cAXjhJI+vFF1+sWbFixdte+uvoM1gF9oXMsUZV8vc2NDR8hndgqcK5Mx26e7eK3g3PE8CeaoZBIqCLknWtKqsZqgmNVZgAEwg2AQKM3HH++YD0bSCo8/tkcNxIALEvQJXSEyh+n/au4ltuGKGzyt3EiqxfOB1dWpo5FqBirf4ddumwLWPn+zJHkIoJqtKwLKuLiKar0ttOh4jok47j/EqDdmAkm5qaTnNdV+5A0/GBdqlt29K48UUzTbMFERcofuh0EfG8WCx2964m2dTUdLTrur9X+PmxdSgianMc57pS59ERQsjz9TJJs7K/34j4hVgspvIlfE73oGVZLUSk9F7Jx3A0TbM9s0syp/h93vlbtm1fmW+Mqg0sIvqM4zj37CqetrY245FHHpmUTqevAYBP5Rt3Ptch4hoAmF9dXf14R0fHQD4aw/UaIYQ8ul2rcP6cxF0hzJ1KVfQsPI6AZPJ2NZmHEVYn+rqnwIQ2/uXRvXiszwSGKYHw7RfMNsC9k4KQ3L264p3k7uM5L9ZgNbOXEaklPmb+H8t2RxEtGhHtTcq/qccq+vUkN0QfSY2eLyvrcdsFgRkzZtSl0+lnAUBHzrBnGhoaGkv1NtUviz59+vTR4XD4SSI6WENMm/r7++tWrVol87+UtMkdAWvWrPmxhuqLr4dCoaOWL18u3/bvtE2bNm3PcDj8FwA4UDGEP0Sj0TlLly6Vlb5K1tjA8oaeDax3OfnKwDIM4/jOzs6dFlbJ5LD7AgB8DgD28bbSynvJVA2LQ6HQ1UN9zigfNcCCkydPrh4xYsTbCo52vkuBiG52HEfuvitJ4n1dCUB9tcyRnvbvIcAX1QSFBOR+LVE//wY1eqzCBJgAE9gFgfvmVUc29C8GejcJpH9RGQjYuO87ebHk8cLh3bZgCj4WH9f9BGCbzOVQdi3ae+uVQO43FU7s9URdq6Jd0gqj8pFUJnn77TupbFRolG5lZeXo4VR1cChgpmmehYhyF5byD7LB/DLmYH6ZrkIXrNDrMw+isoK2TLCssj0NAE3ZKpgJIX4LAB9TOTAAyITQB5W6AAEbWN5WlQ2sdzn5ysBKpVKHPP300zJP3fYNZ8yYUZtKpX6VxxFObzdE7r3+bRjGnM7OzlipTJTcQy7NFZldr4+pHB0Rr47FYiXzQpT/cVYJR4kWtRnR3rHPAZAsZ6mi9RC5JyTrL5F5ErgxASbABPQSuPsz4yKJyDVANE/vQArUEQEaxr6T4J1NrDQAfjOR3PJt2P3yzQro+kuC7quK9qxdDwgVigIjSrmNyfGXyAdgbjshYFnW5UR0owY4D9m2rdpM0BBm8SSFEDLPWN6VuIaI9HuZMuoleWu9La6mpqYLXdddpNqkI6KzHcf5ebaVsizrGCL6k+rxB4tLXG/b9tezja/z52xgeaPLBta7nHxlYMXj8d2fffbZt7ZfRSHEUQDQrqH4grebZde91socXBMnTrx3uO8eHgqkZVk3EtHlhcLe7vo0EV3gOM5PFGrmJFX2Blbm+ODinKgM0RkBlsRrxx0JeGZalSbrMAEmwASyEYj8+PyLwCX5BUJZ9bdsY+b98xFRwNkfBKj0dx76vOeX24V3JhZ0XwhtbW5ul/m/d6T31hYkV96TahrBA4n61jlqxMpPRQjx1ODRiWbFM5O5r77oOE7J8usono8SOcuyTh88RigTK6v+nnx3Q0PD+aV+2NKQD0Vyp3HjxlUtXrw47mURhBDyIVkmflbakslk9cqVK0v20oANLG/LyQbWu5x8ZWDZtv2ezzzTND8sKxMCwG7eVrbovTYS0RzHcaQhzm0HApniJHLXr8rKrwnDME7o7OyUR8FL0lT/YS7JJHY5aGxRJLpf8ilAMJUFZrinJ8ZcInN/cGMCTIAJFI/AfXNCoQ27nWa4eCMg7Fe8gfMcaWQV4NS9AGSS92HfaLFhhOeVW3L3qp5b9kqDIXMyqUl+htiVSCaPh/GXveft77C/fTIAhBDyxZmhmEevrGBl2/YbinUDLWea5lRElA9EqvONrU4mk7NKWY3QNM1jEXGnOW4KXDS5u+zLXjUyOwq/rdokdF33nK6urp95jUN1PzawvBFlA+tdTn4ysF6zbXuvbZGZpnkSIv5UcfJvbzdIbr26Xdf9ZFdXl9JjcrmF4M/epmkeioiPAMAYhRFuiUQiBz/11FMlq7pd1gZWZP0PG9FNy7Oxar7wEb2YeHz8QXAm775S+EvAUkyACXgngJW3X7BfGlIPAuBU75eVqGfIADhkT8CJyl+yl2hCeQ9LCPgmGsZhZWViUVs4ur7+TiD4TN5k3nthmsLG4clR8+ROI27bETjssMPGxeNxHcbeKtu2ZQn2kh5p8+FiG0IIafIcozg2cl33kK6uLlkWviTNsqybiegyxYNLc/VU27b/4FW3sbHRMgzjrwAwwus1Xvoh4m+I6BPZ8nB50cqnDxtY3qixgfUuJ98YWIjYFYvFtm76OOSQQ8ZXVlY+TUTjva1oyXutNgzj2M7OTlmpkFuGgBDiisGqujJfqTLPBxH/G4vFZBL/kn1vUDYZ390pRBjtWXglIKhJMIbgItFX43Xzv+u7uXJATIAJDCsClbdfMMGF9M0EeCIAhX09eZncfdJ4gP3HA1T4O1TdHBHwDXDdi+Jj58vt+GXRKnpvvYjI/aGqyRDRrcn6+S2q9MpFRwgh8wrpKFk+1bbtZ8qFk8p5WJZ1DRG1qdSUWkR0vOM4OnZAZQ1VCFGPiB0aqiz+0zCMj3R2dr6ZNYj/f7CSOzd/BwBHeL3GYz+Z3PnDpXqQZQPL2yqxgfUuJ98YWADwe9u2T25qatrbdd1HNeUB9HaD5N5Lmik/tW1bVkgsu5QNueMAmDlzZlUikXBUr6PMxek4zlfziUnVNeVrYL3cVhkZWf/wYM4qJW/PkGCtGwp/NDnmIk4wq+ruYx0mwATyJ3DTnKroyOqvEYF8u+L/z/L6GsCmCQBVwz0vFvahQW3xMa3lkXNo7cLqaIg25n8j73AlQTxR31qpTK9MhIQQfQCg+jxuyrZtmYSfv+zv5D4RQsidQRs05B38hW3bny7Frdnc3Dw5lUqt1DAnWQjgtFzvJSHELQAwXzEL+SB7mm3bDyrW9STHBpYnTMAGli8NLGkAnW+a5ncRUe7S9P93y/febknDMD7T2dn5K293YXn3amxsvNowjOtUr2M4HD542bJlJdtFLFctaDem5zutqnfRPmlKPQtASkoEE8Ffkqn+U8uympRnqtyRCTABXxG4b04o8nbNPEK4EoE+4KvYdhIM1lQCmPsC1O4GICsWDt+WBKQbEz10Pex/iaeEx35GVdG78DYiulBVjARwYbKu9Q5VekHXmTNnTmjNmjXSJKxSPJeSGSmK56FNTgjxGgDsoXiAAdu2ZULkohuHlmXJ3VdHKp6PlBO2bcs3/Tm1GTNmHJBOp/8JAKq35z5dU1NjdXR0pHIKSEFnNrC8QWQD611OftqBtQwRZeGzLxGpeX72djco7fU6AMwcNOJeVaoaMLGmpqaDXdddCgBKfJDtpr/Stu1ppcZRtk8Q0fXtV4ML16sCjEQt8fr5t6rSYx0mwASYgCoC4dvOOxIRHwCgelWaegYg3wAAIABJREFU2nSiYcCD9wCYMFbbEMEQphQSPhEPG2fB6HnrgxHzLqL8b3tdtAq6Vc2BEJ5I1rZ+WJVe0HVM05yEiPIhP6pyLkQ013Gc21RqlpuWEOJbAKD8qEQpKuUJIeRLDvlQp9QskvlQJkyYsF++lRWFECsAQPkDERFNcxxH7jYramMDyxtuNrB8aWB5Wzx/93IR8YpYLPYdf4epNToUQvwEYGt+UtVez//atn2V1ug9iKuelIchi9Dl5bsqIzWbX0UEVU9IfaNqca912LKpCNHzEEyACTCBnAnsdvsF4xOQlhVSmzUcD8k5nqEvkHmxxgEc9AGASEixdrDkEOEJTBoXDIyfF9zEo3RfKNqz9kFAOEkR/dcgGv5oouaikm5RVzSXgmUsy/okAPyMiFT+srhE9FnHce4pOMAyFmhqampyXXeZ6ocAwzA+kEu+KBWILcu6iYi+oEJrB41zbduWlcryao2NjR8xDENWfFRTcCkTBRH90nEceVSzqDvd2MDydhuwgfUuJz/twPK2eP7vtaqvr89cvXp14He454HaME3zDESUf9tV5+zYZBjGxzo7O/+SR1xKLylLAyvc3X60gaCslCYhtidrW1Sf0Ve6kCzGBJgAE4C7zt09kjauA4XHubRRlUcIx40EnLEfQETphgBtIesTxucNopaB+taSfynId47R7varAPEbAKTiewWhi6fGx7bIBM/Dvgkhvjb4cC/zWKhsvQBwgm3b0pzhtgsCQghZkUsew1C6+w0RT4zFYrK0eVGaNFUQ8WEi+pDiAXuJ6KhCdjo1NzfvlUqlZOXRPRXH9iwAfNS27TcU6w4pxwaWN9psYL3LiQ0sb7dMTr0Q8bOxWOzunC4qg86WZR1DRPJldrWG6Tzb398/c9WqVSXf0KPii6YGPgVIEmGkd+FNCKCqRHA/uXB4cmxrzmf7C5gFX8oEmAATyJtA+LbzrkSEq1WXJ887oKEujIYAD9v/nbxYw7ghQncajNNSY9YuAWwr6o4BFdgr3rplIoWMZwBV5WnCBxJ1LXNUxBZ0DSHEtYO7SL6ueB4vAkCTbdsyOTy3XRAwTfMgRPwrgLId/VtHcl33a11dXd8oFnjTNMVglcAniUh1gYRHo9Hox5YuXdqf71xkjreXXnrpdkQ8L1+NnV2HiGm5W2D58uW/V6mbTYsNrGyE3vk5G1jvcmIDy9stk2uvt2pqavbr6OgYyPXCoPafNm3anuFwWL4YmaphDvJ76emlKo6x43zKz8DqXTSqgpJ/IIBZShaPIFYRjRy/ceRcZfk9lMTFIkyACTCBXRFomxON7lFzMiHJvH3jfA+qKgp44O7v5MUqv79KueDfDAQ3JOp2uxnwvGB96aI2I9pbL02RhlwmPETfZKKuVemuF0VxFV1GCCF3X8ldWCrbP23bll9yA2eWqoSQTWvq1KnjIpGITGosd2Ipa0T0M8dxzlEmmEVICPFdmZhZ9XhEdK3jONJglZX/8m6WZc0loh/lLbCLCxHxrlgsdr5q3aH02MDyRpsNrHc5sYHl7ZbJtVeKiI51HOfxXC8MYn/5tyoajd6nqUiHRPJ4TU3NsaUojLGz9Si7R4WKtT/an0KpLgBQ8jofERbEa1svCeLNzDEzASYwvAlULDx7khuJPAQIkwNBYtI4wIP3BAgpTYUSiKm/GySCzE30g2QtXQkYrAqF0d5bpwK5T6sCjgjz4rWtP1SlF1QdjQbWlEKNh6Ay9Rr35MmTo1VVVfI4xoler/HSDxF/E4vFzigGf7nD6eWXX16voaqYNK3G2bZd8AveSZMmVYwePfptDTvEIJFI1D7zzDNFK5TBBpaX3wDegbUdpXIxsOTnQRIAZOVP+WJE/r/0GeQ/mSdC5mMq6pc7RPxmLBaTpxEKMti93dGl63X88cdXrFu37nYikknbdbQBIprjOE5Rd7MONZHyM7DWtV9OBtyoavUMl44aGDu/Q5Ue6zABJsAEikmg4rZzDnCN8DeASD4s+fszX0b3gdGAh+wJUK36pEsxqSsZ64GwS5duGTtfloQORpPJ3HvXyofZ0UoCRuxK1LYo3fmiJK7iihiDD8Q3A4DqF2nP2rYtDSxuWQgIIX4FAGcqBvWgbdunF2MHnBDigsH8Urcrjh+I6DHHcY5VNQchhEw6LJOuK22IeHUsFrtBqegQYmxgeSOd5w6sGxHxQm8jvKfXSMXmiTwyqyRBOBF9P7OLMY9pAQghngGAQ/K6WMFFiCjz4P0NAGQ+xecA4A0i2oCImxGxSv4jIlkBVe7OFgAwm4gmKBg6qwQi/nHLli2nrlq1KpG1c4A7NDU1fc11XVkZUMsXZ8mxoqLizCVLlmz0CyZ/P8zkQSnau/AlIFJzhIHgtUR96155hMGXMAEmwAT8Q2DR5yMRTHwfEOf5J6ghItmtAvCIAwBGDPMTZAirE2O6DwZsC8yXr2jPwmsGX3a2KbnPiN4wwjBrYPT8l5XoBVBE7p5Zs2bNnQCg+rgZG1ge7wfLsu4lok947O6120MNDQ2n33///WmvF+TbTwjxx8FE9NJoUt0OVVkEYObMmbWJROKtzG4NlbHKZO7Ntm1vUSm6Ky02sLxRzsfA2m5Hj7dBAGD69OkjQ6GQvAeUFQlAxGtjsZiqwhpyd1DeO4RKaWAR0Z2pVOrKlStXrvM4BxRChA3DuNh13e8X4aXqhv7+/j39kHTc8w2bY0fLss4nojs0skyHQqH9ly9f7qvvYWVlYEXW3SrQcGM5rv2uuxNemahv+ZYyPRZiAkyACZSKwBNt4ciLr16MBl1FBLuXKgzP40bCgFP3BNirdlgfKUSA/wLQBfG6+bLMvO9bpPuWcxCNHyt6CE0DGecm6ufJnRnDss2ePTu8YcOGnyGiUgOFiH7uOM7ZwxJqjpO2LOtnRKSUFRE9PHLkyNN15xNpamqaTkR/JKLxOU57yO5E9GIqlTp85cqVa1XpCiFGyIT5RGSp0szoyEIFH7dt+wnFujuVYwPLG+U8DSxv4tv1am5uHplKpVapNLCIqK2QXVM5T2KIC0pkYD2SOZ63JN+5mKY5CQCuR0RZrCWUr46H646wbftJD/0C1yVTcfCn8uyCpuDlcdCrbdv+tib9vGXLysCK9iy4DgBVJTrdFAKc3F/X8p+86fKFTIAJMAE/ESDA8O3nfQgRpBlS4afQdhqLgYATxwNMUfbi1PdT3kWAm6SJlaibL48y+brVbFhUH0+mVgCQmkVz6frE2PmqK/D5muH2wWVyMMkdNEcpDvpu27Y/q1izLOV0GFiI+DsikhWdZM4Ybc00zTMR8Zca3s7/tKGh4XOqd5AJIa6XD0yqgRDRVx3HUZZeZKj42MDytnpsYHnjlK1XkQ0sWdnzunA4/J1CKo9um5PMfTdq1KgFAJDPsdBsaLb9/Drbtq/x2jko/RobG6cZhvEXAKjTFTMixgzDOG758uU9usbIV7d8DKy1C6sjhvt7RDwyXxjbX0cAf0um8UQY17JJhR5rMAEmwAT8QqDiJ5+d6CaNu+Cdaq1FTaqZDwPcYzTA1L2H95FCkvk2sM33u4KJMNq78CkAmJHPWu94DQK9Ea+bv4cKrSBqSANrxIgRj2qoLMQGlscbQoeBBQAyGe5pug0sjQ+3n7Zt+xceEXruJoT4KABIw1b188m/+/v7DyhGLhw2sLwtNxtY3jhl66Xxd3zHoWUqg7a+vr6bVq9erST/17YBhBC3AYCsFqpjJ1aXbdtllUvTsqxGIrofACZmuz8K+PmWUCh08vLly31ZxVH1H4gCOBV2acXaH+xP4dBjQLBPYUqZq4m+lahrvQoQ8z6XrCSOnYhUdf9wT4y4w/YLvS6urMsEhhOB9Gu9Y+nFdd+ApNvo+3nLv1S7VQKY+wzr44SAEAeCJxLxyOmwx9yi5HPJ596IdN8yA9GQCV0VNKREGkYO15dJ8gjhxo0bpVEgj1mobGxgeaSpw8CSO7Cqq6tP03mEcMaMGQek0+l/6XhJUVNTU9PR0aH8BW/myOxriDjO4/J47ua67pFdXV0y2bTWxgaWN7xsYHnjlK1XkQws+Sz85Zqamlt0fGY1NTXt7rquNEoOyjbfPH6ejkajNSp2jOUxtvJLDj300P2SyeSjACCPYOryceR6X27b9k0ec5spn2c2QV0Tzzau8p9X9N56IpH7kCr3FgE+Gq9r/bPyQBUIRtcvvAZcRUlyFcTDEkyACTABJlBEAgS/D43Aef0jfHrEndrC0d56mXdmhBIqiPckalt0lYdWEqIuEY1J3B+1bVtHYm9dKEqmq6k6nvYk7kKI3wHASarBIeLNsVjsi6p1t+mZpnkVIn5Dw8PZ0wDQVIRdb6MA4CWVR3sQ8QuxWEwmvS5JsyyrhYjkUS9lz41sYKlZyiIZWPf39/efrzMZemNj4+mGYcjjzmE1ZP5fJRQKNfgtCXk+cxwsKHIgEUmv48B8rs/hmkcHX36ctWLFirdzuKaoXZV9EBU16p0MVtG78IdEdJGiOHoTteP2AjxTlkn1XWMDy3dLwgExASbABIpIQO4MpueI4LxkfauinU5qw4/0LliAhK0qVJFgXby+VfmODBWxFUHDsCzrViKaq3gsrkLoEahlWb8korM8dvfaTauB1djYuK9hGH8FgH29BpRDv31t2341h/45dRVCRIioFxGrc7owe+f1iPihWCwmK9Jpa7wDyxtaNrC8ccrWqwgG1tuhUMgsggFkmKb5J0T8SLY55/rzUCh02PLly5fmep2f+s+YMaPOdV1ZkEOoNJJ3MsdNRDTLcZyVfpr/jrGUh4FFiyKRnuR/EEFJlRVEWBivbVXyxVvH4rOBpYMqazIBJsAEgkaAXsVw5CPxURe96LfIoz3tZwKAquTRW4hwdrK+pdNv8yxGPEIIWa5dVYGabSH/07btKX49HlAMrh7HMIQQD8gqdh77e+qGiL8ZNFLO0MVfCPEpAJDVqZTuZiCixwYGBk7UnUvKNM0HEPF0TzC9dyJE/GosFvuO90ty78kGljdmbGB545Stl2YDK4mIn4rFYvIzUHuzLOt0ItKxC0tWIX1Q+wQ0DSArNiLi4syxQU2jbJXdhIhnxWKxR3QOokK7LAys8NofHG6EQn9XAWTwS2IaXZgcH9v6giI95TJsYClHyoJMgAkwgUASCLnwyf6xrfILn69atHfBFCBZ7RJVlHcmBPhivK61ZEdoSglXo4E1FQDcUs7N72NnzAiZcP1wlbES0a8dx5EGlpYmhJAVS6WJrLQR0Q2O40gzVWt+WCHEvMEjePLImtIiI9KAcxznGKVQdhBjA8sbXTawvHHK1kungYWIf62oqDh5yZIlG7PFoeLnzc3Nk1OplMzvpKaK8f8HdaFt23eoiLHYGocccsj4iooKab41a955BYh4Q3V1dZuOPGequZWFgRXpWfhdBPqSIjj/TNRGGgHnai1tXEisbGAVQo+vZQJMgAmUDwG/GlhA94WivWtlNUJLCW3E7yZqWy5XohUwESHEtYNG09cVhy2Te0/TnQ9IccxFl8skzJXJhScoHvy7tm1ruZ8zpenXA0CV4piTmaM4McW675PL5HqRnx+jNYy1h23bb2jQ3SrJBpY3smxgeeOUrZdOAwsA5tm2/cNsMaj6uRBiBCI+RkQzVWlmdGRC8u8q1tQuN3369P1CoZAsPLG35sGIiJ7csGHDMaorTOqKO/gG1pt37xYNb3gcUFXJbrgjXts9F7DNt28l2cDS9evAukyACTCBYBHwrYEFAJHe9vbB/FUtioj+N1Hbva+f/zYrmuf7ZDQZWG8Q0dGO40gji9suCDQ1NU13XXeJsoIEmXGI6DOO49yjA7wQ4noAuFq1NhG9NjAw0KD7+OC2uIUQ0sCSuw5Ut5/atn2erl1kbGB5Wy42sLxxytZLo4G1ORQK7bt8+fKebDGo/LlpmncjotKiLUR0reM4bSrj1K0lhNgHEWX+RdVm3s5C70in0x/3c9L2HYMOvIFVse7WA8lw5XbDfRTcTGkCmpusm/9jBVraJNjA0oaWhZkAE2ACgSLgZwOrhhbVx3uT6xQBdRO1kUo/745WNM/3yQghLgWAmxUfHyhqbhNdbHTrNjY2WoZhSCMlpHKscDh8wLJly5TnrstUrXxZ0xv7ouaRaWxsPNIwjCcU3/dyGeOhUGhPXQ/mbGB5+01hA8sbp2y9NBpY19u2rXrnb7bpgGmabYh4TdaOOXQImoElhJCpF2SBHt07ryTFXtd1j+jq6lqVA9KSdw2+gdW74Hhy8beAUKGA5gAZocOSYy7uUqClTYINLG1oWZgJMAEmECgCfjawgNqMaG99NwCMUQEVAS+L17X8QIVWkDSampoOc11XVpRTnZD7fMdx7goSi2LHalnWOUQkk6ErbeFweNSyZcs2KBWV53Ut61QikvmvVHwn3j68RCQSkbvRBlTHPJReOp2WhRvqFI/pIuLnY7GYlpfVbGB5Wy02sLxxytZLk4GVCofDk3WY7NnmY5rmeYh4Z7Z+ufw8SAaWEGIiIv6sSDuv1riue3ZXV1fgKjQG3sCKrmu/Fgw1uSEQ4PV4bctegLJEuX8bG1j+XRuOjAkwASZQTAK+NrAAINrbfhUQ3KCISX+irnWEIq0gyaAQYgsAVCoO+grbtr+tWLOs5DQ9HEpGUR35x4QQMsG6rFqpo5UiN6w0bZU/qyDibSeddNLFbW3q04WwgeXt1mMDyxunbL00fUZ11dTUHNbR0VFUw1rOVQghC2aoKsy2FV9QDKwZM2bUZUx71TkX33cbIeJGwzDmLF++/E/Z7jE//lz5H4ViT7Kip/2vBPAhNePidxN1/k8SywaWmtVmFSbABJhA0An43cCqfPuWj7hp48+KOFMCI2Ogdm6fIr3AyAghNqvOwwQAr9q2vZ+uXECBgbvrQI2Mcah6N5Nj27bQwUcI8WqRjp3oCL+YmutCodBBOo4RsoHlbRnZwPLGKVsvTQbWTxsaGj53//33p7ONr/rnlmXNkgnFVeoGwcCaMWPGAalU6h5EbFI5911o9SBiaywWk7t1fb1pZ1csgm1g0d27RXs3vK1qWz2GwwfER12kPCeB6huRDSzVRFmPCTABJhBMAn43sKI9t0xGwscIUeZ0KLgRwbnJ+lblR7oKDkyzgBDiOQA4UPUw/f39FcVKyq06dt16lmWdQkQPqR7HMIyzOzs7f65a1zTNQxHxHzp2LKmO1Q96iHhGLBb7tepY2MDyRpQNLG+csvXSYWAh4jdjsZgsBFF0c2M4GlhCiHoAkNUGP1iEz++NRHSu4zi/LcX6Zrufvf480AZW9K1bToOwoeqPz8uJutYGr+BK2Y8NrFLS57GZABNgAv4h4HcDC+i+aKRn7WJE+LAiat9J1LV+RZFWYGQsyzqBiP6gOmBEvDEWi31VtW456FmW9RARnaJ6Lq7rTu/q6npata4Q4iUACMT3WNVzz1Ovu6amZm/Vx6TYwPK2GmxgeeOUrZcGA0vmiDs3Fov9LNvYOn4+3AwsIYQ0rX4BAI06eO6g2YuIX4nFYjL3pVuE8bQNEWwDq3vBzwDxbCV0iH6RqJ//aSVamkXYwNIMmOWZABNgAgEh4H8DCzDau+ABADxNCVLCexKvhM8Ha24p8vEomUI+IpnqcnLOqr+3vWHbtqx0VPSjIvlwKNY1jY2NexjG1qOvkxWPKRO3T7FtWx71U9ZM0xSIKKtWKa2WqCxAnwoZhvGRzs7Ov6gMjw0sbzTZwPLGKVsvDQZW0nXdI0uV2Hs4GViZnVfy78w0DX/bd7x13iYiWbhF7ioOtHklJ6b6i1C23zN1P3990YhoRfIZRW+bXCS4JF7fulBdgPqU2MDSx5aVmQATYAJBIuB7A0uWQ+ttP4EIVO0e+k8iZEyD0fPWB2mdVMQqhHgdAJQcxdwuHpmk9wzbtlWtj4qpllxDCHHi4Btx+UVfqSGEiH8kotNt25ZJ+ZU1IcS1gw8lRS95r2wCJRKS1c4mTJjweZW5ftjA8raYbGB545StlwYDK5FKpaY8/fTTL2QbW8fPh4uBZVnWgUT0Gw0vSXa2LH1EdLnjOLLyauDNq0AbWFvzaoDxBAGMU/ALtMkg+NhAfavStzAK4tqpBBtYusiyLhNgAkwgWASCYGDBy3dVRkdu7ldE1o2kUntsHn/ZW4r0AiMjhPhfALhCdcB8jPD9RC3LepiITlbNGgDusG378ypzj8ycObMqmUz+pUhl1zUgKankP0Oh0JEqk7mzgeVtPdnA8sYpWy8dBpbruhO6urrkC5Oit+FgYMlqg6lUajEiWkXYTNRLRBeUy86rbTdkYHdgVaxbcAoZ+EsAqCr8twvfCJHR1F9/8WuFa+lXYANLP2MegQkwASYQBAKBMLDkLqyehS8Q0P4qmCLgsfG6lkdVaAVJQwhxEQDIneKG4ri39PX11a5evTquWDeQck1NTXu7rrtGVYGg7SEg4jmqc8tk4l0NANFAAi9x0JnjUjKBspLGBpY3jGxgeeOUrZcGAyueTCb3Wbly5dpsY+v4ebkbWKZpTgKAPyOirACsu21CxEszOa+KnpBf5+SCa2D1LPwyAdwIQArmQEsTtT2HA7YFYlsdG1g6fyVYmwkwASYQHAJBMbCivbeeDeSqSgr7TKKudWpwVklNpJlkr0sAoFaN4ntUFti2fYkG3cBJmqb5ECIqT96eATHatu0+lVBM07wXET+hUnOYaf3Ztu1jVe2KYwPL293DBpY3Ttl66TCwampq6js6OjZlG1vHz8vZwBJCyBQAsvpfsw52O2h2u657UVdXlxwvEP5GLkwUmD+5DKeub7S3/R4gUJV0/bpEXes16qLTq8QGll6+rM4EmAATCAqBoBhYkfULp6MLjpKXTgipRG1rJChrpDJOIYTcaTNRpWZGy41EIhOfeuqpVzRoB0Yy8/D0OwAYozpoIvqb4zhHqtSdPXt25caNG6UhxruvCgO7r6rE+uVoYAkhvggA3ysM8XuvZgNLDU02sLJzJKJrHcdpy95TXw8hxD4A8CQAyKIpupvMbXmRbdt3qzLmdQecq35wDayehc8B0IG5Tnhn/SkVn54c/yXlJY1VxLYzDTawdJFlXSbABJhAsAgExcCqfHPBBIoYSwhISRJyw4D9Bsa0/jtYq1V4tJZlnUNEPy1caacKCxoaGr6gMqG1pji1yQoh7gGAT+nIS4KIU2Kx2LMqgzdN8zJEvFml5jDV+rZt21eqeNgrUwPregC4WuW9wQaWGppsYGXnWGoDq7GxcV/DMGTao0OzR1twj24ianUc54Fyri4cTANr/c2jo25EUQUifCNR17JHwbdLEQXYwCoibB6KCTABJuBjAkExsIDui0Z7190LQKcpwUl0daJ+/g1KtAImIoRIasrPlE6n0/uUKnlvqZfBNE15LLULEVXnGJNTe7ampqapo6NDvhlX0mbPnh3euHHjTwCUnUZQEldARToqKytPWbJkycZC4y9HA8uyrF8S0VmFstn+ejaw1NBkAys7x1IaWIcccsj4ioqKzmLtvELE82Ox2L3ZqQS7RyANrGhP+5kA8Cs16OkPibr5J6nRKo4KG1jF4cyjMAEmwAT8TiA4BhZhdP3CnwLBZxQxvTNR1/o5RVqBkhFCyKM88kiPjub09/cfuWrVqpLkP9ExIS+aU6dOnRCJROTxDl0vNL9l2/ZVKnb4bJtP5q2+DQB1XubIfYYkIO/3j9i2vaxQTuVoYAkh5CkVpXkH2cAq9E5753o2sLJzLJWBNX369P1DoZDM/VmsnFdf7Orq+kU577zattqBNLAqetpvJ4ALst+yHnqgcVWidp4sTR2YxgZWYJaKA2UCTIAJaCUQGANLJunpXngFICn6e0v3JmpbzwbEsktOmu2GsSzrFCK6X1feI3kkLRaLfUml2ZJtTqX+uRDimwBwhY6jgwCQdF23qaurS2mqisbGxk8ahiEfVripIXClbdvfKlSqTA0sWZFubKFstr+eDSw1NNnAys6xFAbWjBkz6tLp9HIAmKDp78r2E9+MiOfGYrFfD5e/28EzsGhRpKI3+RKpSIKGEMcUnBYf1/pI9tvfPz3YwPLPWnAkTIAJMIFSEgiSgSXzYLkRXKOI17/CbvLoLWO/8IYivcDICCFGAMA/BqsZTdMUdA8inhGLxTo06ftK1rKs04lIGkFaEqETUefEiRNnKs4tZliW9ToRjfcVzGAH01dTU7NXodXXdBhYAHCVbduKzP/cFilTOe0/ABDK7cqhe7OBpYYmG1jZORbbwLIs60DXde9BRCt7dAX36HFd9ytdXV3yOPmweaEXOAOrcv0P93Pd9MrBahg1hS45EqxzKX18cuylcgt2YBobWIFZKg6UCTABJqCVQJAMLKC2cLS3XuZvUtAoBUDTEnWXrFIgFjgJIcTHMuW4dcW+PhQKieXLl7+sawA/6DY1NX3Idd0/AkCVrnjS6fSEFStWKK3uaJrmyYj4UBHe7OvC4ktdIjrbcZyfFxKcJgNrgW3blxQSV77X6jqyzAZWvivy3uvYwMrOsZgGlhCiHgDky5/JRfh83kBE5zqO8+Bw2Xm1bbWDZ2Ctu+VI1zAWK/qy8XwklTpy8/jL3sp++/unBxtY/lkLjoQJMAEmUEoCgTKw5BaXnvbnAEBFBWGCVGp6Yvxl8oXWsGxCCGneHaRr8oi4HBFP7ezsfFPXGKXUbWpqaiCiB4ioUVccRPSw4zinKtY3hBAySa/MB8tNLYEn+/r6PrJ69ep4vrKaDKwHbdv+eL4x5XvdnDlzQmvWrJG7ZvfJV2NX17GBpYYoG1jZORbLwBJCfBAAZLVBXbujt5/sekS8PBaL3TWcdl4F1sCK9Cz4HAIuUrGVFYn+Gq/r+TBgW6C23LGBlf3DinswASbABIYDgcAZWL3tnwACJRVyiKA1Wd+6cDis887maJrmaYgoS2XrehlJiBh7++23jyjkgd6P6yOEmEhEixFxf43xxYnQ8YV2AAAgAElEQVToU47j/EblGNJ4c133zwDQoFKXtbYSeJOIjnUcJ29jXJOBtca27YnFXiMhxOGI2EFESo8PynmwgaVmNdnAys6xGAZWZufVowAwXePf5G2TXQ8A59u2/fBwNK8kBF1ferLfTXn2iPbeegOQKyu5KGj43URdy+UKhIoqwQZWUXHzYEyACTAB3xIImoFV+Xr7vm4FKDpORc8m6uZP8e3iaA5MJomVx9+ISHeejadc1z29q6vrdc1TKop8xgCSOa90V4aS6Slm2rat6NjsO3iEEB8FAJm7VbmpUJQF8PkgRDTXcZzb8g1TGliI+LyG/GS72ba9Jd+48rgOLcu6hoiuyeParJcE2cBCxGtjsVhb1kkWoQMbWNkh6zawpk6demAkEpFHulXsLs82oT4A+LJt23cOV/NKAgqWgUWE0d72ewHwrGyr6+nnhKcn6luUvhnzNG6BndjAKhAgX84EmAATKBMCQTOwdnvr9vHJcFwmBI4UvgSUStTNV6BTeCSlUrAs64xMRUKdIRAAdKXT6dNV53LSGfTOtBsbGy3DMOQXf+3GJxFNK2Qnz67YWJb1BBHN1sDu3wAg3+grNdw0xAmIaMidUpqO0D5z8sknT29ry+90RnNz88hUKiWP9+6pcu5ENNlxnH+p1BxKa+rUqbtFIhFZLGKqjjGDbGABwI9s275YB5dcNdnAyk5Mp4Eld14R0SOZhO26fZXXEfHCWCwm8zYG6vRY9lXKrYdu0LlFk603tRnR3vqlg2+eZmTr6uHnbkUkMn7jyLndHvr6qgsbWL5aDg6GCTABJlAyAkEzsGDdj2uiRv/fMtvsC+VGidpIBeBc3z9wFzrRoa63LGsJER2mc4yM9joiOt1xnL8XYSylQ8hcPi+99NKRiHi3amNhJ4HKo5c3x2KxLymdhHQSpk4dF4lEXgOAsGptAPhFQ0PDOYqrJWoI8x1JIcS3AOCrOgZAxCmxWOzZfLQzVULlZ5zI5/ohrvmGbdtfU6y5SznLsk4ZNGF/CwCGjjEDbmA9atu2NFBL3tjAyr4EugwseRQdAB7XkSNuJ7PqMwzj/M7OzsBtvMm+Qrn3CJiBdV8o2ru2BwBG5T7V913xcqKuNZD5A9jAUrD6LMEEmAATKAMCgTOw6L5QRe9bPyTAC1XgR6QT4rXzZWGXYdtM0zwIEeWX6N2LAOFNRFxQXV19U0dHx0ARxit4iOnTp482DONKRJyr6PtjtpheNwzjo52dnf/M1jHXnwshZM63eble56W/TNgfi8XkDqxANNM0j0BEaRTpaA82NDSckY+ZN2nSpIrRo0c/SETHKQ7saQA4rBjHCKdOnTohGo12ElGd4jm8KxdwA2udbdvjdLHJRZcNrOy0dBhYM2fO3DORSPy6CEfR5QT/i4jnx2Kxx4ZbtcFdrW6gDKyKtT/Yn0KhF7Lfqh56IDyUqG2VZagD19jACtySccBMgAkwAS0EAmdgAWCkp/0mBLhMBRAE+nG8bv4FKrSCrCGEuAUA5hdxDo+6rnt2V1eXfKnoy6MMctfVCy+8sHs4HP4VAMwqEht53PIa27avVz3erFmzagYGBmR5dlO1tjw2GI1GRy1durRfg7Y2SSGE3I22h4YBXhlMlD8rn7xvmcp9PwQAJSb9dnN72zAMWRVUl2m3dahM/O2DCe0v0sC1XAwsSKVSez399NPy/itpYwMrO37FBhaapvlBwzDkUe7x2UcvuMcmRPx0kF4uFDxjDwKBMrAq+2492025P/Mwr+xd0LgqUTvvf7N39F8PNrD8tyYcERNgAkygFAQCaGBBtGfh1wDoOiW8EB5O1LaeqkQrwCJyl1EoFJL5ag4q4jRkPo5bN27ceMvzzz+/sYjjZh2qubl5fCqVuhQAZJ6a0VkvUNQBEX9TXV19VkdHR0qR5LsyQoijAOD3ADBCtTYi3hCLxa5WratbzzTNy+RxTQ3jJDPHde7JR1sIIT/flB/3I6JFjuNoNZYsy/qkHAcAavKZu9drirwDSx4H3dtrbF76EdF5juP8xEtfnX3YwMpOV6WBZVnWIUT0c1254XaYzX/kzuFMziv5coRbhkCgDKyK3vZbibZ+GSm4IeCx8boWWe4ycI0NrMAtGQfMBJgAE9BCIIgGVuXaW45wQ4aqXQSPJOpaT9QCN2CijY2NexiG8TIARIsceoKIPuM4jjxOkS7y2O8ZTu4eeeWVV85xXVfugKkocixvysTiOhK3y3kIIa4d3O32dQ1zkg9Gk23bfk6DtlbJyZMnV1dVVcnqmDrMljts285rF5Vpmpcj4o06Jp9MJsXKlSsdHdqNjY0fMgxDHlPSXhyjWAZWZuei5DVJMbMV0Wj0sFLvWmQDK/uqqjKwMjmvOgFgTPZRC+6xyTCMOZ2dnTJhO7cdCATLwOppf47UlKjsIzd9dHLspbLEceAaG1iBWzIOmAkwASaghUAQDSyghdXRXlK1YydWEYHjNo5slUfZhnszhBCXA4BMbl3sJo2rGBH90nXdP6xYseLFYgaQyQMmd+KdLc2YElXZnmfb9o805SgJCSHWaXpwWlJZWXn8kiVLVP1OFm3phRDSaJGJxnWY2ANVVVV7PPnkk+tznZAQ4lODhoncvaXjOeu/ruue1NXVJXNiKWumaX4YEeXOK9VGz05jLJaBlUmqL3MENiuDJRcWcSMRnWPb9oMqdXPVYgMrOzEVBpZlWY1EJIuAHJJ9xIJ7vIiIn4/FYn/V9Pek4ABLLaDjg1XPnF5fNCJakdyk5o8BvYouHhMf26omn5aeGe9SlQ2sIgPn4ZgAE2ACPiUQTANra0EWVUes1pMROjo55uIuny5RUcOaPXt2eOPGjbHBh/ppRR34/weT+bD6ZVJ5wzCuW758uYxFW2tqajosnU5fh4iHAkCVroppHibwvcHk2l/RlQ/MNM0LEfE2D3Hk0+VHtm3LxPCBPKIihJCVCGVKEOXPNET0P47jfDNXqDIJeiQSWa3rfkTEf1ZXVx/a0dEhn4sKbqZpfjpzfyk/nrqr4IplYE2ePDlaVVX1SwD4eMGg3i/whuu607q6uqS5XJLGBlZ27IUaWE1NTQ2u6z4JAB/IPlrBPWS131Mcx3mqYKUyFlD+Ya+LVcW67x9IRljR9ma0E/HwcbDH3G5d8erUZQNLJ13WZgJMgAkEh0AgDSx5tqt7wZuEqCIBqmsYcNTAmFZVRxKDs/i7iDSz40B+2W70wWTki8LHEHEZALyUTCZfSSaT61atWpXIJTb5EBqNRuURyb0NwziAiORuig8DgCxjXur29xEjRpz+97//XctDrDQlN23aJCvCTdcxUcMwjuns7JTHxgLZTNMUiCjzv+k4OvtmZWXlAfnsTrMsSx4pVfEZt6t1eYOILt+wYcMDq1evjuexeCiEODCTrP3zGQM4D5n8LimWgSWNTcuybiIiJYVDdjJb+Wx6rm3b8jMuW8MZM2bsl0qlTo1EIncuW7ZsQ7YLsv2cDaxshAAKMbBmzJgxIZ1O/w4ADs4+UuE9EPE7sVhMmvKBfKFQOAFvCoExsCq72492EZT8gSWCPyfruk8AbFP1BtgbbUW92MBSBJJlmAATYAIBJxBUAyva0y6rtClIGo1kGHjUwJh5cqs9twyBpqamJiL6KxHJXUklb4iYJiK5W0T+k0fVnkfE5wHgjXQ6/Z9wONznuu7WI2xEJKvKRRBxd0Q8wHXdDyLivgCwWyaBucx3ZJR8Uu8EkEyn0wesWLHiFV3xCCEOzyRvH6VjjHHjxlUuXrw4HwNERzj5aBqmab6EiPvlc3GWa+KIeGY+FcCEEPfJon4aYtpeUu52fC6VSl29//77/+n+++/3lIOuubl5ZCqVkknmPw0Au+vYvZZt3kU0sGT+uCsyu/SyhZXPz6XR0IuIPw6FQjctW7bsrZ2JNDY2jkXESxHxHHkUmIhOcBzn7/kMuP01bGBlJ1iIgdXU1PQheSweAKqzj6Skh/w7+KYSpSKIENEXHceRxUWK2gJjYEV62s9HgB+roEMAtyXrWueq0CqFBhtYpaDOYzIBJsAE/EcgqAZWxVuLJlI4KY/YFNzQME6Nj5n3cMFCZSZgmuZJiHgnAIwts6n5ZTqyCuOxsVhMVjjT1oQQspqirLSn4zv7lbZtlyJnmlJeQojPAsBdmhjJ46FfzjXgzLEjadKGc702z/7y8/QxwzCWp9Pp10OhUH86nd660zEUCkVd15XG7wcH+xyOiMcRUWWe4yi5rJgGVuaIpKxir+N3aHse0qBfMZiLT66FNCLk2tcBwP6Z3HzbCktI0+sa27bli5yCGhtY2fEFzMDKPiEf9Rh8EfXJWCwmj+gWten+RVY2mWhPu7rqK0RfTdTP11IdRNmEhxBiA6sYlHkMJsAEmID/CQTVwIKnv7NbdK8qJflbkPBH8foWJRWK/b/iuUVomuZ5iHjrYGL3kj6s5hZ1YHp/3LZtaZzKvF/amhBCGmQ6jq/IuMfbth3IdBo7AJdJ7uU8RmtYiFdPPvnkCW1tbTmv86CxJquC6tgZlm2ackddAhGTgw/v8llPGilyN2axzLRs8UExDayMmSgLS/hl56bk84ht2wUXH2ADK+utVtARwhLswMo+IR/1YANrqMWgNiPSO/ZWBFKza4rgtER9q6xaEsjGBlYgl42DZgJMgAkoJxBYAyu2KBKdkBxQ80CBryTqWiYoh1smgkKILw5OpQ0A5A4MboUTeFtWH3McR+ZF0dpk2XZ51JKIQqoHQsTF1dXVp3R0dAQyncaOPEzTvHfwON0nVHPK6B1h27bMK5dTE0LI3W0yuX9gNgzkNMECOhfTwJJhCiHkrig/5MzbRi2eTqd3X7FixdsFYJTzekZxZbx4TU1NvaoCAbnOzbKsWUSU8+/aUOPwDqxcV8F7fzawhmL14i0V0Vr8BQCe5h3pED2JDkrUz1eUEF5JRDmJsIGVEy7uzASYABMoWwKBNbCozajorXuZAPcpfHEolaibHylcp3wVhBAXZI6hFSuPR7nCTBDR5xzH+YXunVeZh+7HAeAoTTDlEabrNGkXXdayrM8R0SJ5Yk7D4P+qqamZmqvZZ1nWqUT0K1m3QkNMgZYstoFlmuZViHiDn6ARUavjOAsLiYkNrOz02MDKzijfHmxgDWmdLhpR0ZtcTAAfyhfwdtelE7XdUcDctwIrGFuJBBtYSjCyCBNgAkwg8ASCa2ARRnvaHwBU8mLKTdS16nhoDfz9sf0EhBBfknlXeCdW3su6Pp1On71ixYpH8lbI4cKZM2fumUgk/jloPCpP3o6IA67rHu44jp1DSL7uaprmQYgok2LLnEOqm+u67pSurq5VuQgLIaSxLnfIyGp/3LYjUGwDSw4thOgDgJE+Wog3BnO37WvbdjLfmNjAyk6ODazsjPLtwQbWUOR6F42KUvKpTPLBfBlvvQ4BX4zXtRxQkEiJL2YDq8QLwMMzASbABHxCILAGlqx5r6wSIUBiQ3cVTGiTRxK5DUHANM3TEPEWANiTQeVEoJuIznYc5085XVVAZ8uy5hKRzF+mI2/Pm/39/fuuWrVqa5LvMmkohPgHAByqaT7X27YtDeCcytubpnmyYRi/1XEMVNM8iyJbCgPLsqx7iUjXMdN8uLmIaMVisa58LpbXsIGVnRwbWNkZ5duDDayhyG1or4sm6QUArM0X8P9fh4sTdS0nFK5TOgU2sErHnkdmAkyACfiJQKANrN4F/wOE31DBM5Siw/vHz1+iQqvcNYQQJgD8JbOzh3PzDL3g0qyQuXMOK3Kyc2nG/BwAPqnjfpQP8Y7jyKNtZdWEEB8DgN9oyjn155qaGpkzLGejXAixbDBp94wAw5a/B/KfMjO1FAaWaZpnIaKsRuinI+dX2bb9v/neG2xgZSfHBlZ2Rvn2YANrCHJVvT/YJ03hNQCFJ7FEglvi9a2yJHFgGxtYgV06DpwJMAEmoJRAoA2s7vYrAeGbaoBgW6KuRVYr5uaBQKYq100AcKqH7sO2CxHdM1jJ7X9s2361mBAmT54craqq6gEAHTnLEslksnblypWbizmnYo0lhHgLAMZpGC8VCoUOXr58+Qu5amdyYUlDcrdcr/VJ/wcypvcPVcVTCgOrubl5ZCqV6gCARlXzUKAj2X4q32OEbGBlXwE2sLIzyrcHG1hDkAv3LjzcIJLn2gtuRgjmDoxuva1goRIKsIFVQvg8NBNgAkzARwSCbGBVdC+YR4gLVLzVR8An43UtR/hoaQIRihBCJvH+WiCCLW6QCUT8UiwWay/usO+MJoSQOzKu0DT27bZtf16TdsllhRDfAwBZeVNHu8O27QvzERZCPAEAs/O5tsTXyGOm42zb7hNC5HR8cqi4S2FgyXgaGxsnG4axUlOy/5yXChF7iahB8s35Yj5C6AkZG1ieMOXViQ2sIbBFuts/gwh350V2h4sMw5g9MGbeX1VolUqDDaxSkedxmQATYAL+IhBoA6un/RgCfBiAKhVQ/UeirnWWAp1hJTFnzpzQSy+9dIphGF8nounDavI7n6x8QJdHUWW+o8eKUWlwxzBmzpxZlUgk1mrafeUCQKtt28p20vjtnpE5pxDxfl2V/1zXHdfV1bUu13k3NzfvlUql5PNHQ67XlrD/60R0vOM40vCRxmrgDSw5D9M0bxo0ji7xkYl1YiwWy6s4BO/Ayv7bwQZWdkb59mADawhy0XXt14IBX88X7rvXEcQBsDFR3/KvgrVKKMAGVgnh89BMgAkwAR8RCLKBVfnmggluBJ9WUxWPnkrUzZ/po6UJVCizZs2qGRgY+DYAzFWxIy5Qk98uWCJqGzly5Pc6Ojo2lWoOQojPAsBPNI2/DhGPiMViz2vSL7msEOIDACBPbUzUFMyXbNuWx29zbqZpHouIMkfXiJwvLv4FKSKa5zjO7duGLhcDa+rUqeMikYg0Ez9YfKzvHxEROwcNrLxypLGBlX0F2cDKzijfHmxgDWVgdS/8GSCdnS/cbdchQDek3EPj4y95qVCtUl7PBlYp6fPYTIAJMAH/EAiygQW0KBLtTcp8NWMUEF2WqGvVVX1MQXjBkMjsXpHHrw4HgHAwolYS5SOGYdzQ2dkpq9iVrMkdcWvWrJHHai/WFMTTNTU1VkdHR0qTvi9kTdN8GBFP1hTMQzU1NZ/IJ5l7Zsfj1Ygoj+2GNMWnQlYmqv9+TU3N17a/V8rFwJKAZDELRHyAiCaoAFaoRr5HKtnAyk6eDazsjPLtwQbWEOQiPQv/hkAqclu8EgL8UH9dy3/yXSg/XMcGlh9WgWNgAkyACZSeQLANrPtC0d618iiOAgOLnk1g9HConZtXHpHSr6R/IhBCjELEE4hI7sja2z+RaYnkOdd1544YMaJryZIlG7WMkIPolClTxkSjUXlca68cLsul68dt234wlwuC2Nc0zUMRcamm2N82DEN0dnauyUc/k6D/q4NV/a7xqYklc179T0NDw833339/evs5lpOBJedlmuYRiCirccpde6VuLbZt35prEGxgZSfGBlZ2Rvn2YANrCHLR7vY3AGH3fOFud93KSCr10c3jL5NvfAPb2MAK7NJx4EyACTABpQSCbWC1GdH19euAoLZwKPiKEcKjB0bPy+uhsvDxy09BCFEPAF8CgI8DwCSfPmznA14+lK8CgHuj0eiipUuX9uYjouOaxsbGIw3DeFzTMc5N0Wh03NKlS/t1xO43Tcuy/kNEWoxARPxcLBa7M985Z/KcXQ8AMg9TJF8d1dch4ltE9J2Ghobv72heybHKzcCSczJN8zhElMcktdwrOazRA/39/Z9etWqVNBA9NzawsqNiAys7o3x7sIG1K3LvHDGQW1mNfOFuuw4BnowbyZNhzBfeLlSrlNezgVVK+jw2E2ACTMA/BAJtYAFAtKe9B0CFgQXrQwAn9te16tp14Z9FL3IkQoh9AOCjRPQVRNy/yMMrHQ4RV6TT6ZsMw3jMtu03lIorEBNCyBytWvLyIOL3Y7HYFxSEGQgJIYQ8pierbOpoa/v7+/fO1WzYPpDZs2dXbty48TQAkJUuFexCLXiaLxqGcWFnZ+ffBneH7TRZezkaWJKaZVkzBs3OOwBgSsEU8xd4LhwOz162bFlOmyzYwMoOnA2s7Izy7cEG1i7IVW/84bhEIp3TL/OuFwEXJ+LhM2CPuVvyXSg/XMcGlh9WgWNgAkyACZSeQOANrN4FvwfCExWQTCIaH4/XzvuDAi2W2AmBzNGnTyJiSyZvjNyhFYQmv0Oudl33ZsMwHrZtO+nHoC3LOoSI5PFB1BCfzHn1Kdu2ZXW+YdGampoOc133UQDYTceEZVXzzs7OgquaCyFkvjlpYh0kPX0dsWbR7JOJ5UOh0GXLli3bMFTfcjWw5Jybmpp2T6fTixDxw5oqgGZdWkQ8KhaLdWTtuF0HNrCy02IDKzujfHuwgbULctHuBR8ERFVVA3+ZqB13NuCZ7znTne+ileo6NrBKRZ7HZQJMgAn4i0DwDaz2G4DgKgVUCQjPSNS3yApf3DQSmDRpUsWYMWOmptPpWYj4GQCYrmKXvIaQlwDAzw3DWFpfX/+vxYsXxzWMoUzSsqybiegyZYLvFVodDoePWrZs2X816ftONnMEVhpYjZqCu6+mpubTKhLiz5w5szYej5+OiPJY4XhN8b5HdjCRfJqI/mgYxnfWr1//1OrVq7P+fpSzgSXhyM+2UaNGHY+IVxJRkyYzeVfLK4+8nus4jjxC7LmxgZUdFRtY2Rnl24MNrF2QC/csPMwAkl9CCm4IdHu8bv7nCxYqsQAbWCVeAB6eCTABJuATAkE3sCrX/eAo1wjl9IV9F+jZwCrRPdnc3Dw5nU6fS0Sy6ls9IlYTUWWRw5GpJmQSdrmD5OfhcPj2IJk1mep08sF5og5uiLj2pJNO+lVbW5urQ9+vmkIIubtT5m/T0V7v6+t72Ivxk8vgQghZBXQewNbcvyM0mChvE9GLiHi1bduPAYDne0IIcWkucxmqbzgcvivbji9VY+WqI38fX3nllfOJ6Aoikoaijl18cjPFBkT8t+u6Pxo5cuRP86ls2dTUdLbrunW5znFX/QfvixQR3VaqnapCCJlQ/0xV85E6RLTMcZyn8tGcNm3anuFw+JQS7Y7MJ+SiXhMKhRYvX778haIOquFDUXn8FT0LjyOgxUqECb6dqG+9QolWCUXYwCohfB6aCTCBYhHoB4Qhj3sTICFR9gTMRJsBUT7g7rIRQRwBNg09OQJAlDmbhmxI1A+IQ8dOlADAoaueGQZReuj5GZHwY/HRc1/KFpNvf75u0QeiRvL1wuNDAnDnJOrm/7pwLVbIh4DM6bN58+aJ6XT6AMMwDnJddwoiHjxoKMm8WaoNLblbRO7Ol8nYuxDxRdd1X3Ac57ld5e/JZ058DRMoBYHp06ePDoVCMwBA/jsKEZuIqKaAWOTfyX8Q0eOI+I+amhpbxc6xAuIJxKWzZs2qSSQSs4jow67rynWYVmDSfXmU91+I2ElES13XXWEYxirbtgOd2iYQi8lBlhUBHefslQKq7F34aZfoHiWiBF9L1Ld+Q4lWCUXYwCohfB56VwS8vMEjwJ0nBt1OVCYO3Wny0PcM7Hrog5C919Z4aOjx5E8Rvc0vS+wI0A9A3UPdRgToIoB8oB9yTHJpI4KxPouTkiCAN4fsY4BruPgWGjhk5RsX3LeNMA6ZH2NrzKnw0EdUKEX9W+LdsPcXh0UlLP7IyEKA7qqM9m5WdC/QGWxg+e+Omz17dnjDhg2TAaAZEQ9ExP2ISO6K2TPzVntX30XlZ6A0eWXhHWlU/ZOIng+Hw13Lly9/0dPfCv/h4IiYQF4EhBDNAHCEPBKJiAcQkTSG5e/Ojr8/hIjy7/6zRCSNko58d5/kFWgZXzRlypQxkUjko4ZhyHWYnlmDqp1Meet3WWmsZ3a7PQsAndXV1X/PZ5dVGSPlqTGBvAj43sCq6F44j5AW5jW7HS5CcufH6y+RiRID3djAKsryyS/OcjfGkCYCAmwGgCEf/EkaKS5lefBHQoRNLoB8O7PLhgSbAYceb+sfTaC+oU0LJNeFLQhDmxYAbj8QZMmLIA0Xd+idJBIkYj9iFi25C8Y1htwpIw2nNG09JjK0dxOlLeiGhi5H7FLSCNGQb76Q0lQJlUPzBID1fW/EYUJbltizRc0/ZwLDjMCLt1REa7P9zntlgnMSdS0PeO3N/UpPIJMYfmcPgGDbtvycz/5Co/TT4AiYQEkIzJ49u3rjxo2h7QevqanZzLurircccpfWwMCAscOISd5VVbw14JGGHwHfG1jR7gVfAcRvK1kahE8malt/qUSrhCKFGFgI0A0w9AM7EG4EhKGPyRAk6Z1dIllcBJLVf4Z+u47YbxCuzWK4pAjpDUylhzSUXCO8FkPRIQ0JIxWP99eGh96VsjWYAzx8cfZQgEbWE5k9ObvW1tpAWQoEzTk4u87W2K/x2C/LR0D2HVPZ7gD+ORNgAkxg1wRoUSTamxzaaPbKD40rErXz1Hxf8Dom92MCTIAJMAEmwASYABMoGgH/G1i97d8Cgq+qIIKIp8RrW36nQqukGv+5qWrkyJHveWMZHrkl1YuXZN2VUtK4eXAmwASYABNgAtsToPtC0d61Q+489QyM6MZE/Xwl3xc8j8kdmQATYAJMgAkwASbABIpGwPcGVkX3goWEKKtxFNyMEB09MHq+impHBcfCAkyACTABJsAEmABAtKfd447RLLQQfpGobf00M2UCTIAJMAEmwASYABMoTwK+N7CiPe0/AYDPKsGPxrRE7byVSrRYhAkwASbABJgAEyiYQLS7XVacLLhKHRE8nqxvPbrggFiACTABJsAEmAATYAJMwJcE/G1gPdEWjk4dew8AnaWCHobDB8RHXSQr13BjAkyACTABJsAEfECgoqf9JQJoUBDKykRdqyxzzo0JMAEmwASYABNgAkygDAn428B6J7nrLwZLwZ6hgn00GRq/afeLhwJg2mgAACAASURBVE4WrmIg1mACTIAJMAEmwAQ8EYj2tK8AgIKNJyR6K14/f3dPg3InJsAEmAATYAJMgAkwgcAR8LmBdVdltGfzfYBwsgqy1eCO6q3jROcqWLIGE2ACTIAJMAEVBKI97X8AgBMUaCUTda1RBToswQSYABNgAkyACTABJuBDAj43sBaNiPYmfw0Ax6lgl6hr9fd8VUySNZgAE2ACTIAJBIhAtLv9QUA4teCQEZKJWjawCubIAkyACTABJsAEmAAT8CkBfxs6xAaWT+8bDosJMAEmwASYgBICFd0LFhBia8FiCKlEbWukYB0WYAJMgAkwASbABJgAE/AlAX8bWL2LRlVA6iEiOrJQegjQHa9rHVuoDl/PBJgAE2ACTIAJqCNQ0b3g+4R4acGKbGAVjJAFmAATYAJMgAkwASbgZwL+NrBevnl0xcjwwwR4RKEQkej1eP38PQvV4euZABNgAkyACTABdQQqetpvJIDLC1ZkA6tghCzABJgAE2ACTIAJMAE/E2ADy8+rw7ExASbABJgAEyhzApHehfOQaGHB00RMJ2pbwgXrsAATYAJMgAkwASbABJiALwmwgeXLZeGgmAATYAJMgAkMDwJsYA2PdeZZMgEmwASYABNgAkygUALDxsAChJcTta0NhQLj65kAE2ACTIAJMAF1BNjAUseSlZgAE2ACTIAJMAEmUM4E/G1g9d1RG00NPAIAzQoWIZaoa21SoMMSTIAJMAEmwASYgCICbGApAskyTIAJMAEmwASYABMocwK+NrBqNiyqjyeSfwIEU8E6sIGlACJLMAEmwASYABNQSYANLJU0WYsJMAEmwASYABNgAuVLgA2s8l1bnhkTYAJMgAkwAd8TYAPL90vEATIBJsAEmAATYAJMwBcE2MDyxTJwEEyACTABJsAEhicBNrCG57rzrJkAE2ACTIAJMAEmkCsBXxtY8PLNoytGhh8mwCNyndhO+q9M1LVOU6DDEkyACTABJsAEmIAiAmxgKQLJMkyACTABJsAEmAATKHMCw8bAQoDX4nWte5X5evL0mAATYAJMIAsBIsIv3wt1KYDQUF2TBvwfe2cCHldVvvH3u3Nn0o2WJmmLbCKKAv4BUUEUBdmKoCAiZVNAUFtLkrJD27mTnMyStoBU2gRpQcGFLWVRVBQUERFBWW2htOxQ6JqktDRtMsv9/r1pQcCSzL1zZubeyXeeh+fheXK+93znd26Tmfee851qthHur49hwDRt1PTXJxeCwYzRZMPsrx8TRhkGhvTbxwYxYew7fQzgprmn0n+CvOhiYAV59SR3ISAEhIAQEAJCQAiUjsDgMbCYl/fWNuxUOrQykhAQAjoITJzH4R1Ho9/fVZ0jQLkN/RsNTi6RMMzejf1rmWGYRhZGv8aGCUJu4PGMEEyy+9eygdCAfQzQQEaKk284hBrkUNVf7raB7Yiw3QBrE2IbOwy4fgbGYACDhwjDmLF9v1oEA4wd+l+ZPoUxYEQG0HLmXz1g7hXSgXM4re07dGuQpyMGVpBXT3IXAkJACAgBISAEhEDpCIiBVTrWMpIQeJfABe08NLsBI/pDEhoFM8sYZWf7/1pPOYwZEC2hyjD6Ny3YMVIco4H7N1xAqGEaICf0mQwj+8vLGQ/U16ffXTDEGMYYMCfHcBraLwfuy3loHvMbQgPk1JcPY9iA3J3xHHOmn0aEqgHNqS288xkvj5SkSyURqAQDK9LZFgc4VvC6ELLp6vp+d8wVPIYICAEhIASEgBAQAkJACJSNgL8NrK55o6o4czcDhxRKiJhX9NY27Fiojh/iG+ZwVWg7DB1gTwOcnSY56t8ccOYzcgiMTM8AhkQVjGx6gD6EoQajdiBGWWBHMj78S71tg0IGRoMxvD8tm1FlvOcozYf1ZcJHMMDRHSKMYh7A4CFEiDFuoPmRgR2Y+z8qNJCG/FwICAEhkA+BSjCwqjrm/oSJzstnvv32EQOrYIQiIASEgBAQAkJACAgBPxPwt4G1um1EOMR3EnBUwRAJvenq+n5rixQ8RokE6m7lHxiA82G/350dzokiprx2pTg7gT70WWCADMJQMWVKtMAyjBAQAkIgTwJiYL0HlBhYeT410k0ICAEhIASEgBAQAsEk4G8Di+cNi3Rl7gDwNR140zX1/p5vnpOsv42bwFB5dpduQkAICAEhUKEEKsHAinS2/hzA2YUvEWfTNQ1yhLBwkKIgBISAEBACQkAICAFfEvC3ocNXDY10RW4HcKwOeun1w4fiY2f36NAqp4YYWOWkL2MLASEgBPxDoEIMrD9o+jufSdfU91/k3z9LJ5kIASEgBISAEBACQkAIuCTgcwNrXjjSlbkFwLddzmub3SOZTeM27HDJah1a5dQQA6uc9GVsISAEhIB/CFSGgdV2L8DjNVAVA0sDRJEQAkJACAgBISAEhIBfCfjbwHp8XjjysexNAE/QATDUQ7tu2qlumQ6tcmqIgVVO+jK2EBACQsA/BCrEwHoe4D00UF2SrqnfS4OOSAgBISAEhIAQEAJCQAj4kIC/DSwGRda23QjmMzWx+790Tf2zmrTKJiMGVtnQy8BCQAgIAV8RqAQDq6qrdTUzxmgAuzBdU7+fBh2REAJCQAgIASEgBISAEPAhAX8bWACqOtuuZ/D3dbBjxkGZ2vp/6dAqp4YYWOWkL2MLASEgBPxDoBIMrEhnK2sievvml1RadmxryqdoMkrN2C2bzX62aANoEDYMu9e2jV4ifpuZ1tu20ZVKTV9NRLrWW0OWIiEEhIAQEAJCQAgEiYDvDaxwZ+uPCbhQB1QCxvfW1P9Zh1Y5NcTAKid9GVsICAEh4B8CgTewWBmRrtqcDqLMdG2mtm6yDi2/a1hW4ocAz/d3npQBOAtgE4CNRNjAjHUAPQrgL9XVw++/8MILnZ9JEwJCQAgIASEgBIRAXgR8b2BFOucqgJryms1AnWz79PSYKU5R+EA3MbACvXySvBAQAkJAG4HgG1jtoUjXasfkKLwxW+nahlThQv5XCIaBNSDH9QD/ATBuN83ck0qp1wDI7qwBsUkHISAEhIAQEAKDl4DvDayqztYLGfixjiViG5MyY+p9/sZy4JmKgTUwI+khBISAEBgMBAJvYD2rIpEdant1rBUzzszU1v9Kh5bfNSrEwHoHc5aZXzUM+ieAKxOJxkV+5y/5CQEhIASEgBAQAuUh4HsDK9zRehYRbtSBh0AX9tbUzdahVU4NMbDKSV/GFgJCQAj4h0DgDaxlVw2NDIts1EOUJqRr6m7Xo+VvlQozsD4Am6/L5fjKGTPUC7Ijy9/PoWQnBISAEBACQqDUBHxvYEU65p4Aoru0gGFOpWsbLC1aZRQRA6uM8GVoISAEhICPCATewOJ5wyJdme7CkTqFwe0J6ZqGOwrX8r9CZRtYffyXA3QXM81Ipaw3/b8ikqEQEAJCQAgIASFQCgK+N7CGrJlzqG0Yf9MBg5iv7q1tOF+HVjk1xMAqJ30ZWwgIASHgHwJBN7CGdrR+IUdwinoX2IjBOCldW3dngUKBCB8EBtY76/ACQN80zdwLSik9tdICscKSpBAQAkJACAgBIbAtAr43sMJrr92P7OzTWpaPcVO6puNMkLK16JVJRAysMoGXYYWAEBACPiMQdAMr3NE6mQjXaMDKYBIDSwNIH0rkiOwrNm0anrzyyks07Nbz4QwlJSEgBISAEBACQiAvAr43sIZ2zds1xxnnZhoNje5MV685DaTSGsTKJiEGVtnQy8BCQAgIAV8RCLqBNaSz9RYbOFUDVHvLDqx6PSUHNCRUTIlBtAPrXYy2jUc6Ot44dP78+ZlishVtISAEhIAQEAJCwL8EfG9gYeUVwyPhoRt0ICSiB3o5dwJqpqzXoVcuDTGwykVexhUCQkAI+ItA0A2sSGfbYoD3KpwqvW0Y9vE9oxu0lBwoPJ/iKgxGA2sr0adyOfv0GTPUkuISFnUhIASEgBAQAkLAjwT8b2ABiHS2OgbWcA0AH6sK45i3R9Z3atAqm4QYWGVDLwMLASEgBHxFINAGFjNFuto6AFRrgPomYI9P10xZrEHL9xKD2MBy1qYToIOTydhS3y+UJCgEhIAQEAJCQAhoJRAUA+sZAJ8ufOa01LTtwzeOaVheuFb5FMTAKh97GVkICAEh4CcCgTaw2ttDkSNXrwZrMbCWRCKhQzdsN3m1n9anWLkMcgPLwfqabdsntLQoPTVSi7VQoisEhIAQEAJCQAhoJRAMA6tj7m9BdHzhM+cVhmF+qWf05FcL1yqfghhY5WMvIwsBISAE/EQg0AYWP2BGup51DKfRhTOlx9LVaw4K+iUt+XIQA6uP1DLbDh3Q0hJdlS836ScEhIAQEAJCQAgEm0AgDKxwZ+tsAs7XgHoDhfG53pH1z2vQKpuEGFhlQy8DCwEhIAR8RSDQBlbnnJERGM4lLdsXDpUeTdfUfbFwnWAoiIH17jotYjaOSaWsN4OxcpKlEBACQkAICAEhUAiBQBhYVR2tU5hwdSET3RrLHDIOyGx/7hMatMomIQZW2dDLwEJACAgBXxEIsoEV7mg7gIidouvDNEB9JF1T/yUNOoGQKMzAonnMXNRaYUQ0lIh3ZcauAD4DYOcigbUBuiWZjJ0BgIs0hsgKASEgBISAEBACPiEQCAMrtHruMaEQ3aOJ2Snpmvp2TVplkREDqyzYZVAhIASEgO8IBNnAiqyZ8x0YdCNAZqFgifD33ur6QwvVCUp8gQbW15PJmK7PVHkhU2rGbtls+psATgVoDwA1eQXm3YknJhKN1xORmFh5M5OOQkAICAEhIASCRyAQBlakY96eoMxzmvA2pWvq45q0yiIjBlZZsMugQkAICAHfEQi0gdU191IwzdIBlcHXZWoaJurQCoJG0Aysd5hOnDgxPG7czp9h5jMA+iGAIXp4UzczHZtKWX/XoycqQkAICAEhIASEgB8JBMLAGrFizph0xHAKr+s4ZnBruqb+ND8uRr45iYGVLynpJwSEgBCobAKBNrA6WqeDkNKyQjZ9Nz2m7iYtWgEQCaqB9V60SqU+k8lkbwBoPyLo+Dx6azIZOx2QXVgBeIQlRSEgBISAEBACngjo+MDgaWBXQW9dMzqSs58C8FFXcdvqzHgsXVt/YME6ZRQQA6uM8GVoISAEhICPCATawOqcGwNIy47oqjBq3x5Z3+mjpSlqKpVgYDmApk1rqTHN7IXMdAHAQwuE5tTD+mYyGft9gToSLgSEgBAQAkJACPiUQDAMLG4bEenivwI4oGCOjLfStfUaruwuOBPPAmJgeUYngUJACAiBiiIQWAOLQVVdbT9l8CQNC2Kna+pDGnQCI1EpBtY7wC0rcRHAMwEUWA+NcqaZG6mU2hiYxZREhYAQEAJCQAgIgbwJBMTAumFIpGvjnQAfk/fM+umYTttj8ZEpa3RolUNDDKxyUJcxhYAQEAL+IxBcA0sZkc7aR0EaXkwRsunq+rD/Vqd4GVWageWQisXiP2LGDADbeydHzMxTUqnGVu8aEikEhIAQEAJCQAj4lUBADCxlRjprfgaiM3WAtA0cmh1dH9hCn2Jg6XgKREMICAEhEHwCwTWw2kORrjUZgAv/HEJIp6vrq4K/mvnPoBINLABkWc3NAMXyJ7HNnr9ft27NSXPnzu0tUEfChYAQEAJCQAgIAZ8RKPyDYykmxKBIV9vlAF+sYzi2MSkzpn6+Dq1yaIiBVQ7qMqYQEAJCwH8EgmtgOTuruzfpIErgP/TWNHxDh1ZQNCrUwOrDb1mJawD8qABzM8ts7J5KWcuCsp6SpxAQAkJACAgBIZAfgWAYWACqOlvPZ2B2ftPqvxcBV/TW1F+qQ6scGmJglYO6jCkEhIAQ8B+BwBpYL8wZGak21ukgyjZPzoxpuFaHVlA0KtnAUkqNzGZDvwP4EO/rwbOTyaYLvcdLpBAQAkJACAgBIeBHAoExsCIdrd8C4U4tEBl3pVs7ToJStha9EouIgVVi4DKcEBACQsCnBIJqYEW6Wk8F45bCsRIbBh3WM/rcBwvXCo5CJRtYzipYVuJEZr6dCJ4/p5qmXaWUSgdnVSVTISAEhIAQEAJCYCACnj8YDCSs++fhNVd/jozQ4zp0CXi41+4+BmMue1uHXqk1xMAqNXEZTwgIASHgTwKBNbA62x4G+EsaqLJh24f1jJkiBlbeMOnryWTsnry7l6GjUsrI5eg+ZjrC6/DMxgGplKXlc6PXHCROCAgBISAEhIAQ0EsgMAYW3p4zJpI2VmuZPmNpyMiN31R93uta9EosIgZWiYHLcEJACAgBnxIIpIGlNt9A2FCb04KU0WsTDsvW1D+iRS8gIpW+A8tZBqXaRmSznc6N0UO8LIth0I/j8ZiW2qlexpcYISAEhIAQEAJCQD+B4BhYrIxwZ80aIqouFAMzVpMROiJdPfmZQrXKES8GVjmoy5hCQAgIAf8RCKSB9fi8cORjGU1Hu+gFwzDG94ye/Kr/Vqd4GQ0GA2vChPbQnnsuvZWZT/JGkn5hmrlzVEDLRXibs0QJASEgBISAEKhsAsExsABEutruBvNxhS8Jp20yjshW1/2jcK3SK4iBVXrmMqIQEAJCwI8EgmhgDVnx093sSO4VHTwJuL+3euyxoJM1GWI6siq+xmAwsByKsVjyYmZ2bqF2/XmVCHeNGbP9aVOmTOkt/orICEJACAgBISAEhEApCLj+QFCKpD5sjEjH3EtBNEtHDgx8P1NT/3MdWqXWEAOr1MRlPCEgBISAPwkE0sBa0zrRNjBPC1HG79O19RpebGnJpmQig8fAih/KjPucd5ge4D7b02MffuWVSk/5CQ8JSIgQEAJCQAgIASGgl0CgDKwha+Z+1TboAR0ICHRdb03dRB1apdYQA6vUxGU8ISAEhIA/CQTRwAp3zr2KQBfoIcp3pmsavq1HKzgqg8XAam9vDy1c+FwXQCM9rM4GgPZNJmNadvt5GF9ChIAQEAJCQAgIAc0EAmVgjVndNmKdyR1gVBXMgfFYurb+wIJ1yiAgBlYZoMuQQkAICAEfEgicgcWgcGfrT4gwRQdOZtRnauvbdGgFSWOwGFjOmlhWfBWAsV7WJ5ez95oxQy3xEisxQkAICAEhIASEgP8IBMrAAm++uahzzBIQ71E4SupJz10zHAEs7ikGVuGrLwpCQAgIgUogEDgD6xU1JLJd7QIQvqGDfyRij92w3RTnprpB1QaZgfUGgJ28LLBpmp9WavpiL7ESIwSEgBAQAkJACPiPQMAMLKZI1zV/APgYHSiZ6cBMbd1jOrRKqSEGVilpy1hCQAgIAf8SCJyBtfzK2siQIUvAqNFANZeuqTc16AROYpAZWK8B2NXLIhHh/xKJxme9xJYz5uKLrxg+YkT3R4DwiPfnYWzo7eW1L7741FsLFizIlTPHbY2tlDLS6fC4UCi3AzONY7ZrABpuGBjG/N9C/ETUncuhxzSNt3M5dBLxqu7urtdnz569yW9zknyEgBAQAkLAXwQCZmCBwmtbryZGgxaMRJelq+su16JVQhExsEoIW4YSAkJACPiYQNAMrKEbf7pTblPO2VFTeCPqTVfXDSlcKHgKYmDlt2ZBMrCi0eRHAfsMIue2bdoXgPEhs7QBWgfwU0S4PxQK367UtFfzI6K/17RpLWMMI3MsYBxjGHwUM4YDcL5fGACRc4MkM8j5v/c0dv6fGUxEdt//AVkAi4hwbygUuqOpafoiIurrJ00ICAEhIASEwDsEgmVgAaha03ohG7hy6x/HQleyPV1Tf0qhIqWOFwOr1MRlPCEgBISAPwkEzcAKd8w5kMj4lw6axHxtb23DZB1aQdMYZAbWMgA7e1kjt0cIlVLDMhlztNuxcrnQxpkzp611Gzd1avyAUMg4isg+AcD+AFzvKNxiArGzy+xe0+TrlSpuza9UKvWRTZvsLxDxV5jh/PcZIoTdzn3g/rwcMB4E8KBpGo8AmcVKKcfkKlm77LLLRpnmdh/YBZf/8LZtpFtapnX4yYjz+oy/d9bOvKqq0p1qcxkWpVR1JmMOzZ/K+3umUtZyx8v0Gl+OOKXU9pmM6Ri1nlo4nF2jlEp7CpYgISAE+t6QBKpFOuaeAKLbPF6p/P65Ep5OZ+krGFu3IUgQxMAK0mpJrkJACAiB4hEImoEV6Wq7FcxaXhyxzQdkxjQ8Xjy6/lUeZAbWSgDjvK0G7Z1Mxp7LNzYabf4WEV3Tz+6nbUox4/ZUqrEu/3GiHzWMqp8y40sAtnM73oeNY5r2F5RS/843Dzf9Zs6cOWrDhkwz0Pfvd3sApdr9mANoPcD/2byjqzmRsB4slSFkWYlPAXw/4NmgSwN0iJ9uwozF4lOYMb2wjQB8l2lyvWMoWlbzTIDOdvMsvbevaZqHBalOnXMUtrExcSMzvuZ1zrbds29LS4tzOYU0ISAEPBAInoHV2fppAI8C8PxG5D2cllEYR/aOrH/eA7uyhYiBVTb0MrAQEAJCwFcEAmVgORexdNXqqttjA9g3XVMfuPpGOh6gwWJgTZgwIfSpT+3TsdUwcYmOegF8OpmMvZRvYCwWP9W28WsihPKN2drv18lk4xkDxVhWYg/A/j5ATimMYQP1d/nzrGna2ymlelzGfWj39vb20FNPLfm8aeJ0Zj4XINc7xHTlslUnS4SHmKk1mzUf8LLrzU0+8+bNCy9btnouwJPcxL23LxEWhUL24Uop5zkua3OOqRqG/U9m7FhAIktN0z5EKbXa0YjF4vtvNnOc72URj5p/NU376FLvrvOYK6ZNU3uGQsZ9AHbxokFECxKJ2MleYiVGCAiBLQQCZ2CBfzk80rXeqZ/hvP0psNHbhmEf3zO64W8FCpU0XAyskuKWwYSAEBACviUQLAOrPRLpWu2YCgU3BjqNkP2F3u2n5G1OFDyojwQGi4E1fXrqM4aRe8TLbh8ivJzLhb7c0hJdke/SFdPAsqzE2YCtmGkXIv2fv5ntn6RS6oJ85zpQP+doWDYbmgPw0QBqB+pf4p87O5ueZKZLUinrH8UcWyk1Nps1lgBwfbT0nbyIMCcUsi8qp0mzxYxb+W+APlMAr7eYjeM+yDwajd9DBE8XbDEjYxj4XCLRuKiAvEoWGovFv8uMX3jZNcmMXoDPSKWaFpQsYRlICFQggeAZWM4+3o7W+4lwuIb1YDboe5nRdb/UoFUyCTGwSoZaBhICQkAI+JpAkAysSOfcbwN0uw6gDPw5k6MTg1YCQMfcHY3BYmDFYvHzbRtXeTR87hs1auiJl1xySXe+3IthYE2fnhpnGHYC4O97+dKbX+7Eppnb4Z1dMfnFbLuXUmpEJmN+i8j+MYAxhWgVP5ZygP0T5tDVqZTl1EorStuyy4juB9iribUeoG8lk7G/FiXBAUSd2yGz2dBlALcUNj7N2nffT0VPPvnk9+2k3bKzkJ/2uquQyJ4ZjzdNL9XRUK8MtnJ8CmDnkgUvzdm99mU/7MbzkrzECAG/EAikgVXV2XohA84f1oIbAdf31tT/sGChEgqIgVVC2DKUEBACQsDHBIJkYFV1tc5jxkQ9OOnGdE2d57orenIon8pgMLC2fll0dgDlXVvq/StCv1q6dOHZCxYsyPvYqm4DKxaLfw6g65jZ2fVSxM/cvHDffff67AeNBbdPqFJq52zW+CmAI73senM7np7+xMz2UiB0aTIZ/X2RTBCyrOZmgKJeTUgivJrNmgfOmDF9jZ5556+ypfB+7jEAO+Uf9cGe/M8RI6qOnTp16roP/sQpDJ/NGndsLvHisS4UPW2auS/qPP7qfZ4fHmlZiWMB3A2w2yPGfaJEuCSRaHS+vwaqaH0xWIqmECiEQBH/mBaSVv+x4VVz9iPTcJz+whvRwnR13X6FC5VOQQys0rGWkYSAEBACfiYQGAOL20ORrtW/BnCqDp5EmNtbXT9Fh1YQNQaJgTUsmw2tBNgpcu6h0bxkMubcUpn3l0WdBlYsFt8HwO3M+KSH5F2FGAan4vEmy1XQBzpPn958hGGQczSqAJOjkAwKjXVqntkXmCb/Siml/XKmLTvT6GEi8rr7xjEw7ho9esR3Lrzwwk2Fzjbf+C3mEj0A0IH5xnywHzNWhMP2QUqp1z9Mw7KaGwCa43UMwD4smVS+LemilDJzOeNuZm9HJYnQFQrZH1NKrffOSCKFgBBwCATSwMIDyqzat3YF6zmTn64Kh3d6e+SkshdXzPeRFAMrX1LSTwgIASFQ2QSCYmCNeHvOmHS6r/BtIfVX3l1MOxQ6Irv95LIcx/HDEzUYDKxYTM1g7jv25OmzKjOflEo1ObtC8m66DKxYLP4FAO3M2DXvwb13dAqbfz+RaPRUDsPZ6ZbJGBc6u0MAjPWehj8iiXDjsGHhC6dNm7ZWd0ZKtXwym80+VACn7lyOvjdjRkzLUeqB5ufcmGdZiUuIaKbXf0d9XxYJdaGQfa1Syrk8Y5tt6tQZo00z8yKA6oHy2vbPeeEuu+zw+UmTJmW8xRc3KhaL78eMewu4EVUlk7Hm4mYp6kJgcBDw9KHAD2iqOlvvY+AoHbmwQWcFqQ6WGFg6Vl00hIAQEALBJxAUAyvSNW8fcGahJuKcrqk3NGkFUqbSDaxoNLoL0ZBXvB7VcRa1unrEMLc7XXQYWEqpHTIZ+h0Rfb5ED9e6YcPMj0+fPr3T7XhbjmnSNMBoLoS123GL3Z8Z92ezkW/PmvW/x90KHTsWi5/DTNcCHPao1WOa9h5KKedCqqI2pdSe2azxAIAdvA7EjAfCYXt8PgXoLav5MsCY4dUsI8JBiUTjv7zmWsy4rb9zr/V4hLSTCEcnEo1PFDNH0RYCg4VAYA2sSGfr5UDf2yINjRaka+oCc6WpGFgallwkhIAQEAIVQCAoBtaQtdccatu2ruMhXema+poKWD7PU6hkA2vOnDlVq1evuwHg0zwDAv0zkbC+7LYekg4Dy7LitwB0itcv8e7nzE+aJh/Q3+6YbWk6R8tyOSNl26gjglczxn26/Y7TegAAIABJREFUpYv4Uzpt//Dyy/UaRZddNnNUOJxpB3h8AVP5SzYbPnnmTP27xN7JaeLEieGxY3f+PYBC8nwqk4kclq8R6ByzzGZDiwHexQsbIlwbCtkN+ZhlXvQLibGs+OMAPudR4z7TtL/p9xpfHucmYUKg5ASCa2B1XfNdsH0jAE+F9D5Aelk6R3sH5TYjMbBK/u9EBhQCQkAI+JJAUAysSGeb84VvghaIhJZ0db1TTHnQtko2sKZNix8cCuHvHnc69D0TpmnvpZRa4vYBKdTAisXiE5kxz+24hfQ3zdD+SkVd1YXdcmwQCaLQtNIZbYXM0lssER5YtuzlY2+88cYebwrbjpo3b1542bJVKwB4MtKZwUQ8OZlsKtaz4hSdT2wtOu916mmATksmY3fmK+AcWYzF4rMA8rrB4Llczjy0HIXu+5tjLBb/IjP+mS+HD/YzDB4fjzf92Wu8xAkBIfB+AoE1sMKdcw4iGPcA8Hql7XtJvMVM4zO1dc4NHb5v9bfyeUS4khmm75OVBIWAEBACQqBoBAJhYG0p4N6r54UTsRGKfLxn+x++UjSoARCuVAPLshJHMvPviVDldRmYsWTkyKoDL7vssrfdahRiYJmmfVk2G/ojwJ6LfLvNF8D6sWO3HztlyhTn31febfr05osMg1oARPIO8tZxPRFWMlMXYKe3SpgADceWOrZOza1i7/66xzTts5VSq71NYdtRjY3Jb9m27RS993jJANYS4ahiHCtTSv1fNtv3HcnTTqgtM+bZpsmXut0NZVmJrwLsmDWevqMQ4ZREorFd51oVorXlmK3h1Fs81JsOPW6auYOVUu88/95kJEoICIF3CQTWwMKGth0ivfzvwn45v8shA6Kz0tV1twTh2Ti3nUeEbFzDwBlByFdyFAJCQAgIgeIQCIKBNXx12w6ZEDu7FQpvhGwkHNppw3aTtX4ZLTyx0ipUooE1dar6RDhsPMiMHQuhSYSrEonGi93cPvjOeIUYWIbBv7Zt+oMeozZfAnRdMhmbmG9vp59lJSYBfE0hO9z6Gc8mwn9yObqNOfS7qqq0c2udU/jb7uys7rsNco89gFdeecUIhXY0RozoHp7J0BcB4xSivh2ankyP/ubv7HYyDPw4kWj0uitom/JbjY3bAJzkhv97+zLzy+Ewf04p9ZZXjW3FWVbc2cH4lQI0/7rvvnuOP/nkk3NuNbbs7qOnvN/WyMuXLn1m1wULFrge222u+fRXSh2YzYbu22zojcqn/wf7eLlMwss4EiMEBhOB4BpYrIyqzpq/MpFHR/wDy0x0ebq67rKgLL5SbHTsiWkALgUwMih5S55CQAgIASGgj0AQDKxIx9wZIJqqY9YE+ktvde/xoNJdQ68jb90aFWZgUTSaPNgw7HnM2LtAVrZth/ZvaYl6ujCgAAPr4a27mQ4oIP91AJzC3l0AvXuDHjOHDQNDmDGSCKOY+3YtjdxyDI0mJ5OxvI+hKaX2zmToD0S0WwF5fjA0CzhHPsnZ8fP7ZDL2vBfz8Iorrhi+bl3PEQBOBPhwTS+o382VCA2hkH2N21ph/XG67LLLRpnmiL8RsdfbVR3D78pEolHL94+tRfkvAoxZBRwNdXaGHZdINDrPtKcWjaovEfUVj/e4w4++nkzGnOep7M2yEhcB7NRd9nJxyLOmWTVeqcuWl30ikoAQqCACwTWwAFR1tl3E4Cv1rAc9mq6p+6IerdKoTJzH4SHVONbOwdlq6/GPRGlyLfYovek0Ojq035hctLSJKFdbPfqBSCS8vmiDiLAQEAIVTyDEmH316fQP306UlRHpqnV2pXxNR44MXJWpqb9Ih1aQNSrJwLKsxNcA/iWAMYWuiW3z3JaWpvO8GCjO2AUYWM4uIw9fcCnDbP/Vto3rq6pyzqmCjQDS69aty7zDYtSoUbRx48aQYYw2hwzpDWcy5lCi7D7MxnHhsHm1UtMX58NNKWVms4ZTF+zj+fTPs88iIkzu7d2w8PLLL9/glft7x2pvbw8tXrx4p1zOaLBtXECkpdatM8TbhsHf1l2LKBaLH8wMp1j69nky+2C3HtMMHaxU9EmP8e+GxWLxA7bm4picnhoRJoVC9vWFGn2W1fwQQF/2kgQz7gqH7VP9cOwuFos/yYz9vcyDCNdsLUrv/H6QJgSEgCYCgTawIh2z9wJFni3gLcN7MXanYe+ImimBMxQabuGvMPUVDd1L03MROBnbtvH8869iyfOvIpfzxa7jfBi+arB9zpt89N+xgAKTdD4Tkz5CQAgIAYfA8A3Xjcv09t4LYD8tRJitdG1DSotWgEUqwcBSSu2cyxmTmeHszvNg/vzPAr60evW4vebPn/Su+eN2iQswsNwO9SZAd5qmMV+p6LM6jJ/+ElBKRXI542pm/Mhtoh/SfxkR5oRCdmsxb1aLxeJf2FzvNQnQYQDruLTpIdO0x+vMecKECaE999wnzkyFFMRfC9AByWTsJa/r4xh/ixY9t4CZvuVNg5wjnu2mmTu9UPPKGd+yEt8H+FqPx0JfB+jIZDL2gre56ImKRtVBRMZD3uZAOdMM7a3UdGdHojQhIAQ0Egi0gYUtb3ZfBPAxHUwY9INMTd3PdGiVUsO59eO8m/EJO4SbN2/f/nwpx/bTWGwzOjrX4rEnnsWmTVovnCnmNNewjUtXLhjv3KgpTQgIASFQUQTM1a2HGCb+AtZUqJl5r3Rtg+vb5SoK6pYvhz8EeL63eZX3eI5SalgmY0w0DExmpo9rMiayAJ+fTDa1eWOyJapEBlY7QI2mmXvJbYFsr3ObPl19xjD6jnR53SX07tDM9CgRzjHN3FIdRsdAc1JKbZ/Nhr7PzAkiDB2o/8A/558lEo0/JOozbLQ0pdSIbDb0Z4AP8ibYl8v1ppn7kVemltWsAMMq4N/TSwAdXYiJ9t65bzWoH2PGDu6Z9PGYlEzGrnMfqy/CshKPeF1TIlwfj8cm6nzO9M1MlIRAsAkE28DqO0bYeh0DP9CxDMz8YKam/jBo/KOmI698Nc6/i7fP9uDnIJwAIPBrm++8P9hv7dr1ePKpxXhrnesLiLwOWVAcA1lias70bLy64+5vBiPpgmYswUJACAwWApG32k5Bjm/VM1/Opmsain1jmZ5Ui6wSJAOroWFOVU1NV00m4xRnN440DHyfGZ/Qi4j+bpq5owo9clRcA6uvrlXKNHNXl8q4chhPnDgvPHbsKqeeUSH1ubC15taNppk7V+cOpnyfg8bG5tOYybmBu6Ai/5v93ywRDk8kGp2dNdra1KlqN9M0nOPcO3kUdeq3Hd/SEnVqP7ky12Kx+H7M+MvWmx29DJ/eXFD+zFSqySlKr601NiZabZvrPAq+aZr2J8rxrDn5RqPq80ShfwLs5W/ORiJ8KZFo/I/HuUuYEBAC/RAIvMkR6Zr7XTA5tRN0zOXt0CZ77007T3GKaAayXdDO1Wkb5xH6Crx7+aUbyHl/MOne3jSeWfwiXnttOZhdfQ4o0/w5DcLtdhgTV/3q6O4yJSHDCgEhIAS0Eoh0tj4O4HM6RAn8x96ahmN1aAVdozADi69gRtG+WBkGVTHTKMB2bu3ajZl2JqJxAH8UwHa62RPx4my256szZsxYU6h2EQ2sl5iNc5LJ6EOl3pERjcYvJqLLCy+3QVMzmfC1s2ZNdYrNl6VFo+oQwLiBCLsXlgDdvnkH2Wk6jcStBdTPA+iqAnJbT4RD3BofsVj8N8x0vPc15tTSpc806b75TylVnc2GXgR4tBcmzMapqZSl1VTLMw+KRuNRIop7ZPon07S/rZRyatpJEwJCQDMBHaaP5pTcyYU75hxIhnEPGDXuIrfRm5CBzSenaxt+U7BWGQX6bij8FC7cbOkppwRJGVMp69BOXazFz72El15ehmw2GCWmCLwwC/PE1bcd4bkOQlmhy+BCQAgIgXcILLtqaGRYRNsH+FAP7bppp7plArjQI4SVRLBvV9PJyWTM2X1ScCuSgbXaKbieSllOkfaStmnTpo0JhYb+ucAadDkipBKJxqaSJv8hg02f3nyEYeBWgGoLyWfrbZVPF6KxrVjLStwP8GFeX6wT4behkO3Uocrndyc1Njafadt0g9fxAP5nLtdzgg4D+EN4tAI415sRxI92d293+OzZpb11Vik1JJcz/llA8fa6RKLxGt3PlugJASGwhUDgDawRK386Nh3OPgBQoVcvOzh481bRVLq6vhHkbvuu3x4opdjs+BSOBWEOAOet56Btb765Ck8vXIKennQAGBAzYRHZdsOK9qP/HoCEJUUhIASEwDYJhDvavkfEzhcrHW1TunrsdqCTg/E2QseM+9EobAdWkZMrnXyO2TgjmYzeqmtXk34Di14j4lMSicZ/lQ7Lf0eaPj1+qmHgV96KUG/RYcbPw2H7AqWUby45mj69+TDDoFsAjCuA66J167Y/YO7cKb0FaPxPqFJqbDZrOIbqPt50nZsp6eJUynI+v/fbtha5dy7JcHY7um7MyBkGDtN9nPK9iTQ2Nh9m2+RsDBjpOkGgk9k+NpVSJTV/nZslbRsPbDZuXZ9kYcbb4bC9m1Kqy8N8JUQICIE8CATewHLmGOlouwvETt2nghsBf+2t7jgapLIFi/lAoP4W/jwM3AXGzj5Ip2wpbNiwCQ8/8hS6u7udD2NBaDlmOn3l3g/fDqXk+t0grJjkKASEwH8JMFOkq8350l5Q3Z3/CtIf0tXnHhfUGpW6Hw0xsChDxN9LJBqdy2u0Nc0GVi+zcVaZjkA55RMoFks4u7kLuOiI/77vvnsdfvLJ/jOOo9H4+ZtNkauIvL+Mt23+WktLk2MAaW3Tp8e/ZxhwLoXyfLtmNpv5/MyZiSc+LDHn1sGFC5feBPApXpLfal6dk0g0OmVYitaUUmY2azgvZL/oZRBmTEulGmd6ifUS4/y7aWpK/tu22eOlWHxuMtn0Uy9jS4wQEAL5EagIAyvc0XrG5vPwun4Bv5WG/VHUTPHNm6b8lvLDe025nfewc/gJM46hCth155WHczPhM8++iNeXrfAqUeq4twiYk4vw5VIXq9ToZTwhIAQKITB81U/GZUzzQQCfKkTn3VimaenaupJ9idGScxFFBrmB5Rxpqx8zZvsbpkzRu3tGp4FFhPiSJYviuusK5ftYWVbiWIB/V4CJstK27WNaWpT2Y3b5zqG/fk5x+jFjVs4jorML0Lt5l13GfW/SpEmZAjT+J3TChAmhPffc5yfMVOft6Jwj6RztC58wY8b0bdZ2s6zmScw018suIUedCL/belRxg865b0srFoufzEy3emSxPJ2u2vPyyy8rySVHsVj8AGY86uXfDRFeDYXsz8nuq2I/UaI/2AlUhIGF164ZHRlha9uqyTZPzoxpuLaSHo6Lf8nDe6twGzO+Xknz8jKX5194tc/ICkZx974PMTdVDY384NUbD+vxMl+JEQJCQAiUmkCkY+4JILodQEjD2Fk2cE5mdL1zFEra5mvUBrGB1ZPL2d+eMUM5N7Vpb7oMLCI8sPlY1hFub5PTOSHLijs34h3sXZPqk8lYm/f44kcqpYZlMsazRNjN42hrmI39UynrTY/x/YZFo81PENFnvWvT1GQyNuuD8bFY/NPMWOjFZNmqxem0vevll6uSXVplWfEXAXzcGws+J5ls0nUcvd8UYrH4DGZM9ZInEa4JhewGJScnvOCTGCGQN4HKMLAAVHW2/omBo/Oeef8dn05X13220o4qfO8BHjJiFSwiTGHWfxOQJvZFl3GMqzfeXIVFi57Hph6tpQ+KkzvBJht/zHFm2qoFX19UnEFEVQgIASGgj0BV59wLuLDbuN6bzNo0hT+G6kllu/1MHxk9SoPUwHodoPNMM3d3sb4g6jCwiPAWEZ8Yjzc9oGe13aso1bJ3Npu9H8AO7qP7dufcv2rVG8fMnz9f684kL7kMFGNZiUkAOwWzPR3XY+aTUqmmOwYax8vPGxubj9ha/2mEl3iAcsz2hFSqyakh1VcA46qrrhra1bXBOTrrtXTKBmY+PZVqcnbnlaxZVvPZAM33Uo/NuWk0nd74pVmzZhX1b8DUqTNGm2bG+XezvwcwWYCOTiZjf/UQKyFCQAi4IFAxBla4o3Wy43y7mHt/XRlh3js9smGJJj3fyExo59BYxlnEfWfzB3Xr7t6ERx59GuvWF333tC7OL1O29+vL7ziu4p5LXYBERwgIAX8QqOpsfYOBnXRkQ6BXe2vqCqjjoyMLf2kMPgOLHmemE1Mpq6i3UOowsAA8Ypr2IUqVr5ZqNJo8BbBvIvKyA5J6bds+rqWlybm90PfNOUo4duwq57nwVNCdCC/G47FP6roI4L3AlFJGLmc0M8PyCpKZFwOhr73z7Bf6jDLj2v3227O+1HXNLCvxcWa+b3PJl93dsmBGNxGdmEzG7nMb66a/UskDs1n7YS8mG0AvmOaX91bqsIqooeyGm/QVAqUmUDkG1uo5+1PIcFzv7XVAJKaG3to65+rXimz1C/gY5DDX+3beysDimFiLnnkeK1augW0Hobo7rzHYqB/FO/5m8YJPB+Faxcp4UGQWQkAI5E+ge+6OkR7SdiSHyDi2t/rcP+afQOX3HDwGFnUCuNU0c0op1VHslS3UHHDyM83wHkpNc45Lla3FYvGrmTHFWwL0956eIcdeeeUl3d7iSx9lWYnjAb7T65FlZmPnYh0jdGjEYvF7mOlrHmtAOZcP9ZlOixe/8OlsNucYLB53dOEFZuOwYs71w1Z/y6UC8XkA/dDLE0KEOYlE43leYvONsazEgwAfkm//9/Szczl8dcaMxoc8xEqIEBACLglUjIE1YuVPx6bN7J9A5GXb5zaw8W3p6nFngk6uSJPA+UNSfwv2JgPOtuRPuHxuKqp7LmfjhRdew+IlLwWkLhZtIObE8vbxl1fUQshkhIAQqAgCkY657SCaoGUyhGx6dF2k0o70F8pmkBhYzzEbPwiHs48W68jgB9ehUAOLGX9IJmPHFWM3j5tnxrLiKwvYkXRGItH4azfj+aFvLBZfyoxPesuFJiaTseu8xQ4cNX166jOGYf8JYE+7xJwbA4noIiI+ghnHDTziNnv0mKa9n1LqeY/xBYcpNWO3bDbzgrcdTlhvmvZOSqmiHJuIxeKfs238y9uuRTxkmvZXS/V7quCFEAEhEHACFWNggZUR6ay9EYQztKwJ4ZWqnp4D397x4qK/8dOSr0eRH/2Sx5oROIURj/UoURFhTl2sZctW4tnFL2LjpkDUSmcQ5nEu27hywbHbvKGmIhZGJiEEhECwCPANQyJdG5YCtKuexOkP6Zq6b+jRqhyVyjWwKAdgETP/IpmMXV1qI6gwA4ucbdwnJJOxu8v5pCmlRmSzxlqPJsEG07THKaU2lnMOXsaORuOXAphJBC/fbX6zdOmik4p5Y2Q0Gj+fCFd4XBcHifN8Of+5rvXlGGAApqdSjWV/8RmLNbcze33Bse2i9l6el/fGOEc9s9nQHIDr3Gv1/c66yPl95T5WIoSAEPBCwMsveS/jlCQm0tl2EsALNA1mExnfGAzHFibezLVVIcS8bzfXRNwHMmvXrse/H1+EDRsC8dktx8DfekfRt9fOP6qohS19sDSSghAQAgEgUNXZehSD7wJoeOHpEhvgH/XU1DuFf6W9h0AlGljM9GQoRDMNI/uQUsrZQVTyVpiBhZVEGJ9INJb1spVoNH4uETzeHsipZLLJc72mki/Y+/9NOEf0nGLswzzk8RfTtL9ZTONuwoQJoT333OcaZkz0kF+hIY+Zpj1eKfVWoUKFxkejyc8T2c4FBx6OQdKb3d25fWfPVtpunnfmE40mdyKy7wXwaQ/z6wToC8lk7CUPsRIiBISABwIVZWChc87ICIwVHv94/Q8+Av+xt6ZhUOxMUoqNNXthOjGmAxjq4VmqmJBMJoN/P/4MVq/uDEZdLKLXQrBPeePWo/9VMYsgExECQiCQBKq6Wi9hhq63/BuMEE7o2b7euRVKWuUZWOuJsJKZnspmc/NnzlTOl9qyFqMszMCif3R3Dx8/e/aFm8r5sFpW878AOtBDDkyEQxOJYNbxufjiK4YPGbLpOQC7uJ27U8jdto0jUynrNbexbvpbVmIPgP8AYA83cQX2XW6a9v5KqdUF6mgJV0qNzGYNx2g80oNgmghnJRKNt3qI/dAQy0ocuXVdIu516VfJZOyscv/ucp+3RAiB4BKoLAMLQKSz7QaAv6dlSQi9BmX27Bl9wata9Hwuoto50mnjGwxcC2CMz9MtanqOifXCi69jydKXneKZQWivMdOlK9uPag9CspKjEBAClUkg0tX6BBif1TS759Nd9r7YY0qvJr2KkQnoDqwMEZz6N0/aNh4CjMUAXilHQekPexAKMbCIcH8o1LfLxS7ng2ZZcaeA/Mfd5kCEN0Kh8KFKTXvZbaxf+ltW4iGAv+whH+fZPDiRaHzMQ6ybEIpGm48notsLOEroZrxNm03iHyUSjb90E1TsvpaVqAPY60VZv0wmGx3DSFuzrLjzkuRw94KUMc3c7kqpN9zHSoQQEAJeCVScgTWkY+7hNpFz9a/rM+LbgkgGXdw7uu7HXgEHMW7KbXwYAzcyQ1MNkyBS2JLzm2+uxlP/eQ69vYGo5c+AfeGOo15re2L+pExwqUvmQkAIBJLAuquqI9mIc2ucpkYL0jV1J2sSqyiZQgwsZjxABG23RG4bLDl/g1YT8XLb5rWGQUtGjKhactlll73t54UoxMBipl+kUjE9L1A9QlJKmdms4XyZdl0snBn3hsP2icU8RudxWnmHba0zNTvvgPd1tI9JJtWfvMW6i2psbL7ctukiXd9VPnx0unuXXcaeNGmSvz4TNjQ0VI0aNWaZx5flPZlM9w6zZs3SUjrDshKfYubnvNROI8L8RKJxkrvVl95CQAgUSqDiDKzhq9t2yIT4QcDrTST/g/SedGbTydghONcJF/pQONf8Tr4Z+5gGrmLC4XDKhQ/S5hR37+xah/8sXIK33vL15+53VmgjiG8yekPT3rzrSI1fJAfpAyDTFgJCIG8CkY7Wm0A4Pe+A/jtyOJv9SPe481dp0qsomUIMLIC+nkzG7qkoIJomU5iBhYZUqtHrrhItM7CsxF4AHgF4lAfB2/fdd89TTz75ZKcodSDbtGnTxoRCQ536aa5fYhPhlESisSS72JVStdms4RT7/2KxQDPzk+EwH62U8uVlVJaVmAywU6vN9XcMIlyVSDQ6BmDBLRqNX7d59+EP3Aoxo3uz8XVKS0uTcyRUmhAQAiUk4PqXRglz8zYUt0ciXWt+DbCeK7zBKyhnHNI7ts7Zkj2oWt2dXEO9uB2EQ7x8GKgkWJlMFo/++z9YvVpr3cjiIWL+M3PuO3JDYfEQi7IQEALvIdB3+2C3cyOqh8K8/0uSmVdlaht2EMbbJiAGVnGejEIMLCIcUu76UZaV+MbWy4yGuCVEhF8nEo16bvJ2O7jG/pYVXw9gO/eSdHEyGSvZiYtoNHkIke0cXTPd5zpgxHrb5hNaWpqcunK+bFvNxie81CwDKGfbxk4tLdGCXnBEo8mPEtnOqR0PNcnomUwm/OVZs6Zq2Qnmy0WSpISATwlUnoEFIPxW2w8px7puLWIGTcrU1F3n0zUsalqX/pa327QJioHJUtw9g6UvvIaXXnod2az/X1AS8CgYFy9vP+qfQN/13tKEgBAQAkUhEFnT9h2E+Eawni9jRNTQW11X1t0sRQGlSVQMLE0gPyATdAMrGm0+i4iu92KKMOOiVKrxquKQLZ1qLBZfwQzX5jczrk+lGn9Yukyd2+/iFxLRTIDDOsclwsxVq8Y1zvdxOYn29vbQokVLfsKMevdzJybiKYlEo7ODy/PnW8tKnAjwLU4JZfc5cH0y2eTxtk/3o0mEEBAC/yVQkQbW0I0/3Sm3KaexoB4tTNfU7TdYH5wJ7Rwax7gAjCsGK4P3znvZshV9txQGpHUR4/jl7eMfDki+kqYQEAJBI8CgSOfcFhBN1ZI6o5cIx/XW1DtvxqVtg4AYWMV5LIJuYFlWYhLA13jZNW/bfGxLS9Mfi0O2dKrRaPwlIuzuYcTfJ5ONx3mI8xyilBqWyxntzPi6Z5H/CeRHTZO/opTK6tMsjlIsFj+UGX/zok6Eu0Ih+1SllOcitZbV/CBAzikTt+2tXXYZN9ZvtcXcTkL6C4GgEqhIA8tZjEhH290g1vaHyM7Zh2THTnkoqAutI+/6W/gUUN/16IO+uHtH51tYuHAp1r7l7FT3fdtAZERz4dzPVv3q6G7fZysJCgEhECwCy64aGhkWfgmgj2hJnPFE2qavYmzdBi16FSgiBlZxFnUwG1hE+Gwi0fhUcciWTtWyEg8A/FW3IzJjSSrV6NQQK2mLxeIHMOOvmo5fv06EYxOJxmdLOokCBotGE48Q8UEeJDbmcvb+M2ao5z3EQim1dzYbehLgKnfxfbu/Lk0kGq90Fye9hYAQ0EWgYg2soSvnHJQLG4/oAgXgF+ma+rLeLqNxLp6kmJmm3IZ9GX1vS7b3JFJBQT09vXj03wvR2fmW72dFQJqBn664bfz5vk9WEhQCQiBQBMIdcw4kMv6lL2m6LV1Td6o+vcpTEgOrOGsadAMrFoufy4y53nZghXZsaYmuKA7Z0qlaVvwuACe4HbFcBpaTp2Wp8YDhXKwQcpv3+/v3HatrJQpO2Qil1G7ZrPGCl2OvAP0smYy5LsC+hXniZoBPc8+b38jl+OgZM9Ri97ESIQSEgA4CFWtgYXXbiEiInQ/Ue+sABeB5w8D4ntH1r2nSC6zMeb/kXXNVuB6MowI7CU2J27aNZ559ES+/sgy5nK1JtYgyjLts5otWLTj6lSKOItJCQAgMFgLt7aHwEavfJGCcpimzafPOG8c0LNekV5EyYmAVZ1mDbmBZVnMdQHO8GFimaX9EKeXc4BfoFovFf8aMc9xOopwGViwW/wEzfurNxHnvTHnqvvvudWWQbpJUSpm5nHFwfm5lAAAgAElEQVQfMw5zu2Zb+tPuyWTM1Wday0p8jIj/xuzpRMlvTNM+pZCji97mKVFCQAi8Q6ByDSxuD4W7VrcRMEnTcmeI7G/1Vk+R61IBTLyZayMGnDoLmm571LRKZZBxTKwVK9bgsSeeCYKJ5RS7fDZDOLrj1vHyBbEMz4sMKQQqiYDZ2fYlA6yzxt5z6Zp6XS+eKgn1++YiBlZxllYMrOAbWJYVXwDgJLdPSLkMrGhUHUJk3AvA9c2R25hjBxHGB+0oqGU1NwD0Ey/GK8CJZLKpyU0xd+ffOTN+5cUwNE3jYKWsf7p9vqS/EBAC+ghUroHVVwer9Vsg3OHY81qQEe5OV9d/U4tWJYgwU/1tmAnAOZbm4QaPSoDw3zk4Rwmfevo5rFsfgLItRJ1s85kr28c7W9alCQEhIATcE2CmqrXXXMPMP3IfvK0IYjB/K11b/1s9epWrIgZWcdY2+AaW9yLuRPi/INVO+rAnIEg1sJRSI3I5407We6LhYdO0j1VKBaJIq7OOSqkds1ljIYAaD/+yH8pkIsfNmjV1Xb6x0Wj8PiL3p0g2xzy8ZMmiQxcsWOD/q8jzhSH9hEAACegxdvw68a55oyKccW4jHKElRUIvmdi3d2S9p4KBWnLwmcgF7Tw0yzgBjGsZGOmz9EqeTnf3Rixc9DyWr1hT8rHdD0gdMJBacctRzlsvaUJACAgBdwSWXVUdGRZxdl/t6S5w270JWMlMh6dr657ToVfJGmJgFWd1B7OBZds8vqWlKfA3f8Zi8WeZ3ZcPYcb9qVTjkcV5sratalmJJMCXedkJ1F+ezJi/Zs0b9fPnz8+Ucj6FjBWLxa9gxsXuNaiXmb6aSlmP5hMbjSY/SsRL3RdvRw6g45PJmLz4zQe09BECRSRQ2QaWsy1ozdw4DIrpYkjA/N7quh8hQAUSdc29P526W/kb5JzfJ+xcivH8PEY2m8OiZ57Ha68vD8KRQmd74o8zdlitWXBYALaO+XnlJTchMLgImKvavmSYGo8PMv8mXVN/ovx9Hfg5EgNrYEZeegTdwGpsTJydy/F1RO6LgRNhUiLRON8LNz/FWFbcKY/g5UbUW5PJRg9Fvb3N3rIShzOzsxOowMLt2xx/vWHwqfF40x+9ZVf6qIkTJ4bHjdt5OTNq3Y5OxAtCIT5VKTVQMVqyrPjtAE50OwbAj5smH6OU6nAfKxFCQAjoJFDxBhbWt9ZEMvQKwNtpAveKYYQO7xk9+VVNehUh49xQeO7N+GzIqYtFOLAiJlXAJJy6WMveWNVnZPX2pgtQKn4oARmb8EczFzr3jQVHvFn8EWUEISAEAk+AlRHpqnWuatey+8rhwYZxTmb0uTcEnk0JJiAGVnEgB93AsqzE8czcToQq94ToumQyNtF9nL8iLCvuXA09ym1WRIgmEo0tbuO89J8+PfURw8g5NXX39xKfTwwzL8nlIl+aOXPa2nz6+6FPLBafzUznAez2+2kul7P3njFD9XtCRin1iWy274Z6DyYZWkIhO5aHSeYHlJKDEKhoAm5/QQQSRqSz7Q6APbjt25guIQ3GGZuLzLYHEkaRk76gnXfK2LgFwMHeijEWOcESy3d0rMWj/17oexNrCxZ6LBTi77xx83jnOmNpQkAICIEPJRBe3fYZCvFT2hAxNqVr64dp06twITGwirPAQTewYrH4fsz4OzyUdCCiBUuWLDwtyPV95s2bF3799VWbvOxqYubTU6km5/NrUZtSysjljBnMdIkHo8ZVbsy4Z+PGESfNnn3hJleBZerc2Nh8lG3TXQCGu02BCNeGQnZdfwaTZSUmMXOb++eDMqaZ210p5ZSlkSYEhECZCQwKAyvc2fqDzVd8a7iedutqEf0pXV13TJnXzrfDX3Qz16YJioGJIIR9m2iJEuvu3oT/LFyKFSuDUBcLLxDokuW3HXk3QM6NhdKEgBAQAu8n4Oy+6qz9OQhnaUTTlK6pj2vUq2gpMbCKs7xBN7CUUsOyWcM5ITDGA6Hfjx27/UlTpkzp9RDri5BotHkCEXl6wWzb/I2Wlqai3zQei8W/y4yflebyI9rEbE9OpZp+4YsFGiCJCy64YOiIEaMfZMYBHvJdZNuho1taois+LNZr8XaA5iaTsfPc3HToIX8JEQJCIE8Cg8LAGvLWNbvbOftxAKPz5DJQN5tMc8/eUT+SnSofQko9wGbHKigA2otTDrQ4fvy5c6Twyaeew+vLVoDZ977QRjLwg+WfOuo2KBqonoAfcUtOQkAIFJHAkLfmfszO0d8A7KppmAzlaO/esXUvatKreBkxsIqzxEE3sBwqlpV4GeCPeSC01DTtI4O8y8Sy4vcCGO9+7sTMuS+nUuqf7mPzj3COsOVyxr3M2D3/qIJ7rh82zNx9+vTpnQUrlUDAshLfAPhuLzfIM/PxqVTT77aV5owZM0Z3d2dWejAON5qmvY9S6uUSTF+GEAJCIA8Cg8LAgvO2eG3tL8H4Th5M8upCjLt7azq+BRqwYGBeepXYaUI7h8bZOHPz7SpJADtW4hxdzYkZL73yBp5d/CIymayr0DJ07gXhqrCRvuL1m78RmPoJZeAkQwqBQUcg0nXNd8H2r7RNnPD79OixJ4NODsQxF23zLkBIDKwC4PUTWhkGVvMTAH3WLSFm5MJh40tKWf92G+uH/kopM5s1FgPYw0M+ywH6ajIZK+qLacuK/2LzR8EziJz7c0rZ+O/ZbOSEoNTDsixvzzCA+0zTdgqt/8/L11gs0c7ME9xSJ8JdY8Zsf1qQdya6nbP0FwJ+J1DiX6Dlw1H11ryPcy6j8+3uOrZzR2TGnPdE+WYVhJGZzm/HQVkbDwJynNBZsQ0buvHgQ4+jp8ffxd0B2CD8dsWt4/XUjwvC4yo5CgEh0D+BLccHN4AwVCOqZLqmXtttwRrz8q2UGFjFWZpKMLCi0XgzERq9EGI2zkylLH3mtJckPMbEYvEv2jbuJYLrS5uI8GAoZB+vlFrvcfgBwywrcQGAH3uve0UZgL2W5XA2/1upVGmK1A8IY4AOsVj8dGb6JcAub2gkzuVy/zdjhnKMzHdbNBrdhajK2UFlus2NCKclEo23uo2T/kJACBSPwKAxsByEka62e8Csq3aV8+U+lq6uL8mNJcV7BEqjfO6tvFeIMZ8JXy7NiP4e5e23u/GfRUuxapXvd3TboWzvnm/ccVxR30r6e7UkOyEgBN4hEO5odXYP/FIjkVzayNRi9AXOzWHS8iQgBlaeoFx2qwQDSylVnc0aTtFNw+X0ne5vrF49bvf58ydlPMSWNcSyEpMBbvUybyL8LhSyT1RKFWV7/Nbi+n8E8BGPkF5itk81DMPZwbW3R401tm0f2dKiFnqML1mYc9QykzH+TITd3A5KhFtDIfuM965lNBq/kIiu9GAerjLN7T+p1JSiGZtu5yf9hYAQQKm3sJYXeXht61lk43ovDvy2M6el6Zo6bVeIl5dO8Ue/+E4e25vGzQwcUfzR/D9CNpvDc0tewgsvvga/lsUi4M3lt43fRQpX+v95kgyFQNEJvDCnqmq08ScmfFXXWAS6urem7nxdeoNFRwys4qx0JRhYDploNP4WEUZ5oUSEzycSjYE7XRCNxv+6eSfVYV7mzIymVKqxaJdIbKnNRUd5MFCc6WRt2/5OS4taEIvFv8+M67zMcWtMp2nan1RKdRWgUfRQZqZYLHkDwF4uCnklm7WPnDlzS80qpzD88OGjHfPwULeJGwafGo833eY2TvoLASFQXAKDagfWkFXX7G6btlN41vlCrqWxQWdlRtfpfButJS+/imwt7n4VgMn6jES/znbgvJzi7i+9tAxLX3gVvb0+PFLI/OsV7UefMfBMpIcQEAKVTsDsavuywex8ERihaa7daWP4zhh9tuy+cglUDCyXwPLsXikGlmXFnWOA381z2u/r5uxGWrXqjW/Pnz8/MLuwpk5VnzBN4xkAVV7mDNCeyWRsqbfYD49yjBjLSjiXGbV4rXtFhDs2bRp61pVXXtLtjGRZiZuZ+VSvegDPNU2+sFi7zXQxVErtls0azwIY5lLTBnhiMtnk3PTo8NoD4Kc96LzU3b12n9mzZ0ttRpcLIN2FQLEJDCoDyynmXrV2zDXMPEkXWAJW9lJ4T1RPWqdLs9J1Js7jYVWjcAYDbQBcnm+vPDpOYYKurnV47Iln0N3tq7+TOWY6fWX7UZ6upK68lZIZCYHBTSDS0fprkL7LUMC4KV3z6e+BDivKsZ1KXi0xsIqzupViYEWjzWcQ0Y1ejtMB6DDN0NFKRZ8sDmX9qpYVdwrPH+BFmQhdq1a9sUMxDLvp05uPMgzjDoBd1+XaOpcNpml/Win1+jtzmz499RHDyN0PYC8v8wWom5nGp1JWUW9c9Jbb+6OcovdA32VQLhs/kUw2fX6LgRVfAOAklwIgwpXxeOxSIvL91eFu5yb9hUDQCQwuA8t5NbPmmk8x2U+DMETT4tls4JzM6Hrnl6w0FwTqb+27DeQnckPhFmgbNmzsM7HWrl0Px9QqdyNgHezcN5YvOOYf5c5FxhcCQqC8BIasbf2obeNVfVkQE2Fyb3XdPH2ag0dJDKzirHXlGFjJg4jsPwCo9kKKCJfH47GpQfjyblmJrwH8O6+7+pnRkEo1OrWztLaJEyeGx4zZ2Skq7+lYI4AewzBOj8etuz6YmGU1nw2QUxLFS52zvo+cAH0mmYy9pHXSmsVisfgBzHS/FwPQNI2vANlXs1nDmWPEZWq9pmkcEtQbOV3OVboLgcARGHQGlrNCkY7Wm0A4XddqEeiPvSvXnIBPKx+eAdM1S/06E9o5tAPwObbhvCX0+CZJf17lVEynM1j83Et46eVl5UzjnbGfI6P3kOW3HNfhh2QkByEgBMpEYMvNg78B4TiNGfSkM5tqscOWYzHS3BEQA8sdr3x7V4qBNXHivPDYsase9roriRkZ28ZhM2Y0Ohq+bUqpSDZrOObVeC9JMqObiPZPJmPaL6qJxeLzmPEDryYTEf4QCtmnKqU2fHBuDQ0NVaNG1d4A0Gle5r015ubu7hE/mD37Ql9t/X/vfJRSI7aur5e6i38D6G8AK/eM6O+rV489MoiXGbifq0QIgeARGJQGVlVn61HM/FsQ6bkGnJAGjAPS1ef6/mYPPz6iDbfyx5nwKzC+6Mf8Sp2Ts/nqhRdfxdKlryCdKePJGsZdK9rHn1jq+ct4QkAI+ItApGvePrAz94Gwg67MbJsvyY5puFKX3mDTEQOrOCteKQaWQycWi5/D7OzSYU+f9ZnxfDhsH6yU8u1LrGi0+TQi+rVXkwjAb0zTPk0p1aPxiaJotPkEgO7wXqeKnLIkB/RnrG0175zaTl5fANuGwafH401OmYjyb/v/kAWIRuNTiHC12/VhxiYiOPUV3d78mLXt0P4tLVGnppo0ISAEfEjA0x81H87DVUoj111f3ZPr+TMYn3UV2F9nxr/SNWMPBp2c06Y5iIQuaOedsjYUA2dLXawtC79qVQeeeHIxNvX0luVJYPC5K287+qdlGVwGFQJCwDcEIp1tMYC13dBFjDW9tfVjfTPBACYiBlZxFq2SDCyllJHNGq8B2NkjrRzAVyWTTZd6jC9qmGUlDt96dNBtke938yLCpESi0bnVT5uBc/HFVwwfMmTjP5wjeh4BOMbSmfF4000DxTc2Np9i28avAA4P1HdbP2fGWsAen0qpx73ElyJGKTUslzOWMnt+jt2m+SfTtL+ulLLdBkp/ISAESkNgUBpYDtqqzrYLGOzchqevMU5M19b/z1l1fQNUttL3buAh2w3BlSD8kN2fV69IOJlsFv94+CmsXfsWSlkWi4B0ZGh41Ks3HqbzrWRFrpFMSghUNIHl84ZFqjLObgBT2zyJpqWr62Zq0xuEQmJgFWfRK8nAcghZVvP3AZpfwA4lAPRt08z9xk9f6J1C5kTZ3xNRAS+iqds0czts64ie16ervb09tHDhczcBdIpXDYBuN83cGfnuCovF4vcwk1MHzON3OvpHJhP+xqxZU317GZXzHDPTdd53tOW9Go5pW5dMNkltxryRSUchUHoCHn/ZlT5R7SOunb19FYf/w4xd9WnTgnT1sDNBZ8uXfo9QVTtHOhjngOG87R/jUaaiwjZt6sWSpS/jlVffKKWJ9fSK28bvX1EgZTJCQAi4I8BM4c62q4nQ4C6w394bGMZRmZpzH9WoOeikxMAqzpJXmoE1daraPRw27mXGJwogtpGZz0ylmu4oQENbqGNehUK5G5yb9LybNnAuyzk9lWq6RVtiAEWjyTOJ7J97NQyZkQPsg9zsiLr00lnbRSI9zo6vfT3OJQuQSiZjKY/xRQ9TSu2cyxkPMmP3Ig+2ktk4MJWyfFGItshzFXkhEFgCg9fAcnZhrZ7bwCGao3H1NlCO9u8dW/eiRs1BKVV3Gx9LjN8A8LQtuhKhvfzKMixc9DxyuRLsarbZWrHgaN9+mKnE9ZU5CQG/ERj6Ztsu9lB+glnry4TF6Zr6T/ttrkHLRwys4qxYpRlYDiXLap4DUEEmtGOsZLP43KxZjU6tV23H7dyu4tSpM0abZvZ2gA93G/uB/n8zTftopfRdvuSYLNms4dza/FGPubFpmicpNf1Ot/HRaPMEor6jhFVuY9/pz2x/IZVS//YaX8w4ZqZYLN4G0ORijmMYNDcej00p5hiiLQSEQOEEBrWBNWTl3I/ZEbofjI8VjnKrAuHu9JyOb0HOTheMtO5W/iwBzjbezxcsVgECzIwVK9bg2cUvYv3bRb24q8ewjcPfXHDkIxWATaYgBISARwKRNXNjMIzmQnY5fGBoGzD3Sdf8aLHHlCRsKwExsIrzKFSigXXxxRcPHzJk5BMAPvX/7d0HmF1VuTfw/7tOm0khmZaEEkCkKVXEe0VsKEURFEui186HEiAzQ5EmmSSbzCQ0AUlmAhNFFKnBq3gV5aJXiiKIYOiIgAESU6amTTn77LPejz2gUpPZZ/Y+9X+eh+fyyFrvetdv7TvJeWevtcao5vpnRsVi9tpCbCecO3eBX/i+xFp8bGxbySRrjHxlwYKW0N6+chwnns3GblDVGbkaq+K2nXee+ulZs2ZlgsbwD3TPZOQHIvKloH1f1f4JVfOJhQtb/HPTiu4zZ07b+0T0HkBjESW30drYXosWzVkfUXyGpQAFQhKo6AIW1DGJvvrvy8sHh4f1UYEcna6bfXtYASs5zinX6LRYNX6jwL6V7PDquQ8ODuO++x/Gho2boyJ50cAc8Y+bD/9bVAMwLgUoUOQCdzrx5P4NfYBODC1T1Vvd+qZPhxavggOxgBXN4pdjAcuXmjt3wSGqcneuh32/Stt76WfCpfG4npfPIta55859Vzye8M+YzfXtplc/MH+Kx+37HccJ7ZrnlpbzFwCmZQzF/mFrY4cuWjTnL7k+2See2JmYOnX933M/7FxURC9pbZ13Tq45RNxPWloW3A3gA9GMo5e2tc0/M5rYjEoBCoQpUNkFLH9/Wv/iA8TKA4Akw4OVX7tZzMSU2VvCi1m5kU7s1HHJSfC3en6VWwpffg7SaRePP/EMVq1eF8WWwjtS1YlP8QD3yv3/Oc68wgVUJdXbvlhFGkOUGBarn083NP1PiDErNhQLWNEsfbkWsC677LLqvr6B7wE6ljd0/oUuor+2NraorW3OvSIS2ZZCx3GmeV7seEC/DSCMYvoz48bFDznvvPN6w3qC5s5dsJ//9hSA6bnHlHNbW1suHqtlS0vrMYD6b5ZNyDEXK4IvLVgw9+ax5pLj+FvtNnfugnep4o8AqsKNLxuNsZ9esGD+neHGZTQKUCAKgYovYGHkL+pLl6roSaEBqw4osodl6k/7c2gxKzzQ6cu12svidBXwXKZXngVrLZ57bhUefTzkF6UEi9fedOSpFf7IcfoUqFiBVHf7nhrDo1DkfJ7KG/BUn3Dr9N2Q5nTFwoY4cRawQsR8VahyLWD5U/zWt5z66mqzcgzFjdehy0bA3hqP6xmO4/SFvSJz5rTNELEXALJrONvGJK1qv7lw4fwfh5lrS8sC/5fgB+f69pUqfn7AAXt/dubMmdmx5tXZ2ZlYvXr9zaoYy5uu/wDkiLa2uU+NNZ+w+zuOMy6TMb8QwVjPQHtdavpoPK6HhnkjZdhzZzwKUODfAixg+Ye5b1q6l2bsvQDqwno4FPhdZmXiYzg4+F72sHIoxzjNN+k3sooLRFBfjvPLZU5r1nbhsceewZaBwVy6v8n3TPORdcsP52+hQtFkEAqUmIA6JtVbv1gFs0PMXBX6zUxd09UhxqzoUCxgRbP85VzA8sW+/e0F/xmL6S8BCfPvUN2A/EBVfplIeE/mWszyz5HyvNgexshB1mZPAeS9ud7m9+ZPh17d1TXt5GXLwvl7+YknnpiYMmXH8wHx3w7L9bMpHjfHOk7LPbkGeH0/x3Eme57xD2PfI/eYcn08nv16mNssc8/ltT3nzl3QqIolYcXz46jqlxcunH99mDEZiwIUiE6ABSzf9gknmdy+/gdQhPJq9SvLZY3IV4drZ/MHYojPr+NovG8f/IfNwn9FeucQQ5d0qM2bB/CnPz+GjWM9F0vRu1aPmIpbZMy/CSxpUCZPgUoV0KU1yT7rv6UxKTQCwaNuzewDEeFWo9ByLZFALGBFs1DlXsBavnx57JFH/nqOhP42u7+NUDcCshqwf1aN3ea63r2XXOKs29pKXXLJJeM3bRra11ocAeixIrKjKnYY2yHtbxxRVW8eHJx4/OWXnzEU1pPz8rliI1sHa3KPqWfH43pp2OeJtbS0Hg3oLQDG5Zibf9ZZS1vb/Ity7B9ZN8dx6j0v9jyg40MaZOXGjZPfsWQJ3w4OyZNhKBC5AAtYrxBX9bR/1Ap+AyA8E8VDqWEctXmnxtD22kf+RJTIACfdpPsmgB8o8J4SSTnyNP0thQ+teAqrVq31f5uU03gK/GLdzUd+MqfO7EQBCpS2gP/2VV/9zQp8LsSJeCL6yXRt069DjFnxoVjAiuYRKPcC1j/VWlparwP0CwCiutFtZChVdAP6nDGyURXrAVFVW+W/ASaCHQC8HUCIZ9C+6XPxkOfZmRde6Pw9rKfGcZztPM/8DsC7c40pgnvXr596WFhvhL06j5dvJTSdIvh6rvkBGBTB4a2t84ruRuqWlvMXAebcXLdtvsrEP/NrVmvrvO+PwYldKUCBPAuEV6zJc+KhD6ediVRf5n8U+Fh4sdWF4gS3vum68GIy0j8FZl+vuyCO74iG+mWrpIEzGQ8vrlqLxx77G7LWBp2Lv83nE+tuPopfNIPKsT0FykAg1bf4E6rmlyFP5WE3PXwEdjizJ+S4FR2OBaxolr9SClh+gcPzYv6X9i+HUASIZjFCiSoPZ7PZ/7rgAuevoYR7KYjjOMba2Pet9YtDmuv3qO543BznOC3+geSRfM47b+H2sZj3oKr4hcJcP3ftv//eh4dxPleuCbxZP8dxJnieeRbA1LHEFcHfMxl71IUXOn4sfihAgRIRyPUHb4lML1iaqY1X7KGZ2MOQnF+5fbMB/+Zmhg7CtLMGgmXD1qMROPEXOi45gMsBHM8bCv8ttnZtN1Y88hSGhoKcl6z9ntX/6L7lY/yDfDQPH9tQoJwEVl5TlZy45UaIHBfutGSeWze7NdyYjMYCVjTPQKUUsHy9008/vXr8+JpfAfhguGdNRbM2waPK49lsdkaYxSs/hzlzzp8hIj8CUB08p5d7qGJxImFPD3vr4OvzmTt30aGq3u1jO7hfnP3336utyIpY0tJy/uWAaR5DEdHfdHNzPJ79cjGe9ZXrs8V+FKgEARawXr3K6sSTfXXXAvJfoS6+yoVu/eyxHPIYajrlFswvYiUG8Q1RLAj13JYSh9qwYdPIDYXd3f2jm4nqAyYTO/ofPzucW15HJ8ZWFCgbgUTv0veK2LtCvXkQWOnW7rMn5DCvbKCKZCIsYEWzEJVUwPIFHcepymSkXcT4bxNFup0wmhV7q6j6oLV6wqJFzmN+vSissc8885LxqdTgAyLyztxjyh/i8ezH83Hjnb++nidXAfK13PP1e8qMtra5PxlbjHB7z5t3/hHWyv8AqMo1cjxu3uM4LQ/m2p/9KECBwgiwgPU693j34g8ZY/yzsBJhLYkA61W8I93a0x4NKybjvE5AVZpuxhcV6AQQ1sGOJc/sbyn884OPY936nm2fi6W4au3yI08u+UlzAhSgQDABXZxK9hm/cB3mz07PAh/06hqL7vyUYDjF2ZoFrGjWpdIKWL7ijBkzYnvttW8nIF/Jw3lU0Szcv6L6h8nb+6qr45+ZM2fO+jAH6+zsTKxatf4OAB8eQ9xNqvbjCxc6kW0dfH1uF1xwQc2WLZmnRMay3U7+Eo9nj8j1hskxeG21a0vL+Y8Asn+O8e9oa5t3VI592Y0CFCigAAtYr8fXzkSy3/tvqB4b2roIrFjtSNc3NYcWk4HeKKAqjTfhQ5CRLYUHkuhlAf8srGefeQFPP/M8/ILWW31ETOOamw7voBsFKFBBAgpJ9refC8WikGf9R3fQPRbTz+gLOS7DAWABK5rHoBILWP+UbGlpnSWibaqoj0Y38qjuSzcYLgPSFy5cuPAfYY/W0nL+8YDpBDTnX3CL4OL161e3LFu2LBN2fluL19LS+hFAbwUwcQzjXhuP2286juOOIUaoXR2n9XDPU3+LZMC3ByUtoke1ts67O9SEGIwCFMiLAAtYb8a8qbM+mck8H+5vo9UTT/dOT21+Li8rW8GDnHGjTk8D979yw00FS7x26mvXdeO++x/2z15404+I7rzmpqNWEYwCFKgcgar+9l2s4rdQ7B7mrAV6Wrqu6YowYzLWvwVYwIrmaajkApYv2tLS+jZA/S/106MRjiyqtdbOWrhw/tUi/ltY4X4cx4l7nlkHoC73yNo1ZUrNzs3NzUEOJ819uFf19A+ez2TMpSI4bWwB9aS2tvnLwtyWOZZ8XjnM3b8gJBUsjoIfz9gAACAASURBVNwVj2c/5TjOpmD92JoCFCgGARaw3mIVUr3tVyjQ5G/8Dm+h9H53k/dxvO30DeHFZKQ3Ezh9udZmslgCwUwAcSq9LLBhw2Y88uhf0dP72kdQoc+tu/moUL/A0pwCFChyAf/tq772iwCcFXKmD7t1je8KOSbDvUqABaxoHodKL2D5qo7j1HuenAnILACTo5EOLaoVwW0vvYHT2to678+hRX1VoIsuumji5s3DvwLk/WOI3yOCT7a2zivYlmrHuWDXbDZz70tvqeV8K6EqnhWRo9va5j4zBotQuqqqzJvX+nNV5LBjRs9rbZ13YRTFzlAmxyAUoMBWBUIszpSXdKL/qgPEeneF/Ie3pyrfzNTP/mF5aRXnbE5frtUZi4sBNBZnhoXJyt9G+OBDT2DN2q5/JSDAxWtuPvKcwmTEUSlAgUIIpLqu2kNj3lPBt19sNdssVPd165tCu7a+EDbFPiYLWNGsEAtYL7v652Lts88+u3he7MeAvi8a7bFFFUGXtdqYSOjPI9zWJi0trecB2jaWbF/aEbAsFrOzC33bneM4e3pe7FFAA76x9OrZ6z1PP/34R2655ZbsWEzG2nfu3AX/qYr/y2W3TDxupzqO8++/BI81GfanAAXyKsAC1ltxq2MSvXVLROSUkFfkEXfQPQTTzxgKOS7DvYXA7Bu1WQzOhxb9bxLztobWWvz16ZX429+e98/Icm3MvGP9DYf/PW8JcCAKUKCwAn2dk5Ka+TWAQ0JNROTn7kD6v/hnXKiqbwjGAlY0vixgvdbVcZxkJiOfFZGvAzgszAuOcltByQL6VxH8LBaznY7jrM4tzuh6nXees78xxj9jafvR9XhjK/+tpUTCHuI4jr/VrdAfmTt3wXdVR36xa3JNRtXMSSS8iwtZkGtpOb9NVc4TCbZTRhUXLlw4jzfD57r47EeBIhBgAWtri9C7eLukmschoZ4FoKLazgPd8/f0O3dqvK8LH8gqfi5jO8Ayf0nnYSS/iNXXv0n/9MCjq7OZzQe8eMMx/XkYlkNQgAJFIJDsWXIcRJaH/YVUYQ/J1DXfXwRTLOsUWMCKZnlZwHpzV/+sIdfFriIyT0Q+O5biR+4rJ48B9vJ4XG9zHKc76nOYmpqaUpMmNTwCYK8x5OwfFv6BqLY35pKX4zjTslnz0Fi2EgLoFcHHCzUv/0wvzzMrAewc0KDfde3+F18cbeEzYE5sTgEKBBRgAWsbYKmejkY1ehkUOd868iZDWGNw2HBN4z0B14vNxyDQvFzfbRXfh5btDYX+rTZpKNIQDI/8+z//Ubiv/G/DAqQVGBSgT4G+np4NTz/z6HM3PbTs4LzeijOGpWRXClBgLAJ9nZNSmnlMwz6oWfFzt77xuLGkxr6jEzj33AtqjLE7jq71a1t5XvyFiy8+Z3Mufcu9zznnXDgpFhuejhz+yue6yZXf+c5ZA+Vu1NLS8jYg9WVAPyyC3V8phERw1qj0Avq8KlbEYrrcGL07wq2Cb1i2M8+8ZHwy6b5tLOuZTGYGATzvOI4dS5yw+557rrOrMYkJY4k7NJRZc/nlTkFumW1pOf90QC7LIf/rurqm/r9ly2bx77s54LELBYpFgAWsbazEuO4lO3iCuyCyR6iLJvILtyY7A5L/20hCnUcpBVOVk27CLnGDZVAcUQqpK7BRFBsg8N+O6hEdKTptHCk+GfSpos/4/67okxgGkUUmI8jEAFcMMhJDxqSR8TLwxk+GO5SAW/cAMo4jRfWXqVJYC+ZIgbIQUMck++puAmRGyPPpTbr2HVu2b/bfjOCHAhQoc4FLLrlk/MDAwPbWyi7W4v2q8iERORDQmlymrgoVgb898F7A3gmYxzwvvi6VcnuLrQCUy/zYJxwBx3GmeJ55FjntqJBj29rm/jKcTBiFAhQolAALWKOQT/Qs/qqIuSbUV6YFHixmuvWNPxtFCmwSosCJy3VS0mIpFF+A5H4GwKtTEsBVwD/Q0vXfgFJBRgDvlf/dfxPKe+Uf/+2oXlFstooNYrDefwsKWWyBQS8segXor45jw/gG9DiHid+PHwpQgAKhCFT1LPmIFfkpgEmhBBwJIgqj89zJjQshCP0K+/DyZCQKUCBKAf/w97322n9XY+ye1mJXwNQCmApoHYDky2P751ihT0SHrMUqwKxPJOTpjRt7nrr88st5PmyUC1T6sf1D9U8DNIe3r2RtPJ7d3XEc/604fihAgRIWYAFrNIunnYlUf+anqjhmNM0DtOkV6x2abjjt6QB92DQEgbN/rhMHhzELivMBjHtDSP9LmMWGl66XHxh5+0nRDcEmKLaMFKAEXdCRbXhbrKJLBMMiyNgM3JE3oWJIWwsvbjBsgaFxgNvfj8yyEzEEEX7BC2ENGYICFAgooI5J9TfcrapjuQ7+jYMqBuOqeww2NK0JmBGbU4ACFKAABUYl4L/1t3Hj4B2ABL4Z0xjzyQULWn4xqoHYiAIUKGoBFrBGuTzx3iveZyR2W/g32ckP3dqGWZCZ7ihTYbOQBBxHTfee+KhJYDe1WC+KdTDYlE6jf9lXZG1IwzAMBShAgcILKCTR236KCNpDTUZgofpFt67p5lDjMhgFKEABClDgVQKO03aw59n7AAQ8c02eisez+3IrKh8nCpSHAAtYo11HvaYq2T/gn530ldF2GWW7TQJ8Ll3X+JtRtmczClCAAhSgQCCBeG/7IQa4A8CYDu5946Bym1s3O+y3kwPNjY0pQAEKUKC8BV65efAvAA4IOFMFdEFb23wnYD82pwAFilSABawACzNyoLuRZ950y1mAOG/SdI1bW7035ATeCjQ2R/amAAUoQIHXCygk2dfun+P4tVBx/BtPIV9062f7Z2rxQwEKUIACFIhEoKWl9XOA3pJD8C3W2kMWLXIez6Evu1CAAkUowAJWwEVJ9Cw5RUSuCP766tYHEtWr0v16GvbgrYQBl4TNKUABClBgKwJVve3fsEBnqBeRjIynP3Vrp86EzPQPZeaHAhSgAAUoELrA6adfVj1hwpYfq+KzOQT/n3jcftZxHF6KlAMeu1CgGAVYwAq6KhuW1iSz+ktAAx8guI0S1mZVfDRTP/vPQVNiewpQgAIUoMCbCaQ2duyunv4VQCxUIYHr1syu4qUUoaoyGAUoQAEKvE6gpaV1D0AfBLBdcBzZra1t7srg/diDAhQoVgEWsHJYmWR/+6dh8ZPQf5stssIdHjoSO5zZk0Na7EIBClCAAhT4t8Azi1PJWnMjgE+Hy6KeKk7N1DctDTcuo1GAAhSgAAVeK9DS0noVoLOCu8itbW1zQ/7zL3gW7EEBCoQrwAJWLp7LZ8SSH/nQ9yH4ei7dt9HnB27tlBO5JSMCWYakAAUoUEECqb72Y1Rxa+hvXwGPupnt3odpXx2oIE5OlQIUoAAF8ixw7rnObvG48d8iTgQbWjKq9oSFC+f/OFg/tqYABYpdgAWsXFeo57IdkyZ5FxS75xriLfptFMGX07WNvww5LsNRgAIUoECFCCS6Fr9LYuaBsM9rhCBjrD16uL75txVCyWlSgAIUoEABBGbMmBHba6/9O3J7+wor43H7XsdxugqQOoekAAUiFGABK1dcVUn1LD1DjX4n1xBv3U+ecdPxA7HDrMHwYzMiBShAAQqUtcCaznHJKu96qB4X+jwN5ro1jW2hx2VAClCAAhSgwKsE/LOvVPUOEewaHEZb2trmL/JvGwnelz0oQIFiFmABayyr033RxGRs/D1QHDiWMG/R9yY3nTiBRawIZBmSAhSgQLkKKCTR1/5NefnWwXA/gmclYz+Wntr8XLiBGY0CFKAABSjwWoG5cxecqIorczhzuN/zBt9+4YUX9tOUAhQoPwEWsMa4pqn1i9+OhLlPFQ1jDPX67sNQ/aZb33RdyHEZjgIUoAAFylSgqmvxB2zM/C+A6tCnKPolt7bphtDjMiAFKEABClDgVQKO48Q9z/i/LNk5OIwubGub3xK8H3tQgAKlIMAC1lhXSVWSfR0OBC1QmLGGe3V/AVbFbOI/BxtmrQ0zLmNRgAIUoED5CUzc1F6XzuBXAP4j7Nkp8JtMXeORYcdlPApQgAIUoMDrBVpazj8LkItzkOkXwSdaW+fdl0NfdqEABUpAgAWsEBZpfFfHtExM7wWwWwjhXh/ij27cPRaTzuiLIDZDUoACFKBAOQioSqK/4wpRzM5hu8XWBRTPmrgeOTy5aWU5UHEOFKAABShQvAKO40zxPHMHgAOCZikiv6+pGX/UGWecMRS0L9tTgAKlIcACVkjrlOxbsh9U/hTBtg0LxXy3nofmhrRUDEMBClCgvAQUkuxt/yQEt4Y/MdGXzsB13LrGBeHHZkQKUIACFKDAawXmzWv7lLV6M6CpoDbG6NELFsz/ddB+bE8BCpSOAAtYIa5Vsq/9QijOCv2334JeI/jMcE3jPSGmy1AUoAAFKFAGAsl1S/ZDQvy/sO8Y/nTk125t93EQxw0/NiNSgAIUoAAFXivQ0rLAP8cxly3rKzZunHzIkiXNaZpSgALlK8ACVohrO657yQ6eEX/PdQ4HDm4rER2Kwew1VDd71bZa8r9TgAIUoECFCKgTT/bV/xLAUWHPWEV6kpnMvgNTT1sfdmzGowAFKEABCrxeYM4c52DAPCCCoN9RVVW/tHDh/BupSgEKlLdA0B8O5a0RwuziG9o/arLyM0AnhhDutSGM3OJOHvdVyPHDocdmQApQgAIUKC0BdeKJvrqLBXJ6FImLmuZ03cntEH8bIT8UoAAFKECB6AQcx0l6Xuw3gH4wh1GejsftkY7jvJhDX3ahAAVKSIAFrAgWK9nTMQeibRGEVoF8K103+/IIYjMkBShAAQqUkECya8nnEcO1gCRDT1uw0q3p2R3i2NBjMyAFKEABClDgdQItLa2Hq+qtIhifA8518bj9muPwz6wc7NiFAiUlwAJWBMs1spVQ5OcQHBxB+AwUn3frZt/K34pHoMuQFKAABUpAoKr/8l2tJn4LxdtDT1fxnCv2INQ1bwo9NgNSgAIUoAAF3kRg7twFV6hKE6BBv59aEezf2jrvCcJSgALlLxD0B0T5i4Q0w8SaJQdLSu4HEAsp5L/DKJ6NiT1sqK55deixGZACFKAABYpboKtjQjKmjwJ4WwSJWlF7arq+uT2C2AxJAQpQgAIUeINAZ2dnYtWqrvWA1gTn0etbW+d9RbjdPTgde1CgBAVYwIpw0VL9S89QtYugCHwN7LbT0jtSQ/LFzTs19m67LVtQgAIUoEBZCKhjUn31SxU4EQh8yO22CVRvdet6P8utg9umYgsKUIACFAhHYM6cBd8TwTdyiDaoaj60cGHLgzn0ZRcKUKAEBVjAinLR+jonpWzmZyo4LIphBPK9dF+2CXvwutgofBmTAhSgQLEJpPo6ZqnaxZGcewX81c3KezBl9pZimzfzoQAFKECB8hRoaWndS1X/LIIcLsCSOyZNqvrMWWedNVCeOpwVBSjwegEWsCJ+JpJ9391fNX6HAFMjGGpIgcZMXeMPIojNkBSgAAUoUCwCColvXHKYycr/RZKSYlAMZqRrG38VSXwGpQAFKEABCrxRQFpaWs9V1YUiwd8qVsXpCxfO+y5hKUCByhFgASsPa53s6fgMRH8MYFwEw20Q6BfSdU3/G0FshqQABShAgWIQWPuDhmRi8D5IBIe2++eGWL3YretpgTheMUyXOVCAAhSgQPkLvHz21foVAPYJOlsRDA8O2umXXur0BO3L9hSgQOkKsICVj7XTxalUn2lX5LS3ezQZPg/YT7h1zU+OpjHbUIACFKBACQmsbq9LjoN/4+CBUWQtIr9P187+YBSxGZMCFKAABSjwVgItLc7ngNjyHG4eBKCntbXNv4K6FKBAZQmwgJWv9e6+fPukSfhvSe0XwZCqgrsyG8cfjbcdPxxBfIakAAUoQIFCCKy7ZHwyUb0EwPERDb8KsB/jL0Ai0mVYClCAAhR4U4Ezz7xkfFXV0DMAts+BaLW1sYMXLZqzPoe+7EIBCpSwAAtY+Vy8DZ1vT3jufSLSEMWwArktXdswAzJzKIr4jEkBClCAAnkUUMck+mpPEJhlEY3qmayeNDyl6eqI4jMsBShAAQpQ4E0FWlrOnwXIVbnxaOfTTz8++5Zbbsnm1p+9KECBUhVgASufK+dff97fcJKqdkQ0bAbQRW5dkxNRfIalAAUoQIF8CKhKon/piaK6FICJYEiF4AK3tnFOBLEZkgIUoAAFKPCWAo7jjPO82H8D+rEcmKwx+rEFC+b/Joe+7EIBCpS4AAtY+V5AdUxyQ8MtUHwa/sa/8D8WwH+5tbNvgX8wLz8UoAAFKFByAol1i98rCbkNkNookhfBPWm1x6KueVMU8RmTAhSgAAUo8FYCLS2tbwf0cQBVwZV0XVfXtJ2XLZuVCd6XPShAgVIXiKKAUuom0eff1TEhEbO/EsgHIhnMvw5d5Qvphtm/iCQ+g1KAAhSgQGQCia4r3yUmexMEe0YxiCi6rWY/nmk49aEo4jMmBShAAQpQYGsCc+Ys+J4IjshFKZvF1y64YN7dufRlHwpQoPQFWMAq0BomejreI9C7IBgXUQrr3PTwftjhTF4tGxEww1KAAhQIW6C657Ids5L0t0W8I+zYI/EErsbsBzKTmh+IJD6DUoACFKAABbYhsHjx4lRfX19O30Mdx0n7VxASmQIUqEyBnH5wVCZV+LNOdnd8CUb9wwsnhB995IvKSiiOdesan4gkPoNSgAIUoEB4At1XT0zGhq6D4pPhBX1DpAVu7T6tkMO8CMdgaApQgAIUoAAFKEABCoQuwAJW6KQBAqpKsqfDgUFLRIf0QoA/pGE/wXNOAqwLm1KAAhTIt4AuT6Z6u25XkQ8DkZyP6P+6+neZ2vGfgBw/nO/pcTwKUIACFKAABShAAQqMVYAFrLEKjrH/xE3tdemM3ADokWMM9dbdRW51E9kTMbG5O7IxGJgCFKAABXITUMck+uq+I5BTo/plBoCHXdgP8ZcZuS0Re1GAAhSgAAUoQAEKFF6ABazCrwHGr//u1Ew87p95sl806YhC7fWuN3wSpp01EM0YjEoBClCAAoEFRopXDRcLtBlAInD/0XQQZDWr7800ND04muZsQwEKUIACFKAABShAgWIUYAGrSFYl0bv4vQbmZwpMiyglK8Cl6Vp3PuSMoYjGYFgKUIACFBitgOOY1Kl1s9XKZQDio+0WrJ1sBvD/3LrZPwnWj60pQAEKUIACFKAABShQXAIsYBXLeujyWLK/awZUrwfERJOWemJkcXpDzxy8zeEZKNEgMyoFKECBUQkkehZ/VYxZDMWkUXUI3sjC6kK3vmk+hDc2BedjDwpQgAIUoAAFKECBYhJgAauYVgNAsqfjXBg9H4pkJKkJ0mLlzHRd91UQh7dQRYLMoBSgAAW2IqCOSfbUzISJ3Ridk6iovTNdN/VIyMxsdOMwMgUoQAEKUIACFKAABfIjwAJWfpxHP8rINerD7VD96ug7BWypGBaDeemaKZfxi01AOzanAAUoMEaBVF/70Wr1+xDZfoyhttb9dtcOzETDOf4WQn4oQAEKUIACFKAABShQ8gIsYBXjEj5yyfjkTuPuBnBQVNepQzGssCdn6pp+BBEtRgbmRAEKUKCsBFSlun/poVnV30c8rxcB+3G3rvnJiMdheApQgAIUoAAFKEABCuRNgAWsvFEHG6iq/8pdrc3+DMCBwXoGar1JFHPTj/UsxWHcThhIjo0pQAEKBBSI93W834ycc4idA3YddXMB1ouYGcO1p0RdJBt1TmxIAQpQgAIUoAAFKECBMARYwApDMaIYiQ3tB4nFA1DEIhrCD+tC9QS3vum6CMdgaApQgAIVLZDo7zhQrK6IGGHIKI4drm/8v4jHYXgKUIACFKAABShAAQrkXYAFrLyTBxsw1dtxpIVeK8DUYD1H31oF3QI0uzWzb+Z2wtG7sSUFKECB0QjEu5d+yBjrv3m142ja59RGJCuKc9KPdl/BN2pzEmQnClCAAhSgAAUoQIEiF2ABq8gXCKqS2HjlNyVrrwIQ3XoJ0qpozNQ2Xs3r1ov9oWB+FKBAqQgk+5buD7X3A6iOMGeFyly3rvsCiGMjHIehKUABClCAAhSgAAUoUDCB6AoiBZtSGQ6sy2PJvq55UJwNQVWEM9ykBqdnHu65lr/Bj1CZoSlAgYoQiHd3HCaiN4lgSqQTFrnW1WwT6po3RToOg1OAAhSgAAUoQAEKUKCAAixgFRA/0NB+Eau/ayEUZwEwgfoGaqyuGHN2enL3Ev4mPxAcG1OAAhT4l0Cqd8lRKnIDFLVRsoji/9Ja/Wk0nLA5ynEYmwIUoAAFKEABClCAAoUWYAGr0CsQZPyVl09Obpf4HoDPRrqdENgsIuelaxqWQWa6QVJkWwpQgAKVLpDsWXIcRH4MYEKUFiK4Jz2Iz2Cnxt4ox2FsClCAAhSgAAUoQAEKFIMAC1jFsApBcui+emLSDC0D8IUg3YK3VRcwF7nrutuwj8MiVnBA9qAABSpQINHf8VVj9VIF6qOdvqyNiffeodpTX4x2HEanAAUoQAEKUIACFKBAcQiwgFUc6xAoi+rexTtZmJsUODRQx6CNBRmotLqZwcsw7ayBoN3ZngIUoEDFCCxfHkt8tPvrAu0EEIt03oLn3Jj7H5h0Rl+k4zA4BShAAQpQgAIUoAAFikiABawiWowgqbxcxIrdoNAPBOkXvK16AvwoLclvoXbWxuD92YMCFKBAmQuoY5K99edBcCaASdHOVobVmPdlak5eEe04jE4BClCAAhSgAAUoQIHiEmABq7jWI1A2qa6O3TVmfwbIvoE6Bm4sCui1rsmchprTNwTuzg4UoAAFylVgpVOVnNTQAtU5UU9RFF2w8fenp5z0TNRjMT4FKEABClCAAhSgAAWKTYAFrGJbkYD5JLo6DpSY/gjA/gG7Bm2uAO4wMT15eHLTyqCd2Z4CFKBA2Qmsu3Z8Mr7pShjMhCIV7fxkswAz03Wzb492HEanAAUoQAEKUIACFKBAcQqwgFWc6xIoq1R3+55q8L8Adg3UMZfGir+4iaojsN03+iHwi1r8UIACFKg8gQ1La1JZXa7QwyOfvGLAGPvx4drm30c+FgegAAUoQAEKUIACFKBAkQqwgFWkCxMoLVWp6rnyg2rsDzUfRSzIM8Z6s4YbTr0zUJ5sTAEKUKAMBJKbO94haV2igo9GPh1BL2z2BLf+1J9HPhYHoAAFKEABClCAAhSgQBELsIBVxIsTNLWqdUvepgm5R4GdgvYN2l6BLcjGPpiZwoOEg9qxPQUoULoCyd72fQD8GsD0PMzCP3/w825d0y15GItDUIACFKAABShAAQpQoKgFWMAq6uUJmJxCqnqWfEgNfqSQnQP2Dt5c4IrVM9OP9V6JwxwveAD2oAAFKFAiAro8luxafxzicgmAt0Wetf/mFfQ0t7bpusjH4gAUoAAFKEABClCAAhQoAQEWsEpgkQKmKFXrluyqCblTgV0C9g3efKSIJd9P1zU0Q2ZmgwdgDwpQgALFL1DV2/FNC/0ugHF5yFYh+KJb07Mc4tg8jMchKEABClCAAhSgAAUoUPQCLGAV/RLllmBV95IPq5EfKRD9m1gjKcrNMU1/a6j+jH/kljF7UYACFCg+gQmbFze4afMtGJwJRSzqDAW6VoFTuW0wamnGpwAFKEABClCAAhQoNQEWsEptxUabr6qkujt3R9y7XRW7jbbbGNr5bwk8DYnNdGtPfnwMcdiVAhSgQHEIPNiZSO6W+QkUxwAwkScl8ERjx6Rr1/+Gb15Frs0BKEABClCAAhSgAAVKTIAFrBJbsKDpJrrbDxID/wyVdwTtm2P7F8SiMV0/+zaIaI4x2I0CFKBA4QRUJdHT/m6JmRuhuns+EvHfvALka+m6xt/kYzyOQQEKUIACFKAABShAgVITYAGr1FYsh3xTGzt2V09vBHBwDt1z6bIBkCVubXYhpDmdSwD2oQAFKFAogWRv+0yMnHcl2+clB4FrYA4frum6l29e5UWcg1CAAhSgAAUoQAEKlKAAC1gluGi5pPxKEesGAO/JpX8OfbIi0hnPZBYMTD1tfQ792YUCFKBAfgXWXTI+mRh3JqBOHgdeCdhj3LrmJ/M4JoeiAAUoQAEKUIACFKBAyQmwgFVyS5Z7wlX97btYD0tgcGzuUYL09LcQ6v1qtTnT0PRgkJ5sSwEKUCCfAtX/uHR6trrqSqg9ApBknsZerRafyjQ0/iVP43EYClCAAhSgAAUoQAEKlKwAC1glu3Q5Jr7qstrk+OSPofhYXg4lHklT+wTyhXTtlLshM90cM2c3ClCAAuEL+Odd9V71HjHZG6B4e/gDvGlE/3zAx93anoMhDn8m5gmdw1CAAhSgAAUoQAEKlLYAC1ilvX65Zb+pvS7hqSMqswAkcgsStJcMC7QjXdtzLsTxgvZmewpQgAKhC6zpHJes8hqhejqAaaHHf4uAAvxGYjpreHLTynyNyXEoQAEKUIACFKAABShQ6gIsYJX6Cuaa/xNOMrF9/XdEcQqAWK5hgveTZ4zRI4ZrGl/0X80K3p89KEABCoQg4J93lRzXCdUvhRBttCEsILe4dbO/MNoObEcBClCAAhSgAAUoQAEKvCzAAlYlPwnqJFN9DU0qOgeKmjxS/O2lXTsLM3UN10NmZvM4LoeiAAUogKqepYdbsRcCeHceOawC7ZkhLMBOjb15HJdDUYACFKAABShAAQpQoCwEWMAqi2UcwyRUJdm/9ItQvW4MUXLpahV6dWYwcyqmnzGUSwD2oQAFKBBIwP9519t+Doxpg2oe3zyFtRbnevWzvwPxL7fghwIUoAAFKEABClCAAhQIKsACVlCxMm2f6l1ylKpcAcFeeZyiiuJuUesM10/7A9/GyqM8h6JAhQmkNrXvqRmcD2Bm/i6wGEHeKKLnpmuSV0NmZSqMndOlAAUoQAEKUIACFKBAfkNsEwAAGxRJREFUaAIsYIVGWfqBkr2L3ylq7lJBQ55ns0GA89N1jd/N87gcjgIUKHcBhST7Oj4L0WV53irty67RmPlkZtIpf4HwzL9yf9Q4PwpQgAIUoAAFKECBaAVYwIrWt+SiT9zUXpd25RqIHp3fw919KvkJxC5wa5seKzk4JkwBChSdQFX/lbtmvWyjCGZDUJW/BEWhukITOCUzqfFP+RuXI1GAAhSgAAUoQAEKUKB8BVjAKt+1zX1mLyytSUzURaJ6Uu5BcuqpUKxVwfxMbc8PII7NKQo7UYACFS8QX7/kUBPHVS8VxvctAMbtMY19Y6j+5H8UYGwOSQEKUIACFKAABShAgbIUYAGrLJc1nEml+trPUsUcAJPCiTjqKFmoXi8J25be7tRnufVm1G5sSIGKFxjXffn2niROheCcAmAMQPBTd8CdxcspCqDPISlAAQpQgAIUoAAFylqABayyXt4xTk47E6k+9yMKcw2g248xWi7dVypwYaZ29vd4c1cufOxDgQoSUJVU/9JjVO0iiOwNRTzPs3fV6qmZ+qnf44UUeZbncBSgAAUoQAEKUIACFSHAAlZFLPPYJukf7g6YHwJ4z9gi5dRbX7oZ8UZjzNzh73Y9D4fbCnNSZCcKlK+AjOu+fJoXT5wEi7OBfJ515aOKAnaVMebrwzWz7yxfZs6MAhSgAAUoQAEKUIAChRVgAauw/iUzenVvx3QLbVHghPwf7u5/R8RzomhP105ZCpnplgwcE6UABSIVSPa2zwTwbQAHRjrQWwRXkd9LInaSO/GkJwsxPsekAAUoQAEKUIACFKBApQiwgFUpKx3GPLUzkezLtAA4E8C4MEIGjaGKu0wSs9ITpzzHbTpB9dieAuUjML6rY1omphcC+FpBZiVwRXFtuq7xmwUZn4NSgAIUoAAFKEABClCgwgRYwKqwBR/zdNUxyQ31x8LC/+K495jj5RZgDUSvSSb0ii0Tm7tzC8FeFKBASQroteMTfZu/IdBTAOxZoDlsNBZnD2eHrse0swYKlAOHpQAFKEABClCAAhSgQEUJsIBVUcsd3mSr1nxnF5uqugPA7gBMeJEDRVplPf0vb8rU+/k2ViA3NqZA6QmoY6rXTNwxm0r9DIJ3F3ACfxdrjk43nPJ0AXPg0BSgAAUoQAEKUIACFKg4ARawKm7JQ5zwms5xyZR3PkRPhSIRYuQgoQYB3KwmtiRTc/KKIB3ZlgIUKA2B6t7FO2Ul3gy1JwOYUJis1YWYmySG1vSk2c8WJgeOSgEKUIACFKAABShAgcoVYAGrctc+nJmrY+IbpnxAVH8uqpPCCZpDFMUgBBe5dY0LcujNLhSgQDEKqGMSG+q/JBbLAKRGrnMozEfF6Onpyb0dEMcrTAoclQIUoAAFKEABClCAApUtUKgvA5WtXoazT3S3HyQGCwEcVcAvmYDqChh8x63R/4Y0p8uQmlOiQPkLrHSqUpPqDlOVRkCPBCResEkr/mJhzvHqT/ltwXLgwBSgAAUoQAEKUIACFKBAwX6bTfpyFOjqmJCMSzOsnQcZeVuiMB9FGoqnFXpCpqHpwcIkwVEpQIGcBJ7rnJScnLnmlWJ4QW47fSVvBewtrpk4CzXHb8hpLuxEAQpQgAIUoAAFKEABCoQmwDewQqNkoBEB/5bC7rrPIoZ5gLyzgAe8+9lsEcE1VuzVmcnTHudB73xGKVCkAgpJbVy8m9rYF2DtuRAp0DlX//L5h6helK5raodAi1SNaVGAAhSgAAUoQAEKUKCiBFjAqqjlzt9kq/rbd7EqC6H6pfyN+pYjrRNgeXIICzbv1NhbBPkwBQpQ4J8Cemc82f/kGVA9BcD0wha9RQX6W8QSJ6cnrV0JcSwXigIUoAAFKEABClCAAhQoDgEWsIpjHcozC3VMqr9+liq+/coX00LPc7WILjQ2/ouhupPWQIRvVhR6RTh+5Qr0Xz45aeNHAKYV0L0KDSEiPVZxfQbZeahr3lTofDg+BShAAQpQgAIUoAAFKPBaARaw+EREK+BvKeyv2wcwC6B6XLSDjSp6FsCTCr0mUzt1MbcVjsqMjSgQnoAuTyb718+EShOA/QFUhRc810j6pDGYPVzTdFeuEdiPAhSgAAUoQAEKUIACFIhWgAWsaH0Z/Z8Cdzrx5AH1Z6niDAHqiwTmBcT0LNfI7zCxsY9n3RTJqjCN8hTo6phQHcP+VnShKj5cHJOUzaJ6Xbpun2bIYV5x5MQsKEABClCAAhSgAAUoQIE3E2ABi89F/gTUMYmN0w4S682F4pjCnnXzr2lnAKxQyA2Z2nGdkOOH8wfCkShQAQL+G1d96z8lihNV5FAA1UUy6wcEMjdd23AXZKZbJDkxDQpQgAIUoAAFKEABClDgLQRYwOKjkX+BBzsT8d28s43q2YBMBLQonkNVdIloowv9X9Q2b+YbWfl/NDhiGQms6RwXj7nvMnG5BMAhRTMzxRCAm9y6RCNk1mDR5MVEKEABClCAAhSgAAUoQIGtChRF4YBrVJkCiZ72/xSRswH9TPEIqAfICoj8JJ6K/3hw/Ky1xZMbM6FACQhsWFqTyOhMGPs5gRwGIFYsWStwrxEsStf03M4bBotlVZgHBShAAQpQgAIUoAAFRifAAtbonNgqQoFk95IvwkgHgMkRDhM8tMLfTrjAFduB2qbNvLUwOCF7VJDAE8uTyWndnxboZQrsUGQzz0D0Uremdy7E4VlXRbY4TIcCFKAABShAAQpQgAKjEWABazRKbBOtgEKS/Uv3g9rTAMwAMCHaAYNEFwX0eQV+Ggf+e6iu8b4gvdmWAmUt4N8y2lf/DkA+A9iZgOxbZPO1AG631l7sNTTfXWS5MR0KUIACFKAABShAAQpQIIAAC1gBsNg0YoE7nXjVu+o/lLW4URQNEY8WMPxIISs9cuC7eqdm6k/7c8AAbE6BshKo7rti56yNXQDopyAyDkCR/Xmim6CY7dZNXc5D2svq0eNkKEABClCAAhSgAAUqVKDIvnBU6Cpw2q8VWHVZbXJ88mxRfE2BaUXHI8iIxT1WcENcsr8dqj31xaLLkQlRIAKB8eu/OzUTj70fkM8B+CQAv3BVbB+/cPVTUe/CdMNpTxdbcsyHAhSgAAUoQAEKUIACFMhNgAWs3NzYK2qBkbexdpxuvfQVEDmmWG4qfN20MwLpAfS2NOz5qGteHTUL41OgIALrvzs1GY/PAvQEqEyFIFWQPLY1qOAvar2TMnUbHoE47raa879TgAIUoAAFKEABClCAAqUjwAJW6axVZWaqnYlEb/pLYmLNUD3gpUPVTZFC+F+Wb4UxN8as9+BQbdM/eOh7ka4U0xqdwOr2uqoq864s7GeMwQxV1I+uY95bKSDPQu2PXGuuwJTZW/KeAQekAAUoQAEKUIACFKAABSIXYAErcmIOEIaAv3XJi8e+oMA8QGrDiBlNDBkG9EUR+a3CXOnWnvx4NOMwKgUiEujqmJaMaxNUjwNk5+K6VOENc/aLV5eamF06PLlpZUQiDEsBClCAAhSgAAUoQAEKFIEAC1hFsAhMYfQCqa4r9tCYf3A0DgNQxIWskTllFXKnAJ3iZVekp0x7HjIzO/rZsiUF8iCgTrx6aMdpdsh9p8IeD+BzgMTzMHLuQyjSENypJvPtTM3pD+ceiD0pQAEKUIACFKAABShAgVIRYAGrVFaKef5b4MHORNXOmUM0jm+pjhwkXewfC+gLUHkCIte567p/hn14Pk+xL1rZ5/fM4lSqVj6sgi9C5T1Q7Fa0Z1v9czFk5DbQ+60nCzypuhcNJ2wu+3XiBClAAQpQgAIUoAAFKECBEQEWsPgglLRAsmfxZyDGgWBvKBIlMpmNCnwfxv44EzOrcfvdGzDzFr6ZVSKLV7JpKgT9ndslrbcDjH4SFt+E4O0lMp8sBKtFzHfTk2MdkFmZEsmbaVKAAhSgAAUoQAEKUIACIQmwgBUSJMMUTsA/H8uNx44W4AxA9i1cJoFHHgLwhIo8ZIDb0tktd6HhHL5REpiRHbYqoMtj8f7uQ4y1x4rIexXwL0OYVEJqL4qgXSR2y3DNyc+XUN5MlQIUoAAFKEABClCAAhQIUYAFrBAxGarAAk84yeS0+nNF0KSKulJ7w1AF/VD5IbLutRnZ7jnUrxqCOF6BVTl8qQmoY4DdqqvWbqq3KXwNwIkAdiyxaSgUA2LkxtRA+txN08/oK7H8mS4FKEABClCAAhSgAAUoELIAC1ghgzJc4QVSGxa/XbPmS1B8tYS2SL0azt8e9RQUD2pc/mgymT+k6zc8A3Fs4XWZQVEKKKS6v3N6Fpn3CfA+9c+0Ag4EtKoo891aUorNqvZ7gN6QaTj1oZLLnwlTgAIUoAAFKEABClCAApEIsIAVCSuDFoWAXju+qnfTHCs4C0Bx36q2bbAn1Mj3MjZ7DWqbN0Og2+7CFmUtoJAGdIzfuEmOg2dPBvBeAKZ05zxyQPutbmboK5h21kDpzoOZU4ACFKAABShAAQpQgAJRCLCAFYUqYxaVQKqrY3eN4+uwdibE7A5oKT/3/ttZK0T1TzZm/gLRRzOT7BOQ5nRRoTOZ8AW0M5Hs9XaH4kAIDlTgP0VwEKATwx8sfxEV8LcH/kSBH3p1jfflb2SORAEKUIACFKAABShAAQqUkkApf5EvJWfmWmgBxzETz6ivSWf0FKicB0Hpba16vaHAgyItwGaF/lpglqdrx90FOX640NwcPzyBRPeSg43B5wH5nAL1AFJAydy4uTWIjKp2ZmLeXDy8cQsO43lv4T01jEQBClCAAhSgAAUoQIHyE2ABq/zWlDPalsDmK6ck3exsAJ+EYF9oyW8vfNWMZaMCD4rqgxBZoZpdmczaFwamnrZ+Wyz87wUW2LC0JqG6i2SxGwzeAbWHCOQ9CkwpcGbhDq94VgS/VDHXuLWnPBpucEajAAUoQAEKUIACFKAABcpVgAWscl1ZzmvrAqoyYd2SejcVOxxqLwZkpzIk87cb+udlbZYsVqvBHUbMncM11X/mW1pFsNrqmERX7X4mbj6q0MMB2VuAiSqYCB15y6qsPgKst4pFCU3cMvj42m6+cVVWy8vJUIACFKAABShAAQpQIHIBFrAiJ+YARS+gy2OJ3q4vG4Ovq3++EDC56HMeW4IDgD4qkD+L2hVeTJ43ansSGe0euHuHHsycmR1bePb+l4Auj03c3F+Tdt16Y7XBxmM7idqDADlIgXcDmFTeWuoCskIgP6nasunqjbt8u7+858vZUYACFKAABShAAQpQgAJRCbCAFZUs45aeQPdFE+Nm/L4x6PEK+XqZnDO07XVQDEKwAcAGGTlQW5+CmIeynveEZ90VvBFu24T/bLGTXlbd15vaNxPDO0xW3w3RdyowDRC/UOUXRkv6wPXRSwBQ/I815jte3D6JiY19vDkzkB4bU4ACFKAABShAAQpQgAKvE2ABi48EBd5EoKq/fRfN4iwFjoJgl4opZr3RQgE8D8hfjdpHAHnSE3nOiGwRExuIZQYHB01sACtTQzh4lr9lsTw/qoLupeMnVJtxXtYbb60dr65MkITZGVD/HLV9IbI3FLtBym/73ygX1UKwGpB7AHORW3vy46Psx2YUoAAFKEABClCAAhSgAAW2KcAC1jaJ2KBiBVSlun/x9Cxi74Pq8RD5MBTJivX498QV0I2AbASwUWTk4PhNUO2C1Rc1hnViZb3CWx03sn5oINuN6WcMFb2bLo9V9/ZOyxqtE093ENGdrZEdRHWKGuwgFpPUYDt/258AkxTYjs/DyKoqFCtU5CpR+3u3rvdZCG8ULPrnnQlSgAIUoAAFKEABClCgxARYwCqxBWO6BRJQSKJnybvFmLMV+kERqYdqrEDZlNywouhWQQ8gq6Da4/+7KNYYQa8VO2BsvFuMDlvPG7ktUazxkIorhochyZg32gmrScT/2VYzNg54YsVMisXjE6DeTlAZZ1VqIaiDyFRRnaqq9WIwXRV1AMxox6rodiJZqG4QwRMiOn+4pumuivbg5ClAAQpQgAIUoAAFKECByAVYwIqcmAOUlYCqpHo69rAqH5CYzoDgo1D8q2hSVnMt6GR0ABCFICuKIUD9rYzb+Bj/VaAJfv3rlYbVAFhk3BZbsP+eVcH9RvFTa2J3ZiavfwTi2GAh2JoCFKAABShAAQpQgAIUoEBwARawgpuxBwX+JVA9eNmOdigxX4HPQmQiFAnyUKDMBPwClX9z5R/UNfMz0055ECKjKCiWmQKnQwEKUIACFKAABShAAQoUVIAFrILyc/AyERB0L9k+CXwYRo4AcDiAncpkbpxG5QpsAXC7ivk/k8Wd6fqT/8bCVeU+DJw5BShAAQpQgAIUoAAFCi3AAlahV4Djl5eAf1sdLq9K9qQ+A4P5gO5RXhPkbMpdQPyzylQuTD/afQXuhoXDLYLlvuacHwUoQAEKUIACFKAABUpBgAWsUlgl5liaAro8ltjUfZBYPQpW3w+R/4CipjQnw6zLVkAxqIIVIvJ7a+1vvLqpf4DMdMt2vpwYBShAAQpQgAIUoAAFKFCSAixgleSyMemSE1h1WTUmjR+fSLufEyOnAti75ObAhMtLQHUtRL5nvMyPhiXZhYZTBrhFsLyWmLOhAAUoQAEKUIACFKBAOQmwgFVOq8m5lIxAovuKd4vEPg7BoYC+E5CdSyZ5JlqCAqKi2g2DJxR4wGbtr7361B8hszIlOBmmTAEKUIACFKAABShAAQpUoAALWBW46JxyEQlo57jqftS7yO4Tg34Ris8BWlVEGTKVUhZQpGHkDgA3GyP3DWe9HtQ2b4aAtwiW8roydwpQgAIUoAAFKEABClSgAAtYFbjonHIRC+g1Van+wSOgeowCB6jqriJSDyBWxFkztSIREJEeVV0N6FOw+GUqlbxj83azeookPaZBAQpQgAIUoAAFKEABClAgZwEWsHKmY0cKRCzQf/nkpFbtBLF7iqcfh8ERCuwS8agMX2ICKtggKv+rBr8Cso+k0om1W6ae1M3zrEpsIZkuBShAAQpQgAIUoAAFKLBVARaw+IBQoFQEli+PJT7cvZ8YfEIERyl0RwC1ACaXyhSY51gERAEdANALYB2Ae4zYXwzXNP2BxaqxuLIvBShAAQpQgAIUoAAFKFAKAixglcIqMUcKvF5AnXh1//Y7ZOBOFyu7G5FDVfVQCPYEECdYGQmoPgfgTwLcK8BfNa4vpLuxGns0p8tolpwKBShAAQpQgAIUoAAFKECBrQqwgMUHhALlJLD5yinVNvuRbAbHQvBeEUxUxTgA1QBMOU21vOYiCtVhGAxCsQWqK9SY22Oitw/XNL5QXnPlbChAAQpQgAIUoAAFKEABCgQXYAEruBl7UKA0BHR5MrWpbxd43q6wshuM7m0h+xroOxTwtx/yUzABUQG6oXjKGn0SkMcN5AVF5gXXiz+PKbO3FCw1DkwBClCAAhSgAAUoQAEKUKAIBVjAKsJFYUoUiFxg4/drk97QESLyIVW8H9DdABODaAw6cuMh39Ya+yJYABaKLMT/R9bB2j+qxH4Xy2TvGp7WtHLsQzACBShAAQpQgAIUoAAFKECByhBgAasy1pmzpMDWBVZdVptIxqebRGxnWN1Jjfj/d7oItlfIjlCdDhnZisjPmwko0hCsFWC1AmsUdjU0tlJiWKOevJCp8l7EhKYeHrbOx4cCFKAABShAAQpQgAIUoEBuAixg5ebGXhQobwHFSz8bHP/ng8GTMHhnrSR7Y7vFjB6QBfYTi/0g2FeBt5U3xBtnJ9C1KvKo+Nv/FA/DZh7JWO8ZTN0lAzRYoFuBGZbFqkp7MjhfClCAAhSgAAUoQAEKUCBKARawotRlbAqUu4B2Jqr7h7f3JFlnrJ1qVacKdCqAySKmXlXHiZHJsDpOBROhGA/R8QAmAJIERt7qyvd2xc0AXAGGFfDPmtokIv6/bwJ0QFQ3WshmY7HOwm4QMV0xYB1E1gzVdndDnOFyX1bOjwIUoAAFKEABClCAAhSgQLEJsIBVbCvCfChQLgLqGDy0fQxTB+JIpWKIx2OIDcQmDMZjGovFVKxRo8ZmtdrEUvUay1TbrNTDwojBDi8zqFFgqmLkXK5tfEQNZC2g/tlTsMb0i7UDIjJkNNbjZd3heCzWI1VxTwY8f3i7xctmMS7hIbvBYjjhYaedssCTHsQZicEPBShAAQpQgAIUoAAFKEABChSHAAtYxbEOzIICFKAABShAAQpQgAIUoAAFKEABClDgLQRYwOKjQQEKUIACFKAABShAAQpQgAIUoAAFKFDUAixgFfXyMDkKUIACFKAABShAAQpQgAIUoAAFKEABFrD4DFCAAhSgAAUoQAEKUIACFKAABShAAQoUtQALWEW9PEyOAhSgAAUoQAEKUIACFKAABShAAQpQgAUsPgMUoAAFKEABClCAAhSgAAUoQAEKUIACRS3AAlZRLw+TowAFKEABClCAAhSgAAUoQAEKUIACFGABi88ABShAAQpQgAIUoAAFKEABClCAAhSgQFELsIBV1MvD5ChAAQpQgAIUoAAFKEABClCAAhSgAAVYwOIzQAEKUIACFKAABShAAQpQgAIUoAAFKFDUAixgFfXyMDkKUIACFKAABShAAQpQgAIUoAAFKEABFrD4DFCAAhSgAAUoQAEKUIACFKAABShAAQoUtQALWEW9PEyOAhSgAAUoQAEKUIACFKAABShAAQpQgAUsPgMUoAAFKEABClCAAhSgAAUoQAEKUIACRS3AAlZRLw+TowAFKEABClCAAhSgAAUoQAEKUIACFGABi88ABShAAQpQgAIUoAAFKEABClCAAhSgQFELsIBV1MvD5ChAAQpQgAIUoAAFKEABClCAAhSgAAVYwOIzQAEKUIACFKAABShAAQpQgAIUoAAFKFDUAixgFfXyMDkKUIACFKAABShAAQpQgAIUoAAFKEABFrD4DFCAAhSgAAUoQAEKUIACFKAABShAAQoUtQALWEW9PEyOAhSgAAUoQAEKUIACFKAABShAAQpQgAUsPgMUoAAFKEABClCAAhSgAAUoQAEKUIACRS3AAlZRLw+TowAFKEABClCAAhSgAAUoQAEKUIACFGABi88ABShAAQpQgAIUoAAFKEABClCAAhSgQFELsIBV1MvD5ChAAQpQgAIUoAAFKEABClCAAhSgAAVYwOIzQAEKUIACFKAABShAAQpQgAIUoAAFKFDUAixgFfXyMDkKUIACFKAABShAAQpQgAIUoAAFKEABFrD4DFCAAhSgAAUoQAEKUIACFKAABShAAQoUtcD/B685xbEgC5JnAAAAAElFTkSuQmCC;" parent="2BIPHVkeTHTQ2Wo5Wz-0-19" vertex="1">
          <mxGeometry x="8.700000000000045" y="5.5" width="142.61" height="70" as="geometry" />
        </mxCell>
        <mxCell id="2BIPHVkeTHTQ2Wo5Wz-0-20" value="" style="group" parent="1" vertex="1" connectable="0">
          <mxGeometry x="158.94" y="700.5" width="164.06" height="80" as="geometry" />
        </mxCell>
        <mxCell id="2BIPHVkeTHTQ2Wo5Wz-0-9" value="" style="rounded=1;whiteSpace=wrap;html=1;fillColor=#dae8fc;strokeColor=#6c8ebf;" parent="2BIPHVkeTHTQ2Wo5Wz-0-20" vertex="1">
          <mxGeometry x="2.030000000000001" width="160" height="80" as="geometry" />
        </mxCell>
        <mxCell id="2BIPHVkeTHTQ2Wo5Wz-0-12" value="" style="shape=image;verticalLabelPosition=bottom;labelBackgroundColor=default;verticalAlign=top;aspect=fixed;imageAspect=0;image=https://gdm-catalog-fmapi-prod.imgix.net/ProductLogo/9821cf5c-1f53-450c-99fc-52cff63fb213.png;" parent="2BIPHVkeTHTQ2Wo5Wz-0-20" vertex="1">
          <mxGeometry y="5" width="164.06" height="70" as="geometry" />
        </mxCell>
        <mxCell id="2BIPHVkeTHTQ2Wo5Wz-0-21" value="" style="aspect=fixed;sketch=0;html=1;dashed=0;whitespace=wrap;verticalLabelPosition=bottom;verticalAlign=top;fillColor=#2875E2;strokeColor=#ffffff;points=[[0.005,0.63,0],[0.1,0.2,0],[0.9,0.2,0],[0.5,0,0],[0.995,0.63,0],[0.72,0.99,0],[0.5,1,0],[0.28,0.99,0]];shape=mxgraph.kubernetes.icon2;kubernetesLabel=1;prIcon=ing" parent="1" vertex="1">
          <mxGeometry x="480.01" y="574" width="83.33" height="80" as="geometry" />
        </mxCell>
        <mxCell id="2BIPHVkeTHTQ2Wo5Wz-0-22" value="" style="group" parent="1" vertex="1" connectable="0">
          <mxGeometry x="441.68" y="439.5" width="160" height="81" as="geometry" />
        </mxCell>
        <mxCell id="2BIPHVkeTHTQ2Wo5Wz-0-23" value="" style="rounded=1;whiteSpace=wrap;html=1;" parent="2BIPHVkeTHTQ2Wo5Wz-0-22" vertex="1">
          <mxGeometry width="160" height="81" as="geometry" />
        </mxCell>
        <mxCell id="2BIPHVkeTHTQ2Wo5Wz-0-32" value="cloudflared" style="shape=image;verticalLabelPosition=bottom;labelBackgroundColor=default;verticalAlign=top;aspect=fixed;imageAspect=0;image=https://raw.githubusercontent.com/github/explore/db5984103161a6f28a99b69bd609873d83a21d75/topics/cloudflare/cloudflare.png;clipPath=inset(27.08% 0% 27.08% 0%);" parent="2BIPHVkeTHTQ2Wo5Wz-0-22" vertex="1">
          <mxGeometry x="36.00000000000001" y="10.499999999999984" width="88" height="40.333333333333336" as="geometry" />
        </mxCell>
        <mxCell id="2BIPHVkeTHTQ2Wo5Wz-0-5" value="" style="sketch=0;aspect=fixed;pointerEvents=1;shadow=0;dashed=0;html=1;strokeColor=#82b366;labelPosition=center;verticalLabelPosition=bottom;verticalAlign=top;align=center;fillColor=#d5e8d4;shape=mxgraph.mscae.general.tunnel" parent="1" vertex="1">
          <mxGeometry x="320" y="466.5" width="150" height="27" as="geometry" />
        </mxCell>
        <mxCell id="2BIPHVkeTHTQ2Wo5Wz-0-25" value="Tunnel" style="text;html=1;align=center;verticalAlign=middle;whiteSpace=wrap;rounded=0;" parent="1" vertex="1">
          <mxGeometry x="365" y="468.25" width="60" height="23.5" as="geometry" />
        </mxCell>
        <mxCell id="2BIPHVkeTHTQ2Wo5Wz-0-27" value="" style="shape=image;verticalLabelPosition=bottom;labelBackgroundColor=default;verticalAlign=top;aspect=fixed;imageAspect=0;image=https://1000logos.net/wp-content/uploads/2020/09/Cloudflare-logo.png;" parent="1" vertex="1">
          <mxGeometry x="259" y="506.67" width="80" height="33.33" as="geometry" />
        </mxCell>
        <mxCell id="2BIPHVkeTHTQ2Wo5Wz-0-29" value="*lucascajal.com" style="text;html=1;align=center;verticalAlign=middle;whiteSpace=wrap;rounded=0;" parent="1" vertex="1">
          <mxGeometry x="20" y="480" width="100" height="23.5" as="geometry" />
        </mxCell>
        <mxCell id="2BIPHVkeTHTQ2Wo5Wz-0-31" style="edgeStyle=orthogonalEdgeStyle;rounded=0;orthogonalLoop=1;jettySize=auto;html=1;entryX=0.962;entryY=0.5;entryDx=0;entryDy=0;entryPerimeter=0;startArrow=classic;startFill=1;endArrow=none;endFill=0;" parent="1" source="2BIPHVkeTHTQ2Wo5Wz-0-5" target="2BIPHVkeTHTQ2Wo5Wz-0-3" edge="1">
          <mxGeometry relative="1" as="geometry" />
        </mxCell>
        <mxCell id="2BIPHVkeTHTQ2Wo5Wz-0-33" style="edgeStyle=orthogonalEdgeStyle;rounded=0;orthogonalLoop=1;jettySize=auto;html=1;exitX=0.5;exitY=1;exitDx=0;exitDy=0;entryX=0.5;entryY=0;entryDx=0;entryDy=0;entryPerimeter=0;" parent="1" source="2BIPHVkeTHTQ2Wo5Wz-0-23" target="2BIPHVkeTHTQ2Wo5Wz-0-21" edge="1">
          <mxGeometry relative="1" as="geometry" />
        </mxCell>
        <mxCell id="2BIPHVkeTHTQ2Wo5Wz-0-35" style="edgeStyle=orthogonalEdgeStyle;rounded=0;orthogonalLoop=1;jettySize=auto;html=1;exitX=0;exitY=0.25;exitDx=0;exitDy=0;entryX=1;entryY=0.25;entryDx=0;entryDy=0;" parent="1" source="2BIPHVkeTHTQ2Wo5Wz-0-18" target="2BIPHVkeTHTQ2Wo5Wz-0-9" edge="1">
          <mxGeometry relative="1" as="geometry" />
        </mxCell>
        <mxCell id="2BIPHVkeTHTQ2Wo5Wz-0-36" style="edgeStyle=orthogonalEdgeStyle;rounded=0;orthogonalLoop=1;jettySize=auto;html=1;exitX=1;exitY=0.75;exitDx=0;exitDy=0;entryX=0;entryY=0.75;entryDx=0;entryDy=0;" parent="1" source="2BIPHVkeTHTQ2Wo5Wz-0-9" target="2BIPHVkeTHTQ2Wo5Wz-0-18" edge="1">
          <mxGeometry relative="1" as="geometry" />
        </mxCell>
        <mxCell id="2BIPHVkeTHTQ2Wo5Wz-0-38" style="edgeStyle=orthogonalEdgeStyle;rounded=0;orthogonalLoop=1;jettySize=auto;html=1;exitX=0.28;exitY=0.99;exitDx=0;exitDy=0;exitPerimeter=0;entryX=0.381;entryY=-0.016;entryDx=0;entryDy=0;entryPerimeter=0;" parent="1" source="2BIPHVkeTHTQ2Wo5Wz-0-21" target="2BIPHVkeTHTQ2Wo5Wz-0-18" edge="1">
          <mxGeometry relative="1" as="geometry" />
        </mxCell>
        <mxCell id="2BIPHVkeTHTQ2Wo5Wz-0-39" style="edgeStyle=orthogonalEdgeStyle;rounded=0;orthogonalLoop=1;jettySize=auto;html=1;exitX=0.72;exitY=0.99;exitDx=0;exitDy=0;exitPerimeter=0;entryX=0.61;entryY=0.012;entryDx=0;entryDy=0;entryPerimeter=0;startArrow=classic;startFill=1;endArrow=none;endFill=0;" parent="1" source="2BIPHVkeTHTQ2Wo5Wz-0-21" target="2BIPHVkeTHTQ2Wo5Wz-0-18" edge="1">
          <mxGeometry relative="1" as="geometry" />
        </mxCell>
        <mxCell id="2BIPHVkeTHTQ2Wo5Wz-0-51" value="service 1" style="aspect=fixed;sketch=0;html=1;dashed=0;whitespace=wrap;verticalLabelPosition=bottom;verticalAlign=top;fillColor=#2875E2;strokeColor=#ffffff;points=[[0.005,0.63,0],[0.1,0.2,0],[0.9,0.2,0],[0.5,0,0],[0.995,0.63,0],[0.72,0.99,0],[0.5,1,0],[0.28,0.99,0]];shape=mxgraph.kubernetes.icon2;prIcon=svc" parent="1" vertex="1">
          <mxGeometry x="696.67" y="468.25" width="83.33" height="80" as="geometry" />
        </mxCell>
        <mxCell id="2BIPHVkeTHTQ2Wo5Wz-0-54" value="service 2" style="aspect=fixed;sketch=0;html=1;dashed=0;whitespace=wrap;verticalLabelPosition=bottom;verticalAlign=top;fillColor=#2875E2;strokeColor=#ffffff;points=[[0.005,0.63,0],[0.1,0.2,0],[0.9,0.2,0],[0.5,0,0],[0.995,0.63,0],[0.72,0.99,0],[0.5,1,0],[0.28,0.99,0]];shape=mxgraph.kubernetes.icon2;prIcon=svc" parent="1" vertex="1">
          <mxGeometry x="696.67" y="574" width="83.33" height="80" as="geometry" />
        </mxCell>
        <mxCell id="2BIPHVkeTHTQ2Wo5Wz-0-55" value="service 3" style="aspect=fixed;sketch=0;html=1;dashed=0;whitespace=wrap;verticalLabelPosition=bottom;verticalAlign=top;fillColor=#2875E2;strokeColor=#ffffff;points=[[0.005,0.63,0],[0.1,0.2,0],[0.9,0.2,0],[0.5,0,0],[0.995,0.63,0],[0.72,0.99,0],[0.5,1,0],[0.28,0.99,0]];shape=mxgraph.kubernetes.icon2;prIcon=svc" parent="1" vertex="1">
          <mxGeometry x="696.67" y="680" width="83.33" height="80" as="geometry" />
        </mxCell>
        <mxCell id="2BIPHVkeTHTQ2Wo5Wz-0-56" style="edgeStyle=orthogonalEdgeStyle;rounded=0;orthogonalLoop=1;jettySize=auto;html=1;exitX=0.995;exitY=0.63;exitDx=0;exitDy=0;exitPerimeter=0;entryX=0.005;entryY=0.63;entryDx=0;entryDy=0;entryPerimeter=0;" parent="1" source="2BIPHVkeTHTQ2Wo5Wz-0-21" target="2BIPHVkeTHTQ2Wo5Wz-0-54" edge="1">
          <mxGeometry relative="1" as="geometry" />
        </mxCell>
        <mxCell id="2BIPHVkeTHTQ2Wo5Wz-0-57" style="edgeStyle=orthogonalEdgeStyle;rounded=0;orthogonalLoop=1;jettySize=auto;html=1;exitX=0.995;exitY=0.63;exitDx=0;exitDy=0;exitPerimeter=0;entryX=0.005;entryY=0.63;entryDx=0;entryDy=0;entryPerimeter=0;" parent="1" source="2BIPHVkeTHTQ2Wo5Wz-0-21" target="2BIPHVkeTHTQ2Wo5Wz-0-51" edge="1">
          <mxGeometry relative="1" as="geometry">
            <Array as="points">
              <mxPoint x="660" y="624" />
              <mxPoint x="660" y="519" />
            </Array>
          </mxGeometry>
        </mxCell>
        <mxCell id="2BIPHVkeTHTQ2Wo5Wz-0-58" style="edgeStyle=orthogonalEdgeStyle;rounded=0;orthogonalLoop=1;jettySize=auto;html=1;exitX=0.995;exitY=0.63;exitDx=0;exitDy=0;exitPerimeter=0;entryX=0.005;entryY=0.63;entryDx=0;entryDy=0;entryPerimeter=0;" parent="1" source="2BIPHVkeTHTQ2Wo5Wz-0-21" target="2BIPHVkeTHTQ2Wo5Wz-0-55" edge="1">
          <mxGeometry relative="1" as="geometry">
            <Array as="points">
              <mxPoint x="660" y="624" />
              <mxPoint x="660" y="730" />
            </Array>
          </mxGeometry>
        </mxCell>
        <mxCell id="iouYrEP-tIxwuHAgDkwo-4" value="cluster&amp;nbsp;&amp;nbsp;" style="rounded=1;whiteSpace=wrap;html=1;arcSize=0;align=right;" vertex="1" parent="1">
          <mxGeometry x="400" y="360" width="100" height="40" as="geometry" />
        </mxCell>
        <mxCell id="iouYrEP-tIxwuHAgDkwo-2" value="" style="shape=image;verticalLabelPosition=bottom;labelBackgroundColor=default;verticalAlign=top;aspect=fixed;imageAspect=0;image=https://1000logos.net/wp-content/uploads/2022/07/Kubernetes-Emblem-2048x1152.png;" vertex="1" parent="1">
          <mxGeometry x="400" y="362.5" width="62.22" height="35" as="geometry" />
        </mxCell>
      </root>
    </mxGraphModel>
  </diagram>
</mxfile>
